NotoAmalgamated-Italic.ufo
<glyph name="exclam" format="2">
  <advance width="261"/>
  <unicode hex="0021"/>
  <outline>
    <contour>
      <point x="77" y="201" type="line"/>
      <point x="148" y="201" type="line"/>
      <point x="275" y="714" type="line"/>
      <point x="168" y="714" type="line"/>
    </contour>
    <contour>
      <point x="73" y="-14" type="curve" smooth="yes"/>
      <point x="123" y="-14"/>
      <point x="146" y="28"/>
      <point x="146" y="67" type="curve" smooth="yes"/>
      <point x="146" y="102"/>
      <point x="125" y="121"/>
      <point x="95" y="121" type="curve" smooth="yes"/>
      <point x="43" y="121"/>
      <point x="20" y="82"/>
      <point x="20" y="40" type="curve" smooth="yes"/>
      <point x="20" y="6"/>
      <point x="39" y="-14"/>
    </contour>
  </outline>
</glyph>
<glyph name="quotedbl" format="2">
  <advance width="392"/>
  <unicode hex="0022"/>
  <outline>
    <contour>
      <point x="281" y="456" type="line"/>
      <point x="337" y="456" type="line"/>
      <point x="412" y="714" type="line"/>
      <point x="316" y="714" type="line"/>
    </contour>
    <contour>
      <point x="109" y="456" type="line"/>
      <point x="165" y="456" type="line"/>
      <point x="240" y="714" type="line"/>
      <point x="144" y="714" type="line"/>
    </contour>
  </outline>
</glyph>
<glyph name="numbersign" format="2">
  <advance width="646"/>
  <unicode hex="0023"/>
  <outline>
    <contour>
      <point x="97" y="0" type="line"/>
      <point x="166" y="0" type="line"/>
      <point x="227" y="209" type="line"/>
      <point x="371" y="209" type="line"/>
      <point x="308" y="0" type="line"/>
      <point x="380" y="0" type="line"/>
      <point x="440" y="209" type="line"/>
      <point x="591" y="209" type="line"/>
      <point x="597" y="275" type="line"/>
      <point x="459" y="275" type="line"/>
      <point x="506" y="437" type="line"/>
      <point x="647" y="437" type="line"/>
      <point x="654" y="502" type="line"/>
      <point x="526" y="502" type="line"/>
      <point x="586" y="714" type="line"/>
      <point x="518" y="714" type="line"/>
      <point x="456" y="502" type="line"/>
      <point x="312" y="502" type="line"/>
      <point x="373" y="714" type="line"/>
      <point x="301" y="714" type="line"/>
      <point x="241" y="502" type="line"/>
      <point x="95" y="502" type="line"/>
      <point x="89" y="437" type="line"/>
      <point x="223" y="437" type="line"/>
      <point x="175" y="275" type="line"/>
      <point x="36" y="275" type="line"/>
      <point x="30" y="209" type="line"/>
      <point x="156" y="209" type="line"/>
    </contour>
    <contour>
      <point x="246" y="275" type="line"/>
      <point x="292" y="437" type="line"/>
      <point x="435" y="437" type="line"/>
      <point x="390" y="275" type="line"/>
    </contour>
  </outline>
</glyph>
<glyph name="dollar" format="2">
  <advance width="551"/>
  <unicode hex="0024"/>
  <outline>
    <contour>
      <point x="190" y="50" type="curve"/>
      <point x="166" y="-58" type="line"/>
      <point x="231" y="-58" type="line"/>
      <point x="255" y="51" type="line"/>
      <point x="372" y="64"/>
      <point x="464" y="124"/>
      <point x="464" y="240" type="curve" smooth="yes"/>
      <point x="464" y="318"/>
      <point x="418" y="357"/>
      <point x="327" y="391" type="curve"/>
      <point x="372" y="600" type="line"/>
      <point x="418" y="597"/>
      <point x="461" y="581"/>
      <point x="492" y="564" type="curve"/>
      <point x="525" y="635" type="line"/>
      <point x="485" y="656"/>
      <point x="438" y="668"/>
      <point x="387" y="672" type="curve"/>
      <point x="405" y="758" type="line"/>
      <point x="340" y="758" type="line"/>
      <point x="321" y="673" type="line"/>
      <point x="206" y="662"/>
      <point x="119" y="605"/>
      <point x="119" y="492" type="curve" smooth="yes"/>
      <point x="119" y="408"/>
      <point x="169" y="367"/>
      <point x="251" y="337" type="curve"/>
      <point x="204" y="122" type="line"/>
      <point x="152" y="123"/>
      <point x="86" y="139"/>
      <point x="34" y="166" type="curve"/>
      <point x="34" y="86" type="line"/>
      <point x="75" y="66"/>
      <point x="135" y="53"/>
    </contour>
    <contour>
      <point x="270" y="125" type="curve"/>
      <point x="311" y="314" type="line"/>
      <point x="361" y="294"/>
      <point x="380" y="268"/>
      <point x="380" y="233" type="curve" smooth="yes"/>
      <point x="380" y="170"/>
      <point x="331" y="133"/>
    </contour>
    <contour>
      <point x="306" y="600" type="curve"/>
      <point x="267" y="414" type="line"/>
      <point x="222" y="431"/>
      <point x="200" y="460"/>
      <point x="200" y="494" type="curve" smooth="yes"/>
      <point x="200" y="559"/>
      <point x="243" y="593"/>
    </contour>
  </outline>
</glyph>
<glyph name="dollar.serif" format="2">
  <advance width="559"/>
  <unicode hex="0024"/>
  <outline>
    <contour>
      <point x="201" y="37" type="curve"/>
      <point x="176" y="-79" type="line"/>
      <point x="226" y="-79" type="line"/>
      <point x="250" y="36" type="line"/>
      <point x="377" y="42"/>
      <point x="478" y="108"/>
      <point x="478" y="229" type="curve" smooth="yes"/>
      <point x="478" y="304"/>
      <point x="429" y="345"/>
      <point x="339" y="393" type="curve" smooth="yes"/>
      <point x="328" y="399" type="line"/>
      <point x="379" y="639" type="line"/>
      <point x="439" y="626"/>
      <point x="452" y="564"/>
      <point x="452" y="515" type="curve"/>
      <point x="508" y="515"/>
      <point x="533" y="543"/>
      <point x="533" y="584" type="curve" smooth="yes"/>
      <point x="533" y="641"/>
      <point x="479" y="677"/>
      <point x="389" y="684" type="curve"/>
      <point x="405" y="760" type="line"/>
      <point x="355" y="760" type="line"/>
      <point x="339" y="684" type="line"/>
      <point x="223" y="679"/>
      <point x="131" y="624"/>
      <point x="131" y="503" type="curve" smooth="yes"/>
      <point x="131" y="421"/>
      <point x="184" y="372"/>
      <point x="263" y="332" type="curve"/>
      <point x="211" y="87" type="line"/>
      <point x="143" y="101"/>
      <point x="101" y="166"/>
      <point x="101" y="254" type="curve"/>
      <point x="74" y="254"/>
      <point x="24" y="232"/>
      <point x="24" y="172" type="curve" smooth="yes"/>
      <point x="24" y="101"/>
      <point x="88" y="45"/>
    </contour>
    <contour>
      <point x="261" y="85" type="curve"/>
      <point x="309" y="310" type="line"/>
      <point x="359" y="283"/>
      <point x="383" y="254"/>
      <point x="383" y="207" type="curve"/>
      <point x="383" y="143"/>
      <point x="340" y="92"/>
    </contour>
    <contour>
      <point x="329" y="640" type="curve"/>
      <point x="283" y="422" type="line"/>
      <point x="241" y="448"/>
      <point x="224" y="476"/>
      <point x="224" y="517" type="curve" smooth="yes"/>
      <point x="224" y="587"/>
      <point x="267" y="631"/>
    </contour>
  </outline>
</glyph>
<glyph name="ampersand" format="2">
  <advance width="673"/>
  <unicode hex="0026"/>
  <outline>
    <contour>
      <point x="216" y="-10" type="curve" smooth="yes"/>
      <point x="318" y="-10"/>
      <point x="383" y="27"/>
      <point x="446" y="78" type="curve"/>
      <point x="501" y="0" type="line"/>
      <point x="605" y="0" type="line"/>
      <point x="506" y="133" type="line"/>
      <point x="564" y="189"/>
      <point x="611" y="256"/>
      <point x="645" y="338" type="curve"/>
      <point x="557" y="338" type="line"/>
      <point x="536" y="285"/>
      <point x="506" y="232"/>
      <point x="462" y="194" type="curve"/>
      <point x="330" y="378" type="line"/>
      <point x="435" y="431"/>
      <point x="524" y="481"/>
      <point x="524" y="582" type="curve" smooth="yes"/>
      <point x="524" y="670"/>
      <point x="462" y="725"/>
      <point x="365" y="725" type="curve" smooth="yes"/>
      <point x="242" y="725"/>
      <point x="173" y="646"/>
      <point x="173" y="545" type="curve" smooth="yes"/>
      <point x="173" y="489"/>
      <point x="196" y="438"/>
      <point x="222" y="396" type="curve"/>
      <point x="100" y="338"/>
      <point x="32" y="274"/>
      <point x="32" y="168" type="curve" smooth="yes"/>
      <point x="32" y="52"/>
      <point x="108" y="-10"/>
    </contour>
    <contour>
      <point x="233" y="63" type="curve" smooth="yes"/>
      <point x="166" y="63"/>
      <point x="119" y="106"/>
      <point x="119" y="174" type="curve" smooth="yes"/>
      <point x="119" y="262"/>
      <point x="186" y="304"/>
      <point x="259" y="342" type="curve"/>
      <point x="404" y="136" type="line"/>
      <point x="354" y="96"/>
      <point x="304" y="63"/>
    </contour>
    <contour>
      <point x="295" y="433" type="curve"/>
      <point x="269" y="469"/>
      <point x="257" y="505"/>
      <point x="257" y="545" type="curve" smooth="yes"/>
      <point x="257" y="613"/>
      <point x="295" y="654"/>
      <point x="361" y="654" type="curve" smooth="yes"/>
      <point x="412" y="654"/>
      <point x="439" y="622"/>
      <point x="439" y="575" type="curve" smooth="yes"/>
      <point x="439" y="504"/>
      <point x="358" y="465"/>
    </contour>
  </outline>
</glyph>
<glyph name="ampersand.serif" format="2">
  <advance width="742"/>
  <unicode hex="0026"/>
  <outline>
    <contour>
      <point x="254" y="-10" type="curve" smooth="yes"/>
      <point x="352" y="-10"/>
      <point x="422" y="29"/>
      <point x="475" y="83" type="curve"/>
      <point x="535" y="0" type="line"/>
      <point x="688" y="0" type="line"/>
      <point x="697" y="42" type="line"/>
      <point x="688" y="42" type="line" smooth="yes"/>
      <point x="635" y="42"/>
      <point x="612" y="55"/>
      <point x="590" y="84" type="curve" smooth="yes"/>
      <point x="535" y="159" type="line"/>
      <point x="568" y="211"/>
      <point x="593" y="266"/>
      <point x="615" y="311" type="curve" smooth="yes"/>
      <point x="645" y="372"/>
      <point x="689" y="379"/>
      <point x="734" y="379" type="curve" smooth="yes"/>
      <point x="743" y="379" type="line"/>
      <point x="752" y="421" type="line"/>
      <point x="572" y="421" type="line"/>
      <point x="564" y="382" type="line" smooth="yes"/>
      <point x="552" y="324"/>
      <point x="531" y="261"/>
      <point x="501" y="205" type="curve"/>
      <point x="361" y="397" type="line"/>
      <point x="505" y="451"/>
      <point x="579" y="481"/>
      <point x="579" y="594" type="curve" smooth="yes"/>
      <point x="579" y="667"/>
      <point x="527" y="724"/>
      <point x="410" y="724" type="curve" smooth="yes"/>
      <point x="275" y="724"/>
      <point x="197" y="666"/>
      <point x="197" y="552" type="curve" smooth="yes"/>
      <point x="197" y="505"/>
      <point x="214" y="457"/>
      <point x="245" y="405" type="curve"/>
      <point x="131" y="362"/>
      <point x="35" y="308"/>
      <point x="35" y="177" type="curve" smooth="yes"/>
      <point x="35" y="74"/>
      <point x="105" y="-10"/>
    </contour>
    <contour>
      <point x="264" y="46" type="curve" smooth="yes"/>
      <point x="181" y="46"/>
      <point x="134" y="103"/>
      <point x="134" y="179" type="curve" smooth="yes"/>
      <point x="134" y="269"/>
      <point x="172" y="315"/>
      <point x="274" y="362" type="curve"/>
      <point x="444" y="126" type="line"/>
      <point x="399" y="78"/>
      <point x="340" y="46"/>
    </contour>
    <contour>
      <point x="333" y="437" type="curve"/>
      <point x="305" y="484"/>
      <point x="293" y="522"/>
      <point x="293" y="559" type="curve" smooth="yes"/>
      <point x="293" y="637"/>
      <point x="334" y="675"/>
      <point x="403" y="675" type="curve" smooth="yes"/>
      <point x="457" y="675"/>
      <point x="488" y="637"/>
      <point x="488" y="587" type="curve" smooth="yes"/>
      <point x="488" y="513"/>
      <point x="445" y="480"/>
    </contour>
  </outline>
</glyph>
<glyph name="parenleft" format="2">
  <advance width="290"/>
  <unicode hex="0028"/>
  <outline>
    <contour>
      <point x="112" y="-158" type="curve"/>
      <point x="180" y="-158" type="line"/>
      <point x="144" y="-76"/>
      <point x="124" y="18"/>
      <point x="124" y="134" type="curve"/>
      <point x="124" y="365"/>
      <point x="225" y="557"/>
      <point x="367" y="714" type="curve"/>
      <point x="286" y="714" type="line"/>
      <point x="129" y="552"/>
      <point x="40" y="371"/>
      <point x="40" y="133" type="curve"/>
      <point x="40" y="23"/>
      <point x="66" y="-77"/>
    </contour>
  </outline>
</glyph>
<glyph name="parenright" format="2">
  <advance width="290"/>
  <unicode hex="0029"/>
  <outline>
    <contour>
      <point x="-77" y="-158" type="curve"/>
      <point x="3" y="-158" type="line"/>
      <point x="161" y="3"/>
      <point x="249" y="184"/>
      <point x="249" y="422" type="curve"/>
      <point x="249" y="533"/>
      <point x="223" y="632"/>
      <point x="178" y="714" type="curve"/>
      <point x="110" y="714" type="line"/>
      <point x="146" y="632"/>
      <point x="165" y="537"/>
      <point x="165" y="422" type="curve"/>
      <point x="165" y="191"/>
      <point x="65" y="-1"/>
    </contour>
  </outline>
</glyph>
<glyph name="asterisk" format="2">
  <advance width="551"/>
  <unicode hex="002A"/>
  <outline>
    <contour>
      <point x="372" y="300" type="line"/>
      <point x="456" y="326" type="line"/>
      <point x="369" y="511" type="line"/>
      <point x="559" y="488" type="line"/>
      <point x="563" y="570" type="line"/>
      <point x="359" y="560" type="line"/>
      <point x="418" y="746" type="line"/>
      <point x="331" y="763" type="line"/>
      <point x="311" y="570" type="line"/>
      <point x="131" y="659" type="line"/>
      <point x="103" y="581" type="line"/>
      <point x="283" y="528" type="line"/>
      <point x="134" y="391" type="line"/>
      <point x="195" y="330" type="line"/>
      <point x="318" y="495" type="line"/>
    </contour>
  </outline>
</glyph>
<glyph name="plus" format="2">
  <advance width="572"/>
  <unicode hex="002B"/>
  <outline>
    <contour>
      <point x="341" y="388" type="line"/>
      <point x="341" y="595" type="line"/>
      <point x="269" y="595" type="line"/>
      <point x="269" y="388" type="line"/>
      <point x="70" y="388" type="line"/>
      <point x="70" y="317" type="line"/>
      <point x="269" y="317" type="line"/>
      <point x="269" y="111" type="line"/>
      <point x="341" y="111" type="line"/>
      <point x="341" y="317" type="line"/>
      <point x="540" y="317" type="line"/>
      <point x="540" y="388" type="line"/>
    </contour>
  </outline>
</glyph>
<glyph name="comma" format="2">
  <advance width="256"/>
  <unicode hex="002C"/>
  <outline>
    <contour>
      <point x="-43" y="-129" type="curve"/>
      <point x="24" y="-129" type="line"/>
      <point x="71" y="-56"/>
      <point x="123" y="34"/>
      <point x="156" y="105" type="curve"/>
      <point x="152" y="116" type="line"/>
      <point x="56" y="116" type="line"/>
      <point x="31" y="47"/>
      <point x="-8" y="-50"/>
    </contour>
  </outline>
</glyph>
<glyph name="hyphen" format="2">
  <advance width="313"/>
  <unicode hex="002D"/>
  <outline>
    <contour>
      <point x="26" y="227" type="line"/>
      <point x="262" y="227" type="line"/>
      <point x="280" y="308" type="line"/>
      <point x="44" y="308" type="line"/>
    </contour>
  </outline>
</glyph>
<glyph name="period" format="2">
  <advance width="256"/>
  <unicode hex="002E"/>
  <outline>
    <contour>
      <point x="72" y="-14" type="curve"/>
      <point x="122" y="-14"/>
      <point x="146" y="27"/>
      <point x="146" y="68" type="curve"/>
      <point x="146" y="103"/>
      <point x="126" y="121"/>
      <point x="97" y="121" type="curve"/>
      <point x="44" y="121"/>
      <point x="20" y="82"/>
      <point x="20" y="38" type="curve"/>
      <point x="20" y="5"/>
      <point x="39" y="-14"/>
    </contour>
  </outline>
</glyph>
<glyph name="zero" format="2">
  <advance width="551"/>
  <unicode hex="0030"/>
  <outline>
    <contour>
      <point x="236" y="-10" type="curve" smooth="yes"/>
      <point x="447" y="-10"/>
      <point x="534" y="256"/>
      <point x="534" y="495" type="curve" smooth="yes"/>
      <point x="534" y="643"/>
      <point x="477" y="725"/>
      <point x="354" y="725" type="curve" smooth="yes"/>
      <point x="136" y="725"/>
      <point x="57" y="429"/>
      <point x="57" y="233" type="curve" smooth="yes"/>
      <point x="57" y="77"/>
      <point x="119" y="-10"/>
    </contour>
    <contour>
      <point x="246" y="65" type="curve" smooth="yes"/>
      <point x="176" y="65"/>
      <point x="146" y="125"/>
      <point x="146" y="233" type="curve" smooth="yes"/>
      <point x="146" y="414"/>
      <point x="222" y="650"/>
      <point x="349" y="650" type="curve" smooth="yes"/>
      <point x="413" y="650"/>
      <point x="444" y="596"/>
      <point x="444" y="497" type="curve" smooth="yes"/>
      <point x="444" y="305"/>
      <point x="378" y="65"/>
    </contour>
  </outline>
</glyph>
<glyph name="one" format="2">
  <advance width="551"/>
  <unicode hex="0031"/>
  <outline>
    <contour>
      <point x="297" y="442" type="curve" smooth="yes"/>
      <point x="202" y="0" type="line"/>
      <point x="291" y="0" type="line"/>
      <point x="444" y="714" type="line"/>
      <point x="367" y="714" type="line"/>
      <point x="143" y="572" type="line"/>
      <point x="184" y="506" type="line"/>
      <point x="272" y="561" type="line" smooth="yes"/>
      <point x="299" y="578"/>
      <point x="319" y="593"/>
      <point x="339" y="614" type="curve"/>
      <point x="327" y="575"/>
      <point x="310" y="504"/>
    </contour>
  </outline>
</glyph>
<glyph name="two" format="2">
  <advance width="551"/>
  <unicode hex="0032"/>
  <outline>
    <contour>
      <point x="3" y="0" type="line"/>
      <point x="445" y="0" type="line"/>
      <point x="460" y="80" type="line"/>
      <point x="134" y="80" type="line"/>
      <point x="134" y="84" type="line"/>
      <point x="302" y="230" type="line" smooth="yes"/>
      <point x="467" y="374"/>
      <point x="528" y="446"/>
      <point x="528" y="561" type="curve" smooth="yes"/>
      <point x="528" y="657"/>
      <point x="461" y="724"/>
      <point x="340" y="724" type="curve" smooth="yes"/>
      <point x="254" y="724"/>
      <point x="190" y="691"/>
      <point x="135" y="647" type="curve"/>
      <point x="177" y="587" type="line"/>
      <point x="224" y="622"/>
      <point x="271" y="649"/>
      <point x="330" y="649" type="curve" smooth="yes"/>
      <point x="398" y="649"/>
      <point x="436" y="607"/>
      <point x="436" y="547" type="curve" smooth="yes"/>
      <point x="436" y="453"/>
      <point x="378" y="399"/>
      <point x="246" y="280" type="curve" smooth="yes"/>
      <point x="19" y="75" type="line"/>
    </contour>
  </outline>
</glyph>
<glyph name="three" format="2">
  <advance width="551"/>
  <unicode hex="0033"/>
  <outline>
    <contour>
      <point x="210" y="-10" type="curve" smooth="yes"/>
      <point x="393" y="-10"/>
      <point x="470" y="97"/>
      <point x="470" y="210" type="curve" smooth="yes"/>
      <point x="470" y="296"/>
      <point x="416" y="350"/>
      <point x="340" y="364" type="curve"/>
      <point x="340" y="368" type="line"/>
      <point x="456" y="389"/>
      <point x="525" y="465"/>
      <point x="525" y="566" type="curve" smooth="yes"/>
      <point x="525" y="660"/>
      <point x="461" y="724"/>
      <point x="341" y="724" type="curve" smooth="yes"/>
      <point x="252" y="724"/>
      <point x="187" y="694"/>
      <point x="132" y="654" type="curve"/>
      <point x="173" y="592" type="line"/>
      <point x="223" y="627"/>
      <point x="272" y="650"/>
      <point x="333" y="650" type="curve" smooth="yes"/>
      <point x="393" y="650"/>
      <point x="435" y="616"/>
      <point x="435" y="555" type="curve" smooth="yes"/>
      <point x="435" y="460"/>
      <point x="349" y="405"/>
      <point x="249" y="405" type="curve" smooth="yes"/>
      <point x="184" y="405" type="line"/>
      <point x="169" y="332" type="line"/>
      <point x="233" y="332" type="line" smooth="yes"/>
      <point x="325" y="332"/>
      <point x="377" y="288"/>
      <point x="377" y="206" type="curve" smooth="yes"/>
      <point x="377" y="119"/>
      <point x="318" y="64"/>
      <point x="211" y="64" type="curve" smooth="yes"/>
      <point x="142" y="64"/>
      <point x="69" y="88"/>
      <point x="22" y="114" type="curve"/>
      <point x="22" y="29" type="line"/>
      <point x="74" y="5"/>
      <point x="133" y="-10"/>
    </contour>
  </outline>
</glyph>
<glyph name="four" format="2">
  <advance width="551"/>
  <unicode hex="0034"/>
  <outline>
    <contour>
      <point x="288" y="0" type="line"/>
      <point x="373" y="0" type="line"/>
      <point x="408" y="162" type="line"/>
      <point x="519" y="162" type="line"/>
      <point x="536" y="240" type="line"/>
      <point x="426" y="240" type="line"/>
      <point x="525" y="714" type="line"/>
      <point x="424" y="714" type="line"/>
      <point x="21" y="242" type="line"/>
      <point x="6" y="162" type="line"/>
      <point x="323" y="162" type="line"/>
    </contour>
    <contour>
      <point x="111" y="240" type="line"/>
      <point x="360" y="531" type="line" smooth="yes"/>
      <point x="377" y="551"/>
      <point x="412" y="598"/>
      <point x="428" y="624" type="curve"/>
      <point x="432" y="624" type="line"/>
      <point x="419" y="578"/>
      <point x="392" y="484"/>
      <point x="376" y="411" type="curve" smooth="yes"/>
      <point x="340" y="240" type="line"/>
    </contour>
  </outline>
</glyph>
<glyph name="five" format="2">
  <advance width="551"/>
  <unicode hex="0035"/>
  <outline>
    <contour>
      <point x="200" y="-10" type="curve" smooth="yes"/>
      <point x="419" y="-10"/>
      <point x="487" y="129"/>
      <point x="487" y="248" type="curve" smooth="yes"/>
      <point x="487" y="365"/>
      <point x="411" y="437"/>
      <point x="293" y="437" type="curve" smooth="yes"/>
      <point x="257" y="437"/>
      <point x="230" y="432"/>
      <point x="206" y="427" type="curve"/>
      <point x="266" y="634" type="line"/>
      <point x="519" y="634" type="line"/>
      <point x="536" y="714" type="line"/>
      <point x="207" y="714" type="line"/>
      <point x="110" y="378" type="line"/>
      <point x="147" y="349" type="line"/>
      <point x="190" y="360"/>
      <point x="221" y="367"/>
      <point x="261" y="367" type="curve" smooth="yes"/>
      <point x="344" y="367"/>
      <point x="395" y="319"/>
      <point x="395" y="237" type="curve" smooth="yes"/>
      <point x="395" y="145"/>
      <point x="340" y="64"/>
      <point x="200" y="64" type="curve" smooth="yes"/>
      <point x="141" y="64"/>
      <point x="85" y="84"/>
      <point x="37" y="114" type="curve"/>
      <point x="37" y="29" type="line"/>
      <point x="81" y="3"/>
      <point x="137" y="-10"/>
    </contour>
  </outline>
</glyph>
<glyph name="six" format="2">
  <advance width="551"/>
  <unicode hex="0036"/>
  <outline>
    <contour>
      <point x="251" y="-10" type="curve" smooth="yes"/>
      <point x="422" y="-10"/>
      <point x="500" y="136"/>
      <point x="500" y="269" type="curve" smooth="yes"/>
      <point x="500" y="384"/>
      <point x="436" y="449"/>
      <point x="338" y="449" type="curve" smooth="yes"/>
      <point x="269" y="449"/>
      <point x="211" y="416"/>
      <point x="173" y="366" type="curve"/>
      <point x="169" y="366" type="line"/>
      <point x="216" y="567"/>
      <point x="317" y="649"/>
      <point x="444" y="649" type="curve" smooth="yes"/>
      <point x="480" y="649"/>
      <point x="506" y="644"/>
      <point x="528" y="637" type="curve"/>
      <point x="546" y="713" type="line"/>
      <point x="522" y="720"/>
      <point x="489" y="724"/>
      <point x="454" y="724" type="curve" smooth="yes"/>
      <point x="351" y="724"/>
      <point x="273" y="690"/>
      <point x="216" y="632" type="curve" smooth="yes"/>
      <point x="110" y="529"/>
      <point x="63" y="348"/>
      <point x="63" y="209" type="curve" smooth="yes"/>
      <point x="63" y="60"/>
      <point x="139" y="-10"/>
    </contour>
    <contour>
      <point x="260" y="64" type="curve" smooth="yes"/>
      <point x="180" y="64"/>
      <point x="150" y="131"/>
      <point x="150" y="203" type="curve" smooth="yes"/>
      <point x="150" y="230"/>
      <point x="153" y="258"/>
      <point x="162" y="279" type="curve" smooth="yes"/>
      <point x="179" y="321"/>
      <point x="235" y="378"/>
      <point x="308" y="378" type="curve" smooth="yes"/>
      <point x="379" y="378"/>
      <point x="413" y="336"/>
      <point x="413" y="261" type="curve" smooth="yes"/>
      <point x="413" y="160"/>
      <point x="358" y="64"/>
    </contour>
  </outline>
</glyph>
<glyph name="seven" format="2">
  <advance width="551"/>
  <unicode hex="0037"/>
  <outline>
    <contour>
      <point x="81" y="0" type="line"/>
      <point x="176" y="0" type="line"/>
      <point x="549" y="644" type="line"/>
      <point x="562" y="714" type="line"/>
      <point x="123" y="714" type="line"/>
      <point x="107" y="636" type="line"/>
      <point x="454" y="636" type="line"/>
    </contour>
  </outline>
</glyph>
<glyph name="eight" format="2">
  <advance width="551"/>
  <unicode hex="0038"/>
  <outline>
    <contour>
      <point x="246" y="-10" type="curve" smooth="yes"/>
      <point x="414" y="-10"/>
      <point x="489" y="86"/>
      <point x="489" y="193" type="curve" smooth="yes"/>
      <point x="489" y="280"/>
      <point x="445" y="330"/>
      <point x="376" y="372" type="curve"/>
      <point x="464" y="409"/>
      <point x="543" y="461"/>
      <point x="543" y="567" type="curve" smooth="yes"/>
      <point x="543" y="649"/>
      <point x="492" y="725"/>
      <point x="361" y="725" type="curve" smooth="yes"/>
      <point x="242" y="725"/>
      <point x="149" y="654"/>
      <point x="149" y="537" type="curve" smooth="yes"/>
      <point x="149" y="464"/>
      <point x="183" y="421"/>
      <point x="234" y="384" type="curve"/>
      <point x="115" y="339"/>
      <point x="45" y="272"/>
      <point x="45" y="169" type="curve" smooth="yes"/>
      <point x="45" y="72"/>
      <point x="108" y="-10"/>
    </contour>
    <contour>
      <point x="255" y="63" type="curve" smooth="yes"/>
      <point x="185" y="63"/>
      <point x="136" y="104"/>
      <point x="136" y="174" type="curve" smooth="yes"/>
      <point x="136" y="268"/>
      <point x="205" y="310"/>
      <point x="296" y="339" type="curve"/>
      <point x="366" y="301"/>
      <point x="399" y="255"/>
      <point x="399" y="191" type="curve" smooth="yes"/>
      <point x="399" y="127"/>
      <point x="355" y="63"/>
    </contour>
    <contour>
      <point x="315" y="412" type="curve"/>
      <point x="268" y="441"/>
      <point x="236" y="477"/>
      <point x="236" y="537" type="curve" smooth="yes"/>
      <point x="236" y="607"/>
      <point x="283" y="651"/>
      <point x="354" y="651" type="curve" smooth="yes"/>
      <point x="415" y="651"/>
      <point x="454" y="615"/>
      <point x="454" y="558" type="curve" smooth="yes"/>
      <point x="454" y="487"/>
      <point x="406" y="446"/>
    </contour>
  </outline>
</glyph>
<glyph name="nine" format="2">
  <advance width="551"/>
  <unicode hex="0039"/>
  <outline>
    <contour>
      <point x="165" y="-10" type="curve" smooth="yes"/>
      <point x="251" y="-10"/>
      <point x="328" y="17"/>
      <point x="389" y="85" type="curve" smooth="yes"/>
      <point x="473" y="179"/>
      <point x="522" y="364"/>
      <point x="522" y="504" type="curve" smooth="yes"/>
      <point x="522" y="649"/>
      <point x="453" y="724"/>
      <point x="336" y="724" type="curve" smooth="yes"/>
      <point x="182" y="724"/>
      <point x="87" y="598"/>
      <point x="87" y="454" type="curve" smooth="yes"/>
      <point x="87" y="332"/>
      <point x="149" y="265"/>
      <point x="259" y="265" type="curve" smooth="yes"/>
      <point x="323" y="265"/>
      <point x="378" y="296"/>
      <point x="411" y="343" type="curve"/>
      <point x="416" y="343" type="line"/>
      <point x="376" y="157"/>
      <point x="300" y="66"/>
      <point x="167" y="66" type="curve" smooth="yes"/>
      <point x="121" y="66"/>
      <point x="83" y="76"/>
      <point x="47" y="88" type="curve"/>
      <point x="47" y="7" type="line"/>
      <point x="81" y="-4"/>
      <point x="125" y="-10"/>
    </contour>
    <contour>
      <point x="277" y="336" type="curve" smooth="yes"/>
      <point x="209" y="336"/>
      <point x="174" y="380"/>
      <point x="174" y="458" type="curve" smooth="yes"/>
      <point x="174" y="563"/>
      <point x="231" y="650"/>
      <point x="331" y="650" type="curve" smooth="yes"/>
      <point x="398" y="650"/>
      <point x="435" y="595"/>
      <point x="435" y="516" type="curve" smooth="yes"/>
      <point x="435" y="482"/>
      <point x="430" y="454"/>
      <point x="421" y="432" type="curve" smooth="yes"/>
      <point x="393" y="370"/>
      <point x="340" y="336"/>
    </contour>
  </outline>
</glyph>
<glyph name="colon" format="2">
  <advance width="256"/>
  <unicode hex="003A"/>
  <outline>
    <contour>
      <point x="151" y="415" type="curve" smooth="yes"/>
      <point x="201" y="415"/>
      <point x="225" y="455"/>
      <point x="225" y="497" type="curve" smooth="yes"/>
      <point x="225" y="533"/>
      <point x="205" y="550"/>
      <point x="176" y="550" type="curve" smooth="yes"/>
      <point x="123" y="550"/>
      <point x="99" y="511"/>
      <point x="99" y="466" type="curve" smooth="yes"/>
      <point x="99" y="434"/>
      <point x="118" y="415"/>
    </contour>
    <contour>
      <point x="72" y="-14" type="curve" smooth="yes"/>
      <point x="122" y="-14"/>
      <point x="146" y="27"/>
      <point x="146" y="68" type="curve" smooth="yes"/>
      <point x="146" y="103"/>
      <point x="126" y="121"/>
      <point x="97" y="121" type="curve" smooth="yes"/>
      <point x="44" y="121"/>
      <point x="20" y="82"/>
      <point x="20" y="38" type="curve" smooth="yes"/>
      <point x="20" y="5"/>
      <point x="39" y="-14"/>
    </contour>
  </outline>
</glyph>
<glyph name="semicolon" format="2">
  <advance width="256"/>
  <unicode hex="003B"/>
  <outline>
    <contour>
      <point x="-49" y="-129" type="curve"/>
      <point x="18" y="-129" type="line"/>
      <point x="65" y="-56"/>
      <point x="117" y="34"/>
      <point x="150" y="105" type="curve"/>
      <point x="146" y="116" type="line"/>
      <point x="50" y="116" type="line"/>
      <point x="25" y="47"/>
      <point x="-14" y="-50"/>
    </contour>
    <contour>
      <point x="151" y="415" type="curve" smooth="yes"/>
      <point x="201" y="415"/>
      <point x="225" y="455"/>
      <point x="225" y="497" type="curve" smooth="yes"/>
      <point x="225" y="533"/>
      <point x="205" y="550"/>
      <point x="176" y="550" type="curve" smooth="yes"/>
      <point x="123" y="550"/>
      <point x="99" y="511"/>
      <point x="99" y="466" type="curve" smooth="yes"/>
      <point x="99" y="434"/>
      <point x="118" y="415"/>
    </contour>
  </outline>
</glyph>
<glyph name="greater" format="2">
  <advance width="572"/>
  <unicode hex="003E"/>
  <outline>
    <contour>
      <point x="70" y="194" type="line"/>
      <point x="70" y="116" type="line"/>
      <point x="541" y="323" type="line"/>
      <point x="541" y="373" type="line"/>
      <point x="70" y="608" type="line"/>
      <point x="70" y="530" type="line"/>
      <point x="447" y="351" type="line"/>
    </contour>
  </outline>
</glyph>
<glyph name="question" format="2">
  <advance width="430"/>
  <unicode hex="003F"/>
  <outline>
    <contour>
      <point x="127" y="201" type="curve"/>
      <point x="198" y="201" type="line"/>
      <point x="214" y="270"/>
      <point x="233" y="291"/>
      <point x="311" y="348" type="curve" smooth="yes"/>
      <point x="404" y="417"/>
      <point x="454" y="477"/>
      <point x="454" y="567" type="curve" smooth="yes"/>
      <point x="454" y="672"/>
      <point x="386" y="724"/>
      <point x="281" y="724" type="curve" smooth="yes"/>
      <point x="218" y="724"/>
      <point x="149" y="703"/>
      <point x="95" y="674" type="curve"/>
      <point x="127" y="607" type="line"/>
      <point x="171" y="628"/>
      <point x="220" y="648"/>
      <point x="271" y="648" type="curve" smooth="yes"/>
      <point x="332" y="648"/>
      <point x="365" y="614"/>
      <point x="365" y="556" type="curve" smooth="yes"/>
      <point x="365" y="480"/>
      <point x="308" y="440"/>
      <point x="244" y="391" type="curve" smooth="yes"/>
      <point x="171" y="334"/>
      <point x="141" y="287"/>
    </contour>
    <contour>
      <point x="129" y="-14" type="curve" smooth="yes"/>
      <point x="179" y="-14"/>
      <point x="203" y="27"/>
      <point x="203" y="68" type="curve" smooth="yes"/>
      <point x="203" y="103"/>
      <point x="183" y="121"/>
      <point x="154" y="121" type="curve" smooth="yes"/>
      <point x="101" y="121"/>
      <point x="77" y="82"/>
      <point x="77" y="38" type="curve" smooth="yes"/>
      <point x="77" y="5"/>
      <point x="96" y="-14"/>
    </contour>
  </outline>
</glyph>
<glyph name="at" format="2">
  <advance width="848"/>
  <unicode hex="0040"/>
  <outline>
    <contour>
      <point x="385" y="-91" type="curve" smooth="yes"/>
      <point x="456" y="-91"/>
      <point x="533" y="-75"/>
      <point x="602" y="-47" type="curve"/>
      <point x="602" y="18" type="line"/>
      <point x="543" y="-5"/>
      <point x="468" y="-24"/>
      <point x="396" y="-24" type="curve" smooth="yes"/>
      <point x="220" y="-24"/>
      <point x="128" y="81"/>
      <point x="128" y="250" type="curve" smooth="yes"/>
      <point x="128" y="472"/>
      <point x="278" y="647"/>
      <point x="507" y="647" type="curve" smooth="yes"/>
      <point x="685" y="647"/>
      <point x="749" y="539"/>
      <point x="749" y="408" type="curve" smooth="yes"/>
      <point x="749" y="293"/>
      <point x="697" y="169"/>
      <point x="614" y="169" type="curve" smooth="yes"/>
      <point x="587" y="169"/>
      <point x="566" y="183"/>
      <point x="566" y="224" type="curve" smooth="yes"/>
      <point x="566" y="247"/>
      <point x="571" y="270"/>
      <point x="582" y="310" type="curve" smooth="yes"/>
      <point x="629" y="489" type="line"/>
      <point x="594" y="503"/>
      <point x="555" y="518"/>
      <point x="491" y="518" type="curve" smooth="yes"/>
      <point x="355" y="518"/>
      <point x="239" y="408"/>
      <point x="239" y="246" type="curve" smooth="yes"/>
      <point x="239" y="156"/>
      <point x="286" y="106"/>
      <point x="360" y="106" type="curve" smooth="yes"/>
      <point x="426" y="106"/>
      <point x="471" y="145"/>
      <point x="500" y="195" type="curve"/>
      <point x="504" y="195" type="line"/>
      <point x="509" y="148"/>
      <point x="534" y="106"/>
      <point x="609" y="106" type="curve" smooth="yes"/>
      <point x="732" y="106"/>
      <point x="822" y="237"/>
      <point x="822" y="415" type="curve" smooth="yes"/>
      <point x="822" y="574"/>
      <point x="731" y="713"/>
      <point x="520" y="713" type="curve" smooth="yes"/>
      <point x="231" y="713"/>
      <point x="53" y="489"/>
      <point x="53" y="246" type="curve" smooth="yes"/>
      <point x="53" y="34"/>
      <point x="183" y="-91"/>
    </contour>
    <contour>
      <point x="378" y="169" type="curve" smooth="yes"/>
      <point x="337" y="169"/>
      <point x="315" y="194"/>
      <point x="315" y="253" type="curve" smooth="yes"/>
      <point x="315" y="367"/>
      <point x="388" y="456"/>
      <point x="481" y="456" type="curve" smooth="yes"/>
      <point x="507" y="456"/>
      <point x="528" y="450"/>
      <point x="541" y="445" type="curve"/>
      <point x="508" y="321" type="line" smooth="yes"/>
      <point x="483" y="231"/>
      <point x="442" y="169"/>
    </contour>
  </outline>
</glyph>
<glyph name="B.serif" format="2">
  <advance width="654"/>
  <unicode hex="0042"/>
  <anchor x="270" y="0" name="bottom"/>
  <anchor x="422" y="714" name="top"/>
  <anchor x="729" y="714" name="topright"/>
  <outline>
    <contour>
      <point x="-21" y="0" type="line"/>
      <point x="293" y="0" type="line" smooth="yes"/>
      <point x="482" y="0"/>
      <point x="581" y="82"/>
      <point x="581" y="228" type="curve" smooth="yes"/>
      <point x="581" y="312"/>
      <point x="531" y="361"/>
      <point x="459" y="374" type="curve"/>
      <point x="460" y="378" type="line"/>
      <point x="552" y="399"/>
      <point x="623" y="454"/>
      <point x="623" y="564" type="curve" smooth="yes"/>
      <point x="623" y="662"/>
      <point x="543" y="714"/>
      <point x="389" y="714" type="curve" smooth="yes"/>
      <point x="130" y="714" type="line"/>
      <point x="121" y="672" type="line"/>
      <point x="134" y="672" type="line" smooth="yes"/>
      <point x="173" y="672"/>
      <point x="206" y="667"/>
      <point x="206" y="632" type="curve" smooth="yes"/>
      <point x="206" y="626"/>
      <point x="204" y="612"/>
      <point x="202" y="604" type="curve" smooth="yes"/>
      <point x="98" y="114" type="line" smooth="yes"/>
      <point x="85" y="51"/>
      <point x="45" y="42"/>
      <point x="0" y="42" type="curve" smooth="yes"/>
      <point x="-13" y="42" type="line"/>
    </contour>
    <contour>
      <point x="282" y="50" type="curve" smooth="yes"/>
      <point x="185" y="50" type="line"/>
      <point x="249" y="349" type="line"/>
      <point x="333" y="349" type="line" smooth="yes"/>
      <point x="428" y="349"/>
      <point x="473" y="311"/>
      <point x="473" y="235" type="curve" smooth="yes"/>
      <point x="473" y="115"/>
      <point x="419" y="50"/>
    </contour>
    <contour>
      <point x="336" y="399" type="curve" smooth="yes"/>
      <point x="259" y="399" type="line"/>
      <point x="316" y="664" type="line"/>
      <point x="376" y="664" type="line" smooth="yes"/>
      <point x="466" y="664"/>
      <point x="514" y="626"/>
      <point x="514" y="551" type="curve" smooth="yes"/>
      <point x="514" y="453"/>
      <point x="462" y="399"/>
    </contour>
  </outline>
</glyph>
<glyph name="C.serif" format="2">
  <advance width="627"/>
  <unicode hex="0043"/>
  <anchor x="307" y="0" name="bottom"/>
  <anchor x="461" y="714" name="top"/>
  <anchor x="702" y="714" name="topright"/>
  <outline>
    <contour>
      <point x="328" y="-10" type="curve" smooth="yes"/>
      <point x="475" y="-10"/>
      <point x="537" y="60"/>
      <point x="537" y="113" type="curve" smooth="yes"/>
      <point x="537" y="128"/>
      <point x="532" y="140"/>
      <point x="524" y="146" type="curve"/>
      <point x="490" y="101"/>
      <point x="433" y="55"/>
      <point x="339" y="55" type="curve" smooth="yes"/>
      <point x="221" y="55"/>
      <point x="161" y="123"/>
      <point x="161" y="242" type="curve" smooth="yes"/>
      <point x="161" y="427"/>
      <point x="267" y="671"/>
      <point x="451" y="671" type="curve" smooth="yes"/>
      <point x="538" y="671"/>
      <point x="551" y="590"/>
      <point x="551" y="535" type="curve"/>
      <point x="609" y="535"/>
      <point x="649" y="565"/>
      <point x="649" y="613" type="curve" smooth="yes"/>
      <point x="649" y="680"/>
      <point x="582" y="724"/>
      <point x="464" y="724" type="curve" smooth="yes"/>
      <point x="215" y="724"/>
      <point x="52" y="496"/>
      <point x="52" y="258" type="curve" smooth="yes"/>
      <point x="52" y="87"/>
      <point x="154" y="-10"/>
    </contour>
  </outline>
</glyph>
<glyph name="D.serif" format="2">
  <advance width="725"/>
  <unicode hex="0044"/>
  <anchor x="306" y="0" name="bottom"/>
  <anchor x="401" y="357" name="center"/>
  <anchor x="458" y="714" name="top"/>
  <anchor x="800" y="714" name="topright"/>
  <outline>
    <contour>
      <point x="-21" y="0" type="line"/>
      <point x="294" y="0" type="line" smooth="yes"/>
      <point x="553" y="0"/>
      <point x="694" y="204"/>
      <point x="694" y="442" type="curve" smooth="yes"/>
      <point x="694" y="619"/>
      <point x="590" y="714"/>
      <point x="410" y="714" type="curve" smooth="yes"/>
      <point x="130" y="714" type="line"/>
      <point x="121" y="672" type="line"/>
      <point x="134" y="672" type="line" smooth="yes"/>
      <point x="170" y="672"/>
      <point x="206" y="668"/>
      <point x="206" y="632" type="curve" smooth="yes"/>
      <point x="206" y="624"/>
      <point x="204" y="613"/>
      <point x="202" y="604" type="curve" smooth="yes"/>
      <point x="98" y="114" type="line" smooth="yes"/>
      <point x="85" y="51"/>
      <point x="45" y="42"/>
      <point x="0" y="42" type="curve" smooth="yes"/>
      <point x="-13" y="42" type="line"/>
    </contour>
    <contour>
      <point x="272" y="51" type="curve"/>
      <point x="185" y="51" type="line"/>
      <point x="316" y="664" type="line"/>
      <point x="395" y="664" type="line" smooth="yes"/>
      <point x="511" y="664"/>
      <point x="585" y="599"/>
      <point x="585" y="453" type="curve" smooth="yes"/>
      <point x="585" y="217"/>
      <point x="469" y="51"/>
    </contour>
  </outline>
</glyph>
<glyph name="E.serif" format="2">
  <advance width="623"/>
  <unicode hex="0045"/>
  <anchor x="255" y="0" name="bottom"/>
  <anchor x="407" y="714" name="top"/>
  <anchor x="698" y="714" name="topright"/>
  <outline>
    <contour>
      <point x="-21" y="0" type="line"/>
      <point x="515" y="0" type="line"/>
      <point x="559" y="175" type="line"/>
      <point x="507" y="175" type="line"/>
      <point x="491" y="132" type="line" smooth="yes"/>
      <point x="475" y="88"/>
      <point x="441" y="50"/>
      <point x="378" y="50" type="curve" smooth="yes"/>
      <point x="185" y="50" type="line"/>
      <point x="249" y="349" type="line"/>
      <point x="490" y="349" type="line"/>
      <point x="500" y="398" type="line"/>
      <point x="259" y="398" type="line"/>
      <point x="316" y="664" type="line"/>
      <point x="484" y="664" type="line" smooth="yes"/>
      <point x="536" y="664"/>
      <point x="555" y="634"/>
      <point x="555" y="597" type="curve" smooth="yes"/>
      <point x="555" y="592"/>
      <point x="551" y="548"/>
      <point x="550" y="539" type="curve"/>
      <point x="602" y="539" type="line"/>
      <point x="634" y="714" type="line"/>
      <point x="130" y="714" type="line"/>
      <point x="121" y="672" type="line"/>
      <point x="134" y="672" type="line" smooth="yes"/>
      <point x="173" y="672"/>
      <point x="204" y="666"/>
      <point x="204" y="624" type="curve" smooth="yes"/>
      <point x="204" y="617"/>
      <point x="203" y="609"/>
      <point x="201" y="600" type="curve" smooth="yes"/>
      <point x="97" y="109" type="line" smooth="yes"/>
      <point x="84" y="49"/>
      <point x="44" y="42"/>
      <point x="0" y="42" type="curve" smooth="yes"/>
      <point x="-13" y="42" type="line"/>
    </contour>
  </outline>
</glyph>
<glyph name="G.serif" format="2">
  <advance width="714"/>
  <unicode hex="0047"/>
  <anchor x="310" y="0" name="bottom"/>
  <anchor x="470" y="714" name="top"/>
  <anchor x="789" y="714" name="topright"/>
  <outline>
    <contour>
      <point x="336" y="-10" type="curve" smooth="yes"/>
      <point x="422" y="-10"/>
      <point x="489" y="5"/>
      <point x="562" y="36" type="curve"/>
      <point x="600" y="216" type="line" smooth="yes"/>
      <point x="613" y="279"/>
      <point x="648" y="288"/>
      <point x="685" y="288" type="curve" smooth="yes"/>
      <point x="689" y="288" type="line"/>
      <point x="698" y="330" type="line"/>
      <point x="432" y="330" type="line"/>
      <point x="423" y="288" type="line"/>
      <point x="432" y="288" type="line" smooth="yes"/>
      <point x="471" y="288"/>
      <point x="504" y="283"/>
      <point x="504" y="248" type="curve" smooth="yes"/>
      <point x="504" y="242"/>
      <point x="502" y="228"/>
      <point x="500" y="220" type="curve" smooth="yes"/>
      <point x="467" y="61" type="line"/>
      <point x="437" y="53"/>
      <point x="392" y="47"/>
      <point x="354" y="47" type="curve" smooth="yes"/>
      <point x="216" y="47"/>
      <point x="161" y="127"/>
      <point x="161" y="242" type="curve" smooth="yes"/>
      <point x="161" y="468"/>
      <point x="291" y="671"/>
      <point x="461" y="671" type="curve" smooth="yes"/>
      <point x="549" y="671"/>
      <point x="587" y="615"/>
      <point x="587" y="537" type="curve"/>
      <point x="645" y="537"/>
      <point x="693" y="564"/>
      <point x="693" y="616" type="curve" smooth="yes"/>
      <point x="693" y="675"/>
      <point x="624" y="724"/>
      <point x="482" y="724" type="curve" smooth="yes"/>
      <point x="226" y="724"/>
      <point x="52" y="516"/>
      <point x="52" y="258" type="curve" smooth="yes"/>
      <point x="52" y="93"/>
      <point x="148" y="-10"/>
    </contour>
  </outline>
</glyph>
<glyph name="H.serif" format="2">
  <advance width="793"/>
  <unicode hex="0048"/>
  <anchor x="340" y="0" name="bottom"/>
  <anchor x="435" y="357" name="center"/>
  <anchor x="492" y="714" name="top"/>
  <anchor x="868" y="714" name="topright"/>
  <outline>
    <contour>
      <point x="-21" y="0" type="line"/>
      <point x="270" y="0" type="line"/>
      <point x="279" y="42" type="line"/>
      <point x="266" y="42" type="line" smooth="yes"/>
      <point x="224" y="42"/>
      <point x="194" y="48"/>
      <point x="194" y="82" type="curve" smooth="yes"/>
      <point x="194" y="88"/>
      <point x="196" y="102"/>
      <point x="198" y="110" type="curve" smooth="yes"/>
      <point x="248" y="348" type="line"/>
      <point x="573" y="348" type="line"/>
      <point x="524" y="114" type="line" smooth="yes"/>
      <point x="511" y="51"/>
      <point x="471" y="42"/>
      <point x="426" y="42" type="curve" smooth="yes"/>
      <point x="413" y="42" type="line"/>
      <point x="405" y="0" type="line"/>
      <point x="696" y="0" type="line"/>
      <point x="705" y="42" type="line"/>
      <point x="692" y="42" type="line" smooth="yes"/>
      <point x="650" y="42"/>
      <point x="620" y="48"/>
      <point x="620" y="82" type="curve" smooth="yes"/>
      <point x="620" y="88"/>
      <point x="622" y="102"/>
      <point x="624" y="110" type="curve" smooth="yes"/>
      <point x="728" y="600" type="line" smooth="yes"/>
      <point x="741" y="663"/>
      <point x="780" y="672"/>
      <point x="825" y="672" type="curve" smooth="yes"/>
      <point x="838" y="672" type="line"/>
      <point x="847" y="714" type="line"/>
      <point x="556" y="714" type="line"/>
      <point x="547" y="672" type="line"/>
      <point x="560" y="672" type="line" smooth="yes"/>
      <point x="602" y="672"/>
      <point x="632" y="666"/>
      <point x="632" y="632" type="curve" smooth="yes"/>
      <point x="632" y="626"/>
      <point x="630" y="612"/>
      <point x="628" y="604" type="curve" smooth="yes"/>
      <point x="584" y="398" type="line"/>
      <point x="259" y="398" type="line"/>
      <point x="302" y="600" type="line" smooth="yes"/>
      <point x="315" y="663"/>
      <point x="354" y="672"/>
      <point x="399" y="672" type="curve" smooth="yes"/>
      <point x="412" y="672" type="line"/>
      <point x="421" y="714" type="line"/>
      <point x="130" y="714" type="line"/>
      <point x="121" y="672" type="line"/>
      <point x="134" y="672" type="line" smooth="yes"/>
      <point x="176" y="672"/>
      <point x="206" y="666"/>
      <point x="206" y="632" type="curve" smooth="yes"/>
      <point x="206" y="626"/>
      <point x="204" y="612"/>
      <point x="202" y="604" type="curve" smooth="yes"/>
      <point x="98" y="114" type="line" smooth="yes"/>
      <point x="85" y="51"/>
      <point x="45" y="42"/>
      <point x="0" y="42" type="curve" smooth="yes"/>
      <point x="-13" y="42" type="line"/>
    </contour>
  </outline>
</glyph>
<glyph name="I.serif" format="2">
  <advance width="367"/>
  <unicode hex="0049"/>
  <anchor x="127" y="0" name="bottom"/>
  <anchor x="279" y="714" name="top"/>
  <anchor x="442" y="714" name="topright"/>
  <outline>
    <contour>
      <point x="-21" y="0" type="line"/>
      <point x="270" y="0" type="line"/>
      <point x="279" y="42" type="line"/>
      <point x="266" y="42" type="line" smooth="yes"/>
      <point x="224" y="42"/>
      <point x="194" y="48"/>
      <point x="194" y="82" type="curve" smooth="yes"/>
      <point x="194" y="88"/>
      <point x="196" y="102"/>
      <point x="198" y="110" type="curve"/>
      <point x="302" y="600" type="line"/>
      <point x="315" y="663"/>
      <point x="354" y="672"/>
      <point x="399" y="672" type="curve" smooth="yes"/>
      <point x="412" y="672" type="line"/>
      <point x="421" y="714" type="line"/>
      <point x="130" y="714" type="line"/>
      <point x="121" y="672" type="line"/>
      <point x="134" y="672" type="line" smooth="yes"/>
      <point x="176" y="672"/>
      <point x="206" y="666"/>
      <point x="206" y="632" type="curve" smooth="yes"/>
      <point x="206" y="626"/>
      <point x="204" y="612"/>
      <point x="202" y="604" type="curve"/>
      <point x="98" y="114" type="line" smooth="yes"/>
      <point x="85" y="51"/>
      <point x="45" y="42"/>
      <point x="0" y="42" type="curve" smooth="yes"/>
      <point x="-13" y="42" type="line"/>
    </contour>
  </outline>
</glyph>
<glyph name="J.serif" format="2">
  <advance width="357"/>
  <unicode hex="004A"/>
  <anchor x="-73" y="-240" name="bottom"/>
  <anchor x="274" y="714" name="top"/>
  <anchor x="432" y="714" name="topright"/>
  <outline>
    <contour>
      <point x="-73" y="-240" type="curve" smooth="yes"/>
      <point x="63" y="-240"/>
      <point x="133" y="-166"/>
      <point x="167" y="-8" type="curve" smooth="yes"/>
      <point x="297" y="600" type="line" smooth="yes"/>
      <point x="310" y="663"/>
      <point x="349" y="672"/>
      <point x="394" y="672" type="curve" smooth="yes"/>
      <point x="407" y="672" type="line"/>
      <point x="416" y="714" type="line"/>
      <point x="125" y="714" type="line"/>
      <point x="116" y="672" type="line"/>
      <point x="129" y="672" type="line" smooth="yes"/>
      <point x="171" y="672"/>
      <point x="201" y="666"/>
      <point x="201" y="632" type="curve" smooth="yes"/>
      <point x="201" y="626"/>
      <point x="199" y="612"/>
      <point x="197" y="604" type="curve" smooth="yes"/>
      <point x="67" y="-9" type="line" smooth="yes"/>
      <point x="37" y="-151"/>
      <point x="-7" y="-193"/>
      <point x="-76" y="-193" type="curve" smooth="yes"/>
      <point x="-96" y="-193"/>
      <point x="-124" y="-190"/>
      <point x="-141" y="-184" type="curve"/>
      <point x="-155" y="-229" type="line"/>
      <point x="-131" y="-236"/>
      <point x="-109" y="-240"/>
    </contour>
  </outline>
</glyph>
<glyph name="K.serif" format="2">
  <advance width="700"/>
  <unicode hex="004B"/>
  <anchor x="293" y="0" name="bottom"/>
  <anchor x="445" y="714" name="top"/>
  <anchor x="775" y="714" name="topright"/>
  <outline>
    <contour>
      <point x="-21" y="0" type="line"/>
      <point x="270" y="0" type="line"/>
      <point x="279" y="42" type="line"/>
      <point x="266" y="42" type="line" smooth="yes"/>
      <point x="224" y="42"/>
      <point x="194" y="48"/>
      <point x="194" y="82" type="curve" smooth="yes"/>
      <point x="194" y="88"/>
      <point x="196" y="102"/>
      <point x="198" y="110" type="curve" smooth="yes"/>
      <point x="231" y="268" type="line"/>
      <point x="371" y="366" type="line"/>
      <point x="317" y="382" type="line"/>
      <point x="431" y="93" type="line" smooth="yes"/>
      <point x="458" y="23"/>
      <point x="491" y="0"/>
      <point x="611" y="0" type="curve" smooth="yes"/>
      <point x="625" y="0" type="line"/>
      <point x="634" y="42" type="line"/>
      <point x="631" y="42" type="line" smooth="yes"/>
      <point x="586" y="42"/>
      <point x="558" y="68"/>
      <point x="536" y="122" type="curve" smooth="yes"/>
      <point x="398" y="456" type="line"/>
      <point x="381" y="383" type="line"/>
      <point x="597" y="579" type="line" smooth="yes"/>
      <point x="661" y="637"/>
      <point x="705" y="673"/>
      <point x="751" y="673" type="curve"/>
      <point x="759" y="714" type="line"/>
      <point x="538" y="714" type="line"/>
      <point x="530" y="673" type="line"/>
      <point x="563" y="673"/>
      <point x="574" y="668"/>
      <point x="574" y="651" type="curve" smooth="yes"/>
      <point x="574" y="633"/>
      <point x="552" y="610"/>
      <point x="499" y="561" type="curve" smooth="yes"/>
      <point x="241" y="324" type="line"/>
      <point x="302" y="600" type="line" smooth="yes"/>
      <point x="315" y="663"/>
      <point x="354" y="672"/>
      <point x="399" y="672" type="curve" smooth="yes"/>
      <point x="412" y="672" type="line"/>
      <point x="421" y="714" type="line"/>
      <point x="130" y="714" type="line"/>
      <point x="121" y="672" type="line"/>
      <point x="134" y="672" type="line" smooth="yes"/>
      <point x="176" y="672"/>
      <point x="206" y="666"/>
      <point x="206" y="632" type="curve" smooth="yes"/>
      <point x="206" y="626"/>
      <point x="204" y="612"/>
      <point x="202" y="604" type="curve" smooth="yes"/>
      <point x="98" y="114" type="line" smooth="yes"/>
      <point x="84" y="51"/>
      <point x="45" y="42"/>
      <point x="0" y="42" type="curve" smooth="yes"/>
      <point x="-13" y="42" type="line"/>
    </contour>
  </outline>
</glyph>
<glyph name="L.serif" format="2">
  <advance width="623"/>
  <unicode hex="004C"/>
  <anchor x="255" y="0" name="bottom"/>
  <anchor x="350" y="357" name="center"/>
  <anchor x="407" y="714" name="top"/>
  <anchor x="698" y="714" name="topright"/>
  <outline>
    <contour>
      <point x="-20" y="0" type="line"/>
      <point x="515" y="0" type="line"/>
      <point x="567" y="215" type="line"/>
      <point x="515" y="215" type="line"/>
      <point x="489" y="140" type="line" smooth="yes"/>
      <point x="474" y="97"/>
      <point x="443" y="50"/>
      <point x="382" y="50" type="curve" smooth="yes"/>
      <point x="185" y="50" type="line"/>
      <point x="303" y="604" type="line" smooth="yes"/>
      <point x="316" y="664"/>
      <point x="355" y="672"/>
      <point x="399" y="672" type="curve" smooth="yes"/>
      <point x="412" y="672" type="line"/>
      <point x="421" y="714" type="line"/>
      <point x="130" y="714" type="line"/>
      <point x="121" y="672" type="line"/>
      <point x="134" y="672" type="line" smooth="yes"/>
      <point x="176" y="672"/>
      <point x="206" y="666"/>
      <point x="206" y="632" type="curve" smooth="yes"/>
      <point x="206" y="626"/>
      <point x="204" y="612"/>
      <point x="202" y="604" type="curve" smooth="yes"/>
      <point x="98" y="114" type="line" smooth="yes"/>
      <point x="84" y="51"/>
      <point x="46" y="42"/>
      <point x="2" y="42" type="curve" smooth="yes"/>
      <point x="-11" y="42" type="line"/>
    </contour>
  </outline>
</glyph>
<glyph name="M.serif" format="2">
  <advance width="938"/>
  <unicode hex="004D"/>
  <anchor x="412" y="0" name="bottom"/>
  <anchor x="564" y="714" name="top"/>
  <anchor x="1013" y="714" name="topright"/>
  <outline>
    <contour>
      <point x="-20" y="0" type="line"/>
      <point x="230" y="0" type="line"/>
      <point x="239" y="42" type="line"/>
      <point x="226" y="42" type="line" smooth="yes"/>
      <point x="184" y="42"/>
      <point x="154" y="48"/>
      <point x="154" y="82" type="curve" smooth="yes"/>
      <point x="154" y="88"/>
      <point x="156" y="102"/>
      <point x="158" y="110" type="curve" smooth="yes"/>
      <point x="270" y="639" type="line"/>
      <point x="367" y="0" type="line"/>
      <point x="421" y="0" type="line"/>
      <point x="786" y="639" type="line"/>
      <point x="672" y="105" type="line" smooth="yes"/>
      <point x="657" y="50"/>
      <point x="630" y="42"/>
      <point x="587" y="42" type="curve" smooth="yes"/>
      <point x="584" y="42" type="line"/>
      <point x="575" y="0" type="line"/>
      <point x="841" y="0" type="line"/>
      <point x="850" y="42" type="line"/>
      <point x="837" y="42" type="line" smooth="yes"/>
      <point x="795" y="42"/>
      <point x="765" y="48"/>
      <point x="765" y="82" type="curve" smooth="yes"/>
      <point x="765" y="88"/>
      <point x="767" y="102"/>
      <point x="769" y="110" type="curve" smooth="yes"/>
      <point x="873" y="600" type="line" smooth="yes"/>
      <point x="886" y="663"/>
      <point x="925" y="672"/>
      <point x="970" y="672" type="curve" smooth="yes"/>
      <point x="983" y="672" type="line"/>
      <point x="992" y="714" type="line"/>
      <point x="769" y="714" type="line"/>
      <point x="442" y="144" type="line"/>
      <point x="357" y="714" type="line"/>
      <point x="130" y="714" type="line"/>
      <point x="121" y="672" type="line"/>
      <point x="134" y="672" type="line" smooth="yes"/>
      <point x="176" y="672"/>
      <point x="206" y="666"/>
      <point x="206" y="632" type="curve" smooth="yes"/>
      <point x="206" y="626"/>
      <point x="204" y="612"/>
      <point x="202" y="604" type="curve" smooth="yes"/>
      <point x="97" y="109" type="line" smooth="yes"/>
      <point x="84" y="49"/>
      <point x="45" y="42"/>
      <point x="2" y="42" type="curve" smooth="yes"/>
      <point x="-11" y="42" type="line"/>
    </contour>
  </outline>
</glyph>
<glyph name="N" format="2">
  <advance width="707"/>
  <unicode hex="004E"/>
  <anchor x="297" y="0" name="bottom"/>
  <anchor x="454" y="714" name="top"/>
  <anchor x="782" y="714" name="topright"/>
  <outline>
    <contour>
      <point x="40" y="0" type="line"/>
      <point x="124" y="0" type="line"/>
      <point x="206" y="388" type="line" smooth="yes"/>
      <point x="222" y="461"/>
      <point x="237" y="550"/>
      <point x="242" y="592" type="curve"/>
      <point x="245" y="592" type="line"/>
      <point x="466" y="0" type="line"/>
      <point x="561" y="0" type="line"/>
      <point x="712" y="714" type="line"/>
      <point x="627" y="714" type="line"/>
      <point x="543" y="321" type="line" smooth="yes"/>
      <point x="528" y="254"/>
      <point x="514" y="172"/>
      <point x="508" y="124" type="curve"/>
      <point x="505" y="124" type="line"/>
      <point x="286" y="714" type="line"/>
      <point x="191" y="714" type="line"/>
    </contour>
  </outline>
</glyph>
<glyph name="N.serif" format="2">
  <advance width="763"/>
  <unicode hex="004E"/>
  <anchor x="325" y="0" name="bottom"/>
  <anchor x="477" y="714" name="top"/>
  <anchor x="838" y="714" name="topright"/>
  <outline>
    <contour>
      <point x="-20" y="0" type="line"/>
      <point x="230" y="0" type="line"/>
      <point x="239" y="42" type="line"/>
      <point x="226" y="42" type="line" smooth="yes"/>
      <point x="184" y="42"/>
      <point x="154" y="48"/>
      <point x="154" y="82" type="curve" smooth="yes"/>
      <point x="154" y="88"/>
      <point x="156" y="102"/>
      <point x="158" y="110" type="curve" smooth="yes"/>
      <point x="259" y="586" type="line"/>
      <point x="516" y="0" type="line"/>
      <point x="581" y="0" type="line"/>
      <point x="708" y="600" type="line" smooth="yes"/>
      <point x="722" y="663"/>
      <point x="760" y="672"/>
      <point x="805" y="672" type="curve" smooth="yes"/>
      <point x="818" y="672" type="line"/>
      <point x="827" y="714" type="line"/>
      <point x="576" y="714" type="line"/>
      <point x="567" y="672" type="line"/>
      <point x="580" y="672" type="line" smooth="yes"/>
      <point x="622" y="672"/>
      <point x="652" y="666"/>
      <point x="652" y="632" type="curve" smooth="yes"/>
      <point x="652" y="626"/>
      <point x="650" y="612"/>
      <point x="648" y="604" type="curve"/>
      <point x="554" y="162" type="line"/>
      <point x="312" y="714" type="line"/>
      <point x="130" y="714" type="line"/>
      <point x="121" y="672" type="line"/>
      <point x="134" y="672" type="line" smooth="yes"/>
      <point x="176" y="672"/>
      <point x="206" y="666"/>
      <point x="206" y="632" type="curve" smooth="yes"/>
      <point x="206" y="626"/>
      <point x="204" y="612"/>
      <point x="202" y="604" type="curve"/>
      <point x="98" y="114" type="line"/>
      <point x="84" y="51"/>
      <point x="46" y="42"/>
      <point x="2" y="42" type="curve" smooth="yes"/>
      <point x="-11" y="42" type="line"/>
    </contour>
  </outline>
</glyph>
<glyph name="O.serif" format="2">
  <advance width="742"/>
  <unicode hex="004F"/>
  <anchor x="314" y="0" name="bottom"/>
  <anchor x="409" y="357" name="center"/>
  <anchor x="466" y="714" name="top"/>
  <anchor x="817" y="714" name="topright"/>
  <outline>
    <contour>
      <point x="314" y="-11" type="curve" smooth="yes"/>
      <point x="582" y="-11"/>
      <point x="711" y="266"/>
      <point x="711" y="450" type="curve" smooth="yes"/>
      <point x="711" y="641"/>
      <point x="590" y="725"/>
      <point x="452" y="725" type="curve" smooth="yes"/>
      <point x="187" y="725"/>
      <point x="52" y="458"/>
      <point x="52" y="266" type="curve" smooth="yes"/>
      <point x="52" y="85"/>
      <point x="166" y="-11"/>
    </contour>
    <contour>
      <point x="320" y="44" type="curve" smooth="yes"/>
      <point x="231" y="44"/>
      <point x="161" y="102"/>
      <point x="161" y="238" type="curve" smooth="yes"/>
      <point x="161" y="400"/>
      <point x="250" y="671"/>
      <point x="444" y="671" type="curve" smooth="yes"/>
      <point x="535" y="671"/>
      <point x="601" y="612"/>
      <point x="601" y="477" type="curve" smooth="yes"/>
      <point x="601" y="315"/>
      <point x="514" y="44"/>
    </contour>
  </outline>
</glyph>
<glyph name="P.serif" format="2">
  <advance width="620"/>
  <unicode hex="0050"/>
  <anchor x="128" y="0" name="bottom"/>
  <anchor x="405" y="714" name="top"/>
  <anchor x="695" y="714" name="topright"/>
  <outline>
    <contour>
      <point x="-20" y="0" type="line"/>
      <point x="290" y="0" type="line"/>
      <point x="299" y="42" type="line"/>
      <point x="266" y="42" type="line" smooth="yes"/>
      <point x="224" y="42"/>
      <point x="194" y="48"/>
      <point x="194" y="82" type="curve" smooth="yes"/>
      <point x="194" y="88"/>
      <point x="196" y="102"/>
      <point x="198" y="110" type="curve" smooth="yes"/>
      <point x="234" y="278" type="line"/>
      <point x="308" y="278" type="line" smooth="yes"/>
      <point x="565" y="278"/>
      <point x="614" y="420"/>
      <point x="614" y="521" type="curve" smooth="yes"/>
      <point x="614" y="648"/>
      <point x="526" y="714"/>
      <point x="386" y="714" type="curve"/>
      <point x="130" y="714" type="line"/>
      <point x="121" y="672" type="line"/>
      <point x="134" y="672" type="line" smooth="yes"/>
      <point x="176" y="672"/>
      <point x="206" y="666"/>
      <point x="206" y="632" type="curve" smooth="yes"/>
      <point x="206" y="626"/>
      <point x="204" y="612"/>
      <point x="202" y="604" type="curve" smooth="yes"/>
      <point x="98" y="114" type="line" smooth="yes"/>
      <point x="85" y="51"/>
      <point x="46" y="42"/>
      <point x="2" y="42" type="curve" smooth="yes"/>
      <point x="-11" y="42" type="line"/>
    </contour>
    <contour>
      <point x="297" y="325" type="curve" smooth="yes"/>
      <point x="244" y="325" type="line"/>
      <point x="316" y="666" type="line"/>
      <point x="362" y="666" type="line" smooth="yes"/>
      <point x="457" y="666"/>
      <point x="508" y="625"/>
      <point x="508" y="520" type="curve" smooth="yes"/>
      <point x="508" y="406"/>
      <point x="452" y="325"/>
    </contour>
  </outline>
</glyph>
<glyph name="Q.serif" format="2">
  <advance width="742"/>
  <unicode hex="0051"/>
  <anchor x="266" y="-226" name="bottom"/>
  <anchor x="466" y="714" name="top"/>
  <anchor x="817" y="714" name="topright"/>
  <outline>
    <contour>
      <point x="451" y="-226" type="curve" smooth="yes"/>
      <point x="498" y="-226"/>
      <point x="525" y="-218"/>
      <point x="550" y="-210" type="curve"/>
      <point x="543" y="-168" type="line"/>
      <point x="524" y="-173"/>
      <point x="503" y="-177"/>
      <point x="475" y="-177" type="curve" smooth="yes"/>
      <point x="408" y="-177"/>
      <point x="373" y="-130"/>
      <point x="367" y="-7" type="curve"/>
      <point x="599" y="27"/>
      <point x="711" y="278"/>
      <point x="711" y="450" type="curve" smooth="yes"/>
      <point x="711" y="641"/>
      <point x="590" y="725"/>
      <point x="452" y="725" type="curve" smooth="yes"/>
      <point x="187" y="725"/>
      <point x="52" y="458"/>
      <point x="52" y="266" type="curve" smooth="yes"/>
      <point x="52" y="108"/>
      <point x="139" y="14"/>
      <point x="259" y="-6" type="curve"/>
      <point x="264" y="-130"/>
      <point x="307" y="-226"/>
    </contour>
    <contour>
      <point x="320" y="44" type="curve" smooth="yes"/>
      <point x="231" y="44"/>
      <point x="161" y="102"/>
      <point x="161" y="238" type="curve" smooth="yes"/>
      <point x="161" y="400"/>
      <point x="250" y="671"/>
      <point x="444" y="671" type="curve" smooth="yes"/>
      <point x="535" y="671"/>
      <point x="601" y="612"/>
      <point x="601" y="477" type="curve" smooth="yes"/>
      <point x="601" y="315"/>
      <point x="514" y="44"/>
    </contour>
  </outline>
</glyph>
<glyph name="R.serif" format="2">
  <advance width="664"/>
  <unicode hex="0052"/>
  <anchor x="275" y="0" name="bottom"/>
  <anchor x="427" y="714" name="top"/>
  <anchor x="739" y="714" name="topright"/>
  <outline>
    <contour>
      <point x="-20" y="0" type="line"/>
      <point x="290" y="0" type="line"/>
      <point x="299" y="42" type="line"/>
      <point x="266" y="42" type="line" smooth="yes"/>
      <point x="224" y="42"/>
      <point x="194" y="48"/>
      <point x="194" y="82" type="curve" smooth="yes"/>
      <point x="194" y="88"/>
      <point x="196" y="102"/>
      <point x="198" y="110" type="curve" smooth="yes"/>
      <point x="242" y="315" type="line"/>
      <point x="341" y="315" type="line"/>
      <point x="399" y="117" type="line" smooth="yes"/>
      <point x="426" y="24"/>
      <point x="462" y="0"/>
      <point x="577" y="0" type="curve" smooth="yes"/>
      <point x="590" y="0" type="line"/>
      <point x="598" y="42" type="line"/>
      <point x="590" y="42" type="line" smooth="yes"/>
      <point x="545" y="42"/>
      <point x="526" y="67"/>
      <point x="508" y="121" type="curve"/>
      <point x="436" y="335" type="line"/>
      <point x="521" y="354"/>
      <point x="621" y="407"/>
      <point x="621" y="544" type="curve" smooth="yes"/>
      <point x="621" y="658"/>
      <point x="546" y="714"/>
      <point x="392" y="714" type="curve" smooth="yes"/>
      <point x="130" y="714" type="line"/>
      <point x="121" y="672" type="line"/>
      <point x="134" y="672" type="line" smooth="yes"/>
      <point x="176" y="672"/>
      <point x="206" y="666"/>
      <point x="206" y="632" type="curve" smooth="yes"/>
      <point x="206" y="626"/>
      <point x="204" y="612"/>
      <point x="202" y="604" type="curve" smooth="yes"/>
      <point x="97" y="109" type="line" smooth="yes"/>
      <point x="84" y="49"/>
      <point x="45" y="42"/>
      <point x="2" y="42" type="curve" smooth="yes"/>
      <point x="-11" y="42" type="line"/>
    </contour>
    <contour>
      <point x="329" y="362" type="curve" smooth="yes"/>
      <point x="252" y="362" type="line"/>
      <point x="316" y="666" type="line"/>
      <point x="384" y="666" type="line" smooth="yes"/>
      <point x="473" y="666"/>
      <point x="515" y="633"/>
      <point x="515" y="538" type="curve" smooth="yes"/>
      <point x="515" y="412"/>
      <point x="434" y="362"/>
    </contour>
  </outline>
</glyph>
<glyph name="S.serif" format="2">
  <advance width="544"/>
  <unicode hex="0053"/>
  <anchor x="215" y="0" name="bottom"/>
  <anchor x="367" y="714" name="top"/>
  <anchor x="619" y="714" name="topright"/>
  <outline>
    <contour>
      <point x="229" y="-10" type="curve" smooth="yes"/>
      <point x="392" y="-10"/>
      <point x="491" y="66"/>
      <point x="491" y="200" type="curve" smooth="yes"/>
      <point x="491" y="280"/>
      <point x="443" y="337"/>
      <point x="343" y="395" type="curve" smooth="yes"/>
      <point x="260" y="443"/>
      <point x="219" y="475"/>
      <point x="219" y="548" type="curve" smooth="yes"/>
      <point x="219" y="634"/>
      <point x="285" y="674"/>
      <point x="355" y="674" type="curve" smooth="yes"/>
      <point x="444" y="674"/>
      <point x="465" y="602"/>
      <point x="465" y="547" type="curve"/>
      <point x="526" y="547"/>
      <point x="553" y="575"/>
      <point x="553" y="616" type="curve" smooth="yes"/>
      <point x="553" y="680"/>
      <point x="479" y="724"/>
      <point x="363" y="724" type="curve" smooth="yes"/>
      <point x="211" y="724"/>
      <point x="120" y="644"/>
      <point x="120" y="531" type="curve" smooth="yes"/>
      <point x="120" y="430"/>
      <point x="178" y="373"/>
      <point x="262" y="325" type="curve" smooth="yes"/>
      <point x="370" y="264"/>
      <point x="388" y="228"/>
      <point x="388" y="168" type="curve" smooth="yes"/>
      <point x="388" y="89"/>
      <point x="330" y="39"/>
      <point x="236" y="39" type="curve" smooth="yes"/>
      <point x="132" y="39"/>
      <point x="84" y="117"/>
      <point x="84" y="209" type="curve"/>
      <point x="45" y="209"/>
      <point x="7" y="184"/>
      <point x="7" y="133" type="curve" smooth="yes"/>
      <point x="7" y="56"/>
      <point x="83" y="-10"/>
    </contour>
  </outline>
</glyph>
<glyph name="T" format="2">
  <advance width="501"/>
  <unicode hex="0054"/>
  <anchor x="194" y="0" name="bottom"/>
  <anchor x="289" y="357" name="center"/>
  <anchor x="346" y="714" name="top"/>
  <anchor x="576" y="714" name="topright"/>
  <outline>
    <contour>
      <point x="152" y="0" type="line"/>
      <point x="242" y="0" type="line"/>
      <point x="377" y="635" type="line"/>
      <point x="573" y="635" type="line"/>
      <point x="589" y="714" type="line"/>
      <point x="107" y="714" type="line"/>
      <point x="90" y="635" type="line"/>
      <point x="286" y="635" type="line"/>
    </contour>
  </outline>
</glyph>
<glyph name="U.serif" format="2">
  <advance width="730"/>
  <unicode hex="0055"/>
  <anchor x="308" y="0" name="bottom"/>
  <anchor x="460" y="714" name="top"/>
  <anchor x="805" y="714" name="topright"/>
  <outline>
    <contour>
      <point x="323" y="-10" type="curve" smooth="yes"/>
      <point x="482" y="-10"/>
      <point x="565" y="71"/>
      <point x="593" y="204" type="curve" smooth="yes"/>
      <point x="677" y="600" type="line" smooth="yes"/>
      <point x="691" y="663"/>
      <point x="731" y="672"/>
      <point x="775" y="672" type="curve" smooth="yes"/>
      <point x="788" y="672" type="line"/>
      <point x="796" y="714" type="line"/>
      <point x="545" y="714" type="line"/>
      <point x="536" y="672" type="line"/>
      <point x="549" y="672" type="line" smooth="yes"/>
      <point x="591" y="672"/>
      <point x="621" y="666"/>
      <point x="621" y="632" type="curve" smooth="yes"/>
      <point x="621" y="626"/>
      <point x="619" y="612"/>
      <point x="617" y="604" type="curve"/>
      <point x="532" y="206" type="line" smooth="yes"/>
      <point x="513" y="118"/>
      <point x="468" y="50"/>
      <point x="338" y="50" type="curve" smooth="yes"/>
      <point x="247" y="50"/>
      <point x="194" y="86"/>
      <point x="194" y="154" type="curve" smooth="yes"/>
      <point x="194" y="182"/>
      <point x="199" y="213"/>
      <point x="206" y="247" type="curve" smooth="yes"/>
      <point x="281" y="600" type="line" smooth="yes"/>
      <point x="295" y="663"/>
      <point x="335" y="672"/>
      <point x="379" y="672" type="curve" smooth="yes"/>
      <point x="392" y="672" type="line"/>
      <point x="400" y="714" type="line"/>
      <point x="109" y="714" type="line"/>
      <point x="100" y="672" type="line"/>
      <point x="113" y="672" type="line" smooth="yes"/>
      <point x="155" y="672"/>
      <point x="185" y="666"/>
      <point x="185" y="632" type="curve" smooth="yes"/>
      <point x="185" y="626"/>
      <point x="183" y="612"/>
      <point x="181" y="604" type="curve"/>
      <point x="107" y="252" type="line" smooth="yes"/>
      <point x="102" y="229"/>
      <point x="96" y="184"/>
      <point x="96" y="163" type="curve" smooth="yes"/>
      <point x="96" y="53"/>
      <point x="177" y="-10"/>
    </contour>
  </outline>
</glyph>
<glyph name="V" format="2">
  <advance width="552"/>
  <unicode hex="0056"/>
  <anchor x="217" y="0" name="bottom"/>
  <anchor x="359" y="714" name="top"/>
  <anchor x="627" y="714" name="topright"/>
  <outline>
    <contour>
      <point x="169" y="0" type="line"/>
      <point x="264" y="0" type="line"/>
      <point x="644" y="714" type="line"/>
      <point x="545" y="714" type="line"/>
      <point x="313" y="263" type="line" smooth="yes"/>
      <point x="281" y="200"/>
      <point x="256" y="149"/>
      <point x="236" y="101" type="curve"/>
      <point x="234" y="101" type="line"/>
      <point x="235" y="149"/>
      <point x="231" y="207"/>
      <point x="225" y="262" type="curve" smooth="yes"/>
      <point x="180" y="714" type="line"/>
      <point x="92" y="714" type="line"/>
    </contour>
  </outline>
</glyph>
<glyph name="W.serif" format="2">
  <advance width="1045"/>
  <unicode hex="0057"/>
  <anchor x="466" y="0" name="bottom"/>
  <anchor x="618" y="714" name="top"/>
  <anchor x="1120" y="714" name="topright"/>
  <outline>
    <contour>
      <point x="162" y="619" type="curve" smooth="yes"/>
      <point x="214" y="0" type="line"/>
      <point x="305" y="0" type="line"/>
      <point x="574" y="554" type="line"/>
      <point x="619" y="0" type="line"/>
      <point x="711" y="0" type="line"/>
      <point x="1006" y="594" type="line" smooth="yes"/>
      <point x="1039" y="660"/>
      <point x="1059" y="672"/>
      <point x="1098" y="672" type="curve" smooth="yes"/>
      <point x="1117" y="672" type="line"/>
      <point x="1126" y="714" type="line"/>
      <point x="882" y="714" type="line"/>
      <point x="874" y="672" type="line"/>
      <point x="898" y="672" type="line" smooth="yes"/>
      <point x="936" y="672"/>
      <point x="954" y="661"/>
      <point x="954" y="636" type="curve" smooth="yes"/>
      <point x="954" y="622"/>
      <point x="947" y="605"/>
      <point x="935" y="580" type="curve" smooth="yes"/>
      <point x="776" y="262" type="line" smooth="yes"/>
      <point x="744" y="198"/>
      <point x="722" y="146"/>
      <point x="701" y="98" type="curve"/>
      <point x="702" y="144"/>
      <point x="701" y="208"/>
      <point x="696" y="274" type="curve" smooth="yes"/>
      <point x="663" y="707" type="line"/>
      <point x="591" y="707" type="line"/>
      <point x="381" y="278" type="line" smooth="yes"/>
      <point x="349" y="214"/>
      <point x="321" y="150"/>
      <point x="299" y="98" type="curve"/>
      <point x="299" y="146"/>
      <point x="297" y="207"/>
      <point x="292" y="267" type="curve" smooth="yes"/>
      <point x="268" y="587" type="line"/>
      <point x="267" y="596"/>
      <point x="266" y="610"/>
      <point x="266" y="621" type="curve" smooth="yes"/>
      <point x="266" y="653"/>
      <point x="295" y="672"/>
      <point x="338" y="672" type="curve" smooth="yes"/>
      <point x="361" y="672" type="line"/>
      <point x="370" y="714" type="line"/>
      <point x="98" y="714" type="line"/>
      <point x="89" y="672" type="line"/>
      <point x="102" y="672" type="line" smooth="yes"/>
      <point x="141" y="672"/>
      <point x="158" y="661"/>
    </contour>
  </outline>
</glyph>
<glyph name="X" format="2">
  <advance width="527"/>
  <unicode hex="0058"/>
  <anchor x="207" y="0" name="bottom"/>
  <anchor x="342" y="714" name="top"/>
  <anchor x="602" y="714" name="topright"/>
  <outline>
    <contour>
      <point x="-52" y="0" type="line"/>
      <point x="46" y="0" type="line"/>
      <point x="278" y="309" type="line"/>
      <point x="380" y="0" type="line"/>
      <point x="474" y="0" type="line"/>
      <point x="339" y="374" type="line"/>
      <point x="609" y="714" type="line"/>
      <point x="511" y="714" type="line"/>
      <point x="299" y="441" type="line"/>
      <point x="202" y="714" type="line"/>
      <point x="112" y="714" type="line"/>
      <point x="239" y="378" type="line"/>
    </contour>
  </outline>
</glyph>
<glyph name="Y.serif" format="2">
  <advance width="625"/>
  <unicode hex="0059"/>
  <anchor x="256" y="0" name="bottom"/>
  <anchor x="408" y="714" name="top"/>
  <anchor x="700" y="714" name="topright"/>
  <outline>
    <contour>
      <point x="99" y="0" type="line"/>
      <point x="410" y="0" type="line"/>
      <point x="419" y="42" type="line"/>
      <point x="396" y="42" type="line" smooth="yes"/>
      <point x="354" y="42"/>
      <point x="324" y="48"/>
      <point x="324" y="82" type="curve" smooth="yes"/>
      <point x="324" y="88"/>
      <point x="326" y="102"/>
      <point x="328" y="110" type="curve" smooth="yes"/>
      <point x="367" y="291" type="line"/>
      <point x="600" y="596" type="line" smooth="yes"/>
      <point x="638" y="646"/>
      <point x="661" y="672"/>
      <point x="691" y="672" type="curve" smooth="yes"/>
      <point x="710" y="672" type="line"/>
      <point x="719" y="714" type="line"/>
      <point x="472" y="714" type="line"/>
      <point x="463" y="672" type="line"/>
      <point x="500" y="672" type="line" smooth="yes"/>
      <point x="536" y="672"/>
      <point x="548" y="664"/>
      <point x="548" y="646" type="curve" smooth="yes"/>
      <point x="548" y="625"/>
      <point x="537" y="600"/>
      <point x="512" y="566" type="curve" smooth="yes"/>
      <point x="419" y="442" type="line" smooth="yes"/>
      <point x="383" y="394"/>
      <point x="356" y="361"/>
      <point x="341" y="333" type="curve"/>
      <point x="339" y="366"/>
      <point x="328" y="412"/>
      <point x="314" y="453" type="curve" smooth="yes"/>
      <point x="269" y="587" type="line" smooth="yes"/>
      <point x="261" y="610"/>
      <point x="256" y="628"/>
      <point x="256" y="645" type="curve" smooth="yes"/>
      <point x="256" y="662"/>
      <point x="270" y="672"/>
      <point x="297" y="672" type="curve" smooth="yes"/>
      <point x="347" y="672" type="line"/>
      <point x="356" y="714" type="line"/>
      <point x="86" y="714" type="line"/>
      <point x="77" y="672" type="line"/>
      <point x="90" y="672" type="line" smooth="yes"/>
      <point x="129" y="672"/>
      <point x="136" y="657"/>
      <point x="150" y="619" type="curve" smooth="yes"/>
      <point x="266" y="293" type="line"/>
      <point x="227" y="109" type="line" smooth="yes"/>
      <point x="214" y="49"/>
      <point x="175" y="42"/>
      <point x="131" y="42" type="curve" smooth="yes"/>
      <point x="108" y="42" type="line"/>
    </contour>
  </outline>
</glyph>
<glyph name="Z" format="2">
  <advance width="531"/>
  <unicode hex="005A"/>
  <anchor x="215" y="0" name="bottom"/>
  <anchor x="361" y="714" name="top"/>
  <anchor x="606" y="714" name="topright"/>
  <outline>
    <contour>
      <point x="-10" y="0" type="line"/>
      <point x="434" y="0" type="line"/>
      <point x="450" y="80" type="line"/>
      <point x="115" y="80" type="line"/>
      <point x="560" y="643" type="line"/>
      <point x="573" y="714" type="line"/>
      <point x="151" y="714" type="line"/>
      <point x="134" y="634" type="line"/>
      <point x="449" y="634" type="line"/>
      <point x="4" y="70" type="line"/>
    </contour>
  </outline>
</glyph>
<glyph name="Z.serif" format="2">
  <advance width="605"/>
  <unicode hex="005A"/>
  <anchor x="246" y="0" name="bottom"/>
  <anchor x="398" y="714" name="top"/>
  <anchor x="680" y="714" name="topright"/>
  <outline>
    <contour>
      <point x="-17" y="0" type="line"/>
      <point x="511" y="0" type="line"/>
      <point x="553" y="175" type="line"/>
      <point x="501" y="175" type="line"/>
      <point x="487" y="132" type="line" smooth="yes"/>
      <point x="472" y="88"/>
      <point x="447" y="50"/>
      <point x="386" y="50" type="curve" smooth="yes"/>
      <point x="119" y="50" type="line"/>
      <point x="623" y="673" type="line"/>
      <point x="631" y="714" type="line"/>
      <point x="137" y="714" type="line"/>
      <point x="95" y="539" type="line"/>
      <point x="147" y="539" type="line"/>
      <point x="161" y="582" type="line" smooth="yes"/>
      <point x="176" y="626"/>
      <point x="201" y="664"/>
      <point x="261" y="664" type="curve" smooth="yes"/>
      <point x="494" y="664" type="line"/>
      <point x="-9" y="40" type="line"/>
    </contour>
  </outline>
</glyph>
<glyph name="bracketleft" format="2">
  <advance width="290"/>
  <unicode hex="005B"/>
  <outline>
    <contour>
      <point x="-9" y="-158" type="line"/>
      <point x="184" y="-158" type="line"/>
      <point x="200" y="-86" type="line"/>
      <point x="90" y="-86" type="line"/>
      <point x="244" y="642" type="line"/>
      <point x="354" y="642" type="line"/>
      <point x="370" y="714" type="line"/>
      <point x="177" y="714" type="line"/>
    </contour>
  </outline>
</glyph>
<glyph name="bracketright" format="2">
  <advance width="290"/>
  <unicode hex="005D"/>
  <outline>
    <contour>
      <point x="-72" y="-158" type="line"/>
      <point x="120" y="-158" type="line"/>
      <point x="306" y="714" type="line"/>
      <point x="113" y="714" type="line"/>
      <point x="97" y="642" type="line"/>
      <point x="207" y="642" type="line"/>
      <point x="53" y="-86" type="line"/>
      <point x="-57" y="-86" type="line"/>
    </contour>
  </outline>
</glyph>
<glyph name="grave" format="2">
  <advance width="278"/>
  <unicode hex="0060"/>
  <anchor x="238" y="536" name="_top"/>
  <outline>
    <contour>
      <point x="256" y="606" type="curve"/>
      <point x="310" y="606" type="line"/>
      <point x="310" y="618" type="line"/>
      <point x="283" y="663"/>
      <point x="255" y="717"/>
      <point x="240" y="766" type="curve"/>
      <point x="146" y="766" type="line"/>
      <point x="146" y="756" type="line"/>
      <point x="166" y="714"/>
      <point x="218" y="644"/>
    </contour>
  </outline>
</glyph>
<glyph name="grave.serif" format="2">
  <advance width="279"/>
  <unicode hex="0060"/>
  <outline>
    <contour>
      <point x="273" y="606" type="curve"/>
      <point x="311" y="606" type="line"/>
      <point x="314" y="619" type="line"/>
      <point x="292" y="660"/>
      <point x="262" y="725"/>
      <point x="247" y="766" type="curve"/>
      <point x="147" y="766" type="line"/>
      <point x="144" y="756" type="line"/>
      <point x="175" y="710"/>
      <point x="230" y="647"/>
    </contour>
  </outline>
</glyph>
<glyph name="a.serif" format="2">
  <advance width="579"/>
  <unicode hex="0061"/>
  <anchor x="233" y="0" name="bottom"/>
  <anchor x="347" y="536" name="top"/>
  <anchor x="616" y="536" name="topright"/>
  <outline>
    <contour>
      <point x="172" y="-10" type="curve" smooth="yes"/>
      <point x="251" y="-10"/>
      <point x="313" y="48"/>
      <point x="359" y="151" type="curve"/>
      <point x="365" y="151" type="line"/>
      <point x="358" y="118"/>
      <point x="355" y="100"/>
      <point x="355" y="73" type="curve" smooth="yes"/>
      <point x="355" y="21"/>
      <point x="385" y="-10"/>
      <point x="433" y="-10" type="curve"/>
      <point x="483" y="-10"/>
      <point x="545" y="24"/>
      <point x="574" y="50" type="curve"/>
      <point x="556" y="79" type="line"/>
      <point x="531" y="64"/>
      <point x="506" y="53"/>
      <point x="484" y="53" type="curve" smooth="yes"/>
      <point x="462" y="53"/>
      <point x="451" y="70"/>
      <point x="451" y="104" type="curve" smooth="yes"/>
      <point x="451" y="131"/>
      <point x="461" y="193"/>
      <point x="466" y="215" type="curve" smooth="yes"/>
      <point x="534" y="535" type="line"/>
      <point x="502" y="535" type="line"/>
      <point x="458" y="510" type="line"/>
      <point x="431" y="531"/>
      <point x="389" y="546"/>
      <point x="341" y="546" type="curve" smooth="yes"/>
      <point x="151" y="546"/>
      <point x="43" y="329"/>
      <point x="43" y="173" type="curve" smooth="yes"/>
      <point x="43" y="69"/>
      <point x="83" y="-10"/>
    </contour>
    <contour>
      <point x="208" y="53" type="curve" smooth="yes"/>
      <point x="172" y="53"/>
      <point x="145" y="86"/>
      <point x="145" y="169" type="curve" smooth="yes"/>
      <point x="145" y="290"/>
      <point x="214" y="501"/>
      <point x="346" y="501" type="curve" smooth="yes"/>
      <point x="377" y="501"/>
      <point x="407" y="489"/>
      <point x="422" y="465" type="curve"/>
      <point x="385" y="288" type="line" smooth="yes"/>
      <point x="361" y="173"/>
      <point x="277" y="53"/>
    </contour>
  </outline>
</glyph>
<glyph name="c.serif" format="2">
  <advance width="487"/>
  <unicode hex="0063"/>
  <anchor x="207" y="0" name="bottom"/>
  <anchor x="321" y="536" name="top"/>
  <anchor x="524" y="536" name="topright"/>
  <outline>
    <contour>
      <point x="238" y="-10" type="curve" smooth="yes"/>
      <point x="358" y="-10"/>
      <point x="411" y="56"/>
      <point x="411" y="100" type="curve" smooth="yes"/>
      <point x="411" y="111"/>
      <point x="407" y="121"/>
      <point x="401" y="125" type="curve"/>
      <point x="373" y="90"/>
      <point x="327" y="53"/>
      <point x="257" y="53" type="curve" smooth="yes"/>
      <point x="185" y="53"/>
      <point x="147" y="103"/>
      <point x="147" y="189" type="curve" smooth="yes"/>
      <point x="147" y="297"/>
      <point x="214" y="498"/>
      <point x="321" y="498" type="curve" smooth="yes"/>
      <point x="374" y="498"/>
      <point x="398" y="444"/>
      <point x="398" y="380" type="curve"/>
      <point x="455" y="380"/>
      <point x="487" y="412"/>
      <point x="487" y="450" type="curve" smooth="yes"/>
      <point x="487" y="499"/>
      <point x="441" y="546"/>
      <point x="341" y="546" type="curve" smooth="yes"/>
      <point x="147" y="546"/>
      <point x="43" y="345"/>
      <point x="43" y="197" type="curve" smooth="yes"/>
      <point x="43" y="58"/>
      <point x="131" y="-10"/>
    </contour>
  </outline>
</glyph>
<glyph name="g.serif" format="2">
  <advance width="556"/>
  <unicode hex="0067"/>
  <anchor x="170" y="-240" name="bottom"/>
  <anchor x="335" y="536" name="top"/>
  <anchor x="593" y="536" name="topright"/>
  <outline>
    <contour>
      <point x="183" y="-240" type="curve" smooth="yes"/>
      <point x="363" y="-240"/>
      <point x="454" y="-163"/>
      <point x="454" y="-43" type="curve" smooth="yes"/>
      <point x="454" y="37"/>
      <point x="398" y="78"/>
      <point x="299" y="88" type="curve" smooth="yes"/>
      <point x="203" y="98" type="line" smooth="yes"/>
      <point x="174" y="101"/>
      <point x="152" y="107"/>
      <point x="152" y="128" type="curve" smooth="yes"/>
      <point x="152" y="159"/>
      <point x="193" y="178"/>
      <point x="223" y="191" type="curve"/>
      <point x="233" y="189"/>
      <point x="244" y="189"/>
      <point x="255" y="189" type="curve" smooth="yes"/>
      <point x="413" y="189"/>
      <point x="484" y="323"/>
      <point x="484" y="413" type="curve" smooth="yes"/>
      <point x="484" y="444"/>
      <point x="476" y="470"/>
      <point x="462" y="490" type="curve"/>
      <point x="476" y="501"/>
      <point x="492" y="513"/>
      <point x="511" y="513" type="curve" smooth="yes"/>
      <point x="530" y="513"/>
      <point x="539" y="497"/>
      <point x="539" y="477" type="curve"/>
      <point x="584" y="477"/>
      <point x="598" y="510"/>
      <point x="598" y="539" type="curve" smooth="yes"/>
      <point x="598" y="566"/>
      <point x="581" y="585"/>
      <point x="548" y="585" type="curve" smooth="yes"/>
      <point x="503" y="585"/>
      <point x="466" y="553"/>
      <point x="440" y="514" type="curve"/>
      <point x="413" y="536"/>
      <point x="377" y="546"/>
      <point x="337" y="546" type="curve" smooth="yes"/>
      <point x="179" y="546"/>
      <point x="105" y="417"/>
      <point x="105" y="323" type="curve" smooth="yes"/>
      <point x="105" y="266"/>
      <point x="131" y="225"/>
      <point x="175" y="205" type="curve"/>
      <point x="104" y="169"/>
      <point x="80" y="145"/>
      <point x="80" y="103" type="curve" smooth="yes"/>
      <point x="80" y="71"/>
      <point x="102" y="46"/>
      <point x="128" y="34" type="curve"/>
      <point x="45" y="18"/>
      <point x="-35" y="-27"/>
      <point x="-35" y="-110" type="curve" smooth="yes"/>
      <point x="-35" y="-194"/>
      <point x="37" y="-240"/>
    </contour>
    <contour>
      <point x="187" y="-191" type="curve" smooth="yes"/>
      <point x="80" y="-191"/>
      <point x="46" y="-155"/>
      <point x="46" y="-104" type="curve" smooth="yes"/>
      <point x="46" y="-32"/>
      <point x="109" y="4"/>
      <point x="177" y="12" type="curve"/>
      <point x="274" y="3" type="line" smooth="yes"/>
      <point x="339" y="-3"/>
      <point x="367" y="-28"/>
      <point x="367" y="-71" type="curve"/>
      <point x="367" y="-135"/>
      <point x="318" y="-191"/>
    </contour>
    <contour>
      <point x="266" y="237" type="curve" smooth="yes"/>
      <point x="224" y="237"/>
      <point x="197" y="261"/>
      <point x="197" y="319" type="curve" smooth="yes"/>
      <point x="197" y="386"/>
      <point x="233" y="500"/>
      <point x="324" y="500" type="curve" smooth="yes"/>
      <point x="367" y="500"/>
      <point x="393" y="475"/>
      <point x="393" y="418" type="curve" smooth="yes"/>
      <point x="393" y="351"/>
      <point x="357" y="237"/>
    </contour>
  </outline>
</glyph>
<glyph name="h.serif" format="2">
  <advance width="599"/>
  <unicode hex="0068"/>
  <anchor x="243" y="0" name="bottom"/>
  <anchor x="357" y="268" name="center"/>
  <anchor x="405" y="760" name="top"/>
  <anchor x="684" y="760" name="topright"/>
  <outline>
    <contour>
      <point x="460" y="-10" type="curve" smooth="yes"/>
      <point x="512" y="-10"/>
      <point x="550" y="20"/>
      <point x="582" y="47" type="curve"/>
      <point x="564" y="76" type="line"/>
      <point x="541" y="61"/>
      <point x="521" y="53"/>
      <point x="500" y="53" type="curve" smooth="yes"/>
      <point x="478" y="53"/>
      <point x="465" y="70"/>
      <point x="465" y="101" type="curve" smooth="yes"/>
      <point x="465" y="131"/>
      <point x="470" y="169"/>
      <point x="478" y="206" type="curve" smooth="yes"/>
      <point x="504" y="324" type="line" smooth="yes"/>
      <point x="511" y="358"/>
      <point x="522" y="401"/>
      <point x="522" y="434" type="curve" smooth="yes"/>
      <point x="522" y="493"/>
      <point x="494" y="545"/>
      <point x="415" y="545" type="curve" smooth="yes"/>
      <point x="340" y="545"/>
      <point x="284" y="498"/>
      <point x="230" y="410" type="curve"/>
      <point x="219" y="410" type="line"/>
      <point x="226" y="435"/>
      <point x="244" y="505"/>
      <point x="259" y="576" type="curve" smooth="yes"/>
      <point x="298" y="760" type="line"/>
      <point x="114" y="760" type="line"/>
      <point x="105" y="718" type="line"/>
      <point x="113" y="718" type="line" smooth="yes"/>
      <point x="151" y="718"/>
      <point x="183" y="711"/>
      <point x="183" y="671" type="curve" smooth="yes"/>
      <point x="183" y="665"/>
      <point x="180" y="645"/>
      <point x="174" y="618" type="curve" smooth="yes"/>
      <point x="44" y="0" type="line"/>
      <point x="137" y="0" type="line"/>
      <point x="191" y="256" type="line" smooth="yes"/>
      <point x="208" y="337"/>
      <point x="296" y="481"/>
      <point x="380" y="481" type="curve" smooth="yes"/>
      <point x="419" y="481"/>
      <point x="426" y="448"/>
      <point x="426" y="422" type="curve" smooth="yes"/>
      <point x="426" y="387"/>
      <point x="411" y="330"/>
      <point x="405" y="303" type="curve" smooth="yes"/>
      <point x="388" y="225" type="line" smooth="yes"/>
      <point x="375" y="164"/>
      <point x="369" y="122"/>
      <point x="369" y="90" type="curve" smooth="yes"/>
      <point x="369" y="32"/>
      <point x="401" y="-10"/>
    </contour>
  </outline>
</glyph>
<glyph name="i.serif" format="2">
  <advance width="304"/>
  <unicode hex="0069"/>
  <anchor x="95" y="0" name="bottom"/>
  <anchor x="257" y="761" name="top"/>
  <anchor x="389" y="761" name="topright"/>
  <outline>
    <contour>
      <point x="155" y="-10" type="curve" smooth="yes"/>
      <point x="205" y="-10"/>
      <point x="261" y="24"/>
      <point x="290" y="50" type="curve"/>
      <point x="272" y="79" type="line"/>
      <point x="247" y="64"/>
      <point x="222" y="53"/>
      <point x="200" y="53" type="curve" smooth="yes"/>
      <point x="178" y="53"/>
      <point x="167" y="70"/>
      <point x="167" y="104" type="curve" smooth="yes"/>
      <point x="167" y="131"/>
      <point x="177" y="193"/>
      <point x="182" y="215" type="curve" smooth="yes"/>
      <point x="250" y="536" type="line"/>
      <point x="71" y="536" type="line"/>
      <point x="62" y="494" type="line"/>
      <point x="75" y="494" type="line" smooth="yes"/>
      <point x="112" y="494"/>
      <point x="136" y="488"/>
      <point x="136" y="452" type="curve" smooth="yes"/>
      <point x="136" y="445"/>
      <point x="135" y="436"/>
      <point x="133" y="426" type="curve" smooth="yes"/>
      <point x="94" y="242" type="line" smooth="yes"/>
      <point x="86" y="203"/>
      <point x="72" y="126"/>
      <point x="72" y="85" type="curve"/>
      <point x="72" y="33"/>
      <point x="102" y="-10"/>
    </contour>
    <contour>
      <point x="224" y="636" type="curve" smooth="yes"/>
      <point x="253" y="636"/>
      <point x="284" y="654"/>
      <point x="284" y="706" type="curve" smooth="yes"/>
      <point x="284" y="743"/>
      <point x="260" y="761"/>
      <point x="228" y="761" type="curve" smooth="yes"/>
      <point x="192" y="761"/>
      <point x="168" y="733"/>
      <point x="168" y="691" type="curve" smooth="yes"/>
      <point x="168" y="654"/>
      <point x="191" y="636"/>
    </contour>
  </outline>
</glyph>
<glyph name="j.serif" format="2">
  <advance width="291"/>
  <unicode hex="006A"/>
  <anchor x="-82" y="-240" name="bottom"/>
  <anchor x="251" y="761" name="top"/>
  <anchor x="376" y="761" name="topright"/>
  <outline>
    <contour>
      <point x="-82" y="-240" type="curve" smooth="yes"/>
      <point x="26" y="-240"/>
      <point x="98" y="-186"/>
      <point x="136" y="-8" type="curve" smooth="yes"/>
      <point x="251" y="536" type="line"/>
      <point x="72" y="536" type="line"/>
      <point x="63" y="494" type="line"/>
      <point x="76" y="494" type="line" smooth="yes"/>
      <point x="113" y="494"/>
      <point x="137" y="488"/>
      <point x="137" y="452" type="curve" smooth="yes"/>
      <point x="137" y="445"/>
      <point x="136" y="436"/>
      <point x="134" y="426" type="curve" smooth="yes"/>
      <point x="42" y="-8" type="line" smooth="yes"/>
      <point x="14" y="-141"/>
      <point x="-20" y="-193"/>
      <point x="-85" y="-193" type="curve" smooth="yes"/>
      <point x="-100" y="-193"/>
      <point x="-120" y="-189"/>
      <point x="-131" y="-186" type="curve"/>
      <point x="-140" y="-232" type="line"/>
      <point x="-127" y="-236"/>
      <point x="-102" y="-240"/>
    </contour>
    <contour>
      <point x="225" y="636" type="curve" smooth="yes"/>
      <point x="254" y="636"/>
      <point x="285" y="654"/>
      <point x="285" y="706" type="curve" smooth="yes"/>
      <point x="285" y="743"/>
      <point x="261" y="761"/>
      <point x="229" y="761" type="curve" smooth="yes"/>
      <point x="193" y="761"/>
      <point x="169" y="733"/>
      <point x="169" y="691" type="curve" smooth="yes"/>
      <point x="169" y="654"/>
      <point x="192" y="636"/>
    </contour>
  </outline>
</glyph>
<glyph name="k.serif" format="2">
  <advance width="569"/>
  <unicode hex="006B"/>
  <anchor x="228" y="0" name="bottom"/>
  <anchor x="390" y="760" name="top"/>
  <anchor x="554" y="860" name="topright"/>
  <outline>
    <contour>
      <point x="515" y="-7" type="curve" smooth="yes"/>
      <point x="522" y="-7" type="line"/>
      <point x="531" y="35" type="line"/>
      <point x="479" y="35"/>
      <point x="451" y="70"/>
      <point x="429" y="119" type="curve" smooth="yes"/>
      <point x="319" y="358" type="line"/>
      <point x="305" y="286" type="line"/>
      <point x="429" y="401" type="line" smooth="yes"/>
      <point x="494" y="460"/>
      <point x="544" y="494"/>
      <point x="590" y="494" type="curve"/>
      <point x="599" y="536" type="line"/>
      <point x="378" y="536" type="line"/>
      <point x="369" y="494" type="line"/>
      <point x="402" y="494"/>
      <point x="413" y="491"/>
      <point x="413" y="474" type="curve" smooth="yes"/>
      <point x="413" y="455"/>
      <point x="394" y="432"/>
      <point x="340" y="385" type="curve" smooth="yes"/>
      <point x="181" y="247" type="line"/>
      <point x="202" y="316"/>
      <point x="244" y="505"/>
      <point x="259" y="576" type="curve" smooth="yes"/>
      <point x="298" y="760" type="line"/>
      <point x="114" y="760" type="line"/>
      <point x="105" y="718" type="line"/>
      <point x="113" y="718" type="line" smooth="yes"/>
      <point x="151" y="718"/>
      <point x="183" y="711"/>
      <point x="183" y="671" type="curve" smooth="yes"/>
      <point x="183" y="665"/>
      <point x="180" y="645"/>
      <point x="174" y="618" type="curve" smooth="yes"/>
      <point x="44" y="0" type="line"/>
      <point x="137" y="0" type="line"/>
      <point x="178" y="198" type="line"/>
      <point x="307" y="280" type="line"/>
      <point x="252" y="298" type="line"/>
      <point x="334" y="96" type="line" smooth="yes"/>
      <point x="366" y="16"/>
      <point x="406" y="-6"/>
    </contour>
  </outline>
</glyph>
<glyph name="l" format="2">
  <advance width="258"/>
  <unicode hex="006C"/>
  <anchor x="72" y="0" name="bottom"/>
  <anchor x="186" y="268" name="center"/>
  <anchor x="231" y="760" name="top"/>
  <anchor x="298" y="760" name="topright"/>
  <outline>
    <contour>
      <point x="27" y="0" type="line"/>
      <point x="115" y="0" type="line"/>
      <point x="277" y="760" type="line"/>
      <point x="189" y="760" type="line"/>
    </contour>
  </outline>
</glyph>
<glyph name="l.serif" format="2">
  <advance width="304"/>
  <unicode hex="006C"/>
  <anchor x="95" y="0" name="bottom"/>
  <anchor x="209" y="268" name="center"/>
  <anchor x="257" y="760" name="top"/>
  <anchor x="389" y="760" name="topright"/>
  <outline>
    <contour>
      <point x="156" y="-10" type="curve" smooth="yes"/>
      <point x="206" y="-10"/>
      <point x="261" y="24"/>
      <point x="290" y="50" type="curve"/>
      <point x="272" y="79" type="line"/>
      <point x="247" y="64"/>
      <point x="222" y="53"/>
      <point x="200" y="53" type="curve" smooth="yes"/>
      <point x="178" y="53"/>
      <point x="167" y="70"/>
      <point x="167" y="104" type="curve" smooth="yes"/>
      <point x="167" y="131"/>
      <point x="178" y="193"/>
      <point x="183" y="215" type="curve" smooth="yes"/>
      <point x="299" y="760" type="line"/>
      <point x="110" y="760" type="line"/>
      <point x="101" y="718" type="line"/>
      <point x="113" y="718" type="line" smooth="yes"/>
      <point x="151" y="718"/>
      <point x="183" y="711"/>
      <point x="183" y="671" type="curve" smooth="yes"/>
      <point x="183" y="665"/>
      <point x="181" y="645"/>
      <point x="177" y="626" type="curve" smooth="yes"/>
      <point x="95" y="242" type="line" smooth="yes"/>
      <point x="87" y="203"/>
      <point x="73" y="126"/>
      <point x="73" y="85" type="curve" smooth="yes"/>
      <point x="73" y="33"/>
      <point x="103" y="-10"/>
    </contour>
  </outline>
</glyph>
<glyph name="n" format="2">
  <advance width="579"/>
  <unicode hex="006E"/>
  <anchor x="235" y="0" name="bottom"/>
  <anchor x="349" y="536" name="top"/>
  <anchor x="616" y="536" name="topright"/>
  <outline>
    <contour>
      <point x="24" y="0" type="line"/>
      <point x="118" y="0" type="line"/>
      <point x="168" y="231" type="line" smooth="yes"/>
      <point x="206" y="406"/>
      <point x="297" y="469"/>
      <point x="364" y="469" type="curve" smooth="yes"/>
      <point x="409" y="469"/>
      <point x="432" y="447"/>
      <point x="432" y="405" type="curve" smooth="yes"/>
      <point x="432" y="386"/>
      <point x="428" y="367"/>
      <point x="422" y="337" type="curve" smooth="yes"/>
      <point x="350" y="0" type="line"/>
      <point x="444" y="0" type="line"/>
      <point x="515" y="325" type="line" smooth="yes"/>
      <point x="520" y="349"/>
      <point x="526" y="383"/>
      <point x="526" y="414" type="curve" smooth="yes"/>
      <point x="526" y="499"/>
      <point x="474" y="549"/>
      <point x="388" y="549" type="curve" smooth="yes"/>
      <point x="301" y="549"/>
      <point x="244" y="489"/>
      <point x="207" y="440" type="curve"/>
      <point x="206" y="440" type="line"/>
      <point x="217" y="539" type="line"/>
      <point x="139" y="539" type="line"/>
    </contour>
  </outline>
</glyph>
<glyph name="n.serif" format="2">
  <advance width="599"/>
  <unicode hex="006E"/>
  <anchor x="243" y="0" name="bottom"/>
  <anchor x="357" y="536" name="top"/>
  <anchor x="636" y="536" name="topright"/>
  <outline>
    <contour>
      <point x="460" y="-10" type="curve" smooth="yes"/>
      <point x="512" y="-10"/>
      <point x="550" y="20"/>
      <point x="582" y="47" type="curve"/>
      <point x="564" y="76" type="line"/>
      <point x="541" y="61"/>
      <point x="521" y="53"/>
      <point x="500" y="53" type="curve" smooth="yes"/>
      <point x="478" y="53"/>
      <point x="465" y="70"/>
      <point x="465" y="101" type="curve" smooth="yes"/>
      <point x="465" y="131"/>
      <point x="470" y="169"/>
      <point x="478" y="206" type="curve" smooth="yes"/>
      <point x="504" y="324" type="line" smooth="yes"/>
      <point x="511" y="358"/>
      <point x="522" y="401"/>
      <point x="522" y="434" type="curve" smooth="yes"/>
      <point x="522" y="493"/>
      <point x="494" y="545"/>
      <point x="415" y="545" type="curve" smooth="yes"/>
      <point x="340" y="545"/>
      <point x="287" y="498"/>
      <point x="233" y="410" type="curve"/>
      <point x="223" y="410" type="line"/>
      <point x="250" y="536" type="line"/>
      <point x="65" y="536" type="line"/>
      <point x="56" y="494" type="line"/>
      <point x="64" y="494" type="line" smooth="yes"/>
      <point x="102" y="494"/>
      <point x="134" y="487"/>
      <point x="134" y="447" type="curve" smooth="yes"/>
      <point x="134" y="441"/>
      <point x="132" y="421"/>
      <point x="128" y="402" type="curve" smooth="yes"/>
      <point x="44" y="0" type="line"/>
      <point x="137" y="0" type="line"/>
      <point x="191" y="256" type="line" smooth="yes"/>
      <point x="208" y="337"/>
      <point x="296" y="481"/>
      <point x="380" y="481" type="curve" smooth="yes"/>
      <point x="419" y="481"/>
      <point x="426" y="448"/>
      <point x="426" y="422" type="curve" smooth="yes"/>
      <point x="426" y="387"/>
      <point x="411" y="330"/>
      <point x="405" y="303" type="curve" smooth="yes"/>
      <point x="388" y="225" type="line" smooth="yes"/>
      <point x="375" y="164"/>
      <point x="369" y="122"/>
      <point x="369" y="90" type="curve" smooth="yes"/>
      <point x="369" y="32"/>
      <point x="401" y="-10"/>
    </contour>
  </outline>
</glyph>
<glyph name="o.serif" format="2">
  <advance width="574"/>
  <unicode hex="006F"/>
  <anchor x="230" y="0" name="bottom"/>
  <anchor x="344" y="268" name="center"/>
  <anchor x="344" y="536" name="top"/>
  <anchor x="611" y="536" name="topright"/>
  <outline>
    <contour>
      <point x="235" y="-10" type="curve" smooth="yes"/>
      <point x="440" y="-10"/>
      <point x="531" y="197"/>
      <point x="531" y="339" type="curve" smooth="yes"/>
      <point x="531" y="486"/>
      <point x="446" y="546"/>
      <point x="341" y="546" type="curve" smooth="yes"/>
      <point x="138" y="546"/>
      <point x="43" y="345"/>
      <point x="43" y="197" type="curve" smooth="yes"/>
      <point x="43" y="58"/>
      <point x="122" y="-10"/>
    </contour>
    <contour>
      <point x="246" y="41" type="curve" smooth="yes"/>
      <point x="186" y="41"/>
      <point x="147" y="78"/>
      <point x="147" y="179" type="curve" smooth="yes"/>
      <point x="147" y="299"/>
      <point x="199" y="495"/>
      <point x="329" y="495" type="curve" smooth="yes"/>
      <point x="390" y="495"/>
      <point x="427" y="456"/>
      <point x="427" y="356" type="curve" smooth="yes"/>
      <point x="427" y="236"/>
      <point x="376" y="41"/>
    </contour>
  </outline>
</glyph>
<glyph name="p.serif" format="2">
  <advance width="577"/>
  <unicode hex="0070"/>
  <anchor x="71" y="-240" name="bottom"/>
  <anchor x="346" y="536" name="top"/>
  <anchor x="594" y="536" name="topright"/>
  <outline>
    <contour>
      <point x="126" y="394" type="curve" smooth="yes"/>
      <point x="-7" y="-240" type="line"/>
      <point x="181" y="-240" type="line"/>
      <point x="190" y="-198" type="line"/>
      <point x="177" y="-198" type="line" smooth="yes"/>
      <point x="139" y="-198"/>
      <point x="107" y="-192"/>
      <point x="107" y="-152" type="curve" smooth="yes"/>
      <point x="107" y="-137"/>
      <point x="114" y="-104"/>
      <point x="116" y="-96" type="curve" smooth="yes"/>
      <point x="130" y="-35" type="line" smooth="yes"/>
      <point x="134" y="-19"/>
      <point x="137" y="2"/>
      <point x="138" y="13" type="curve"/>
      <point x="163" y="-1"/>
      <point x="197" y="-10"/>
      <point x="236" y="-10" type="curve" smooth="yes"/>
      <point x="436" y="-10"/>
      <point x="534" y="221"/>
      <point x="534" y="365" type="curve" smooth="yes"/>
      <point x="534" y="482"/>
      <point x="488" y="546"/>
      <point x="407" y="546" type="curve" smooth="yes"/>
      <point x="318" y="546"/>
      <point x="264" y="481"/>
      <point x="224" y="403" type="curve"/>
      <point x="219" y="403" type="line"/>
      <point x="243" y="536" type="line"/>
      <point x="66" y="536" type="line"/>
      <point x="57" y="494" type="line"/>
      <point x="65" y="494" type="line" smooth="yes"/>
      <point x="103" y="494"/>
      <point x="135" y="487"/>
      <point x="135" y="447" type="curve" smooth="yes"/>
      <point x="135" y="441"/>
      <point x="132" y="421"/>
    </contour>
    <contour>
      <point x="233" y="35" type="curve" smooth="yes"/>
      <point x="196" y="35"/>
      <point x="166" y="56"/>
      <point x="154" y="71" type="curve"/>
      <point x="195" y="261" type="line" smooth="yes"/>
      <point x="214" y="348"/>
      <point x="291" y="483"/>
      <point x="369" y="483" type="curve" smooth="yes"/>
      <point x="418" y="483"/>
      <point x="432" y="424"/>
      <point x="432" y="366" type="curve" smooth="yes"/>
      <point x="432" y="243"/>
      <point x="360" y="35"/>
    </contour>
  </outline>
</glyph>
<glyph name="q.serif" format="2">
  <advance width="560"/>
  <unicode hex="0071"/>
  <anchor x="172" y="-240" name="bottom"/>
  <anchor x="337" y="536" name="top"/>
  <anchor x="597" y="536" name="topright"/>
  <outline>
    <contour>
      <point x="321" y="-40" type="curve" smooth="yes"/>
      <point x="279" y="-240" type="line"/>
      <point x="461" y="-240" type="line"/>
      <point x="470" y="-198" type="line"/>
      <point x="462" y="-198" type="line" smooth="yes"/>
      <point x="424" y="-198"/>
      <point x="393" y="-191"/>
      <point x="393" y="-151" type="curve" smooth="yes"/>
      <point x="393" y="-145"/>
      <point x="395" y="-125"/>
      <point x="399" y="-106" type="curve" smooth="yes"/>
      <point x="537" y="546" type="line"/>
      <point x="502" y="546" type="line"/>
      <point x="452" y="519" type="line"/>
      <point x="425" y="535"/>
      <point x="377" y="546"/>
      <point x="341" y="546" type="curve" smooth="yes"/>
      <point x="151" y="546"/>
      <point x="43" y="329"/>
      <point x="43" y="173" type="curve" smooth="yes"/>
      <point x="43" y="53"/>
      <point x="94" y="-10"/>
      <point x="172" y="-10" type="curve" smooth="yes"/>
      <point x="265" y="-10"/>
      <point x="321" y="68"/>
      <point x="359" y="151" type="curve"/>
      <point x="365" y="151" type="line"/>
      <point x="360" y="128"/>
      <point x="330" y="5"/>
    </contour>
    <contour>
      <point x="208" y="53" type="curve" smooth="yes"/>
      <point x="172" y="53"/>
      <point x="145" y="85"/>
      <point x="145" y="168" type="curve" smooth="yes"/>
      <point x="145" y="278"/>
      <point x="210" y="501"/>
      <point x="346" y="501" type="curve" smooth="yes"/>
      <point x="383" y="501"/>
      <point x="412" y="484"/>
      <point x="422" y="465" type="curve"/>
      <point x="385" y="288" type="line" smooth="yes"/>
      <point x="362" y="178"/>
      <point x="279" y="53"/>
    </contour>
  </outline>
</glyph>
<glyph name="r.serif" format="2">
  <advance width="468"/>
  <unicode hex="0072"/>
  <anchor x="90" y="0" name="bottom"/>
  <anchor x="291" y="536" name="top"/>
  <anchor x="505" y="536" name="topright"/>
  <outline>
    <contour>
      <point x="128" y="402" type="curve" smooth="yes"/>
      <point x="44" y="0" type="line"/>
      <point x="137" y="0" type="line"/>
      <point x="175" y="182" type="line" smooth="yes"/>
      <point x="204" y="316"/>
      <point x="281" y="480"/>
      <point x="350" y="480" type="curve" smooth="yes"/>
      <point x="382" y="480"/>
      <point x="390" y="449"/>
      <point x="390" y="401" type="curve"/>
      <point x="448" y="401"/>
      <point x="473" y="430"/>
      <point x="473" y="477" type="curve" smooth="yes"/>
      <point x="473" y="517"/>
      <point x="447" y="546"/>
      <point x="391" y="546" type="curve" smooth="yes"/>
      <point x="300" y="546"/>
      <point x="259" y="474"/>
      <point x="221" y="392" type="curve"/>
      <point x="211" y="392" type="line"/>
      <point x="232" y="536" type="line"/>
      <point x="55" y="536" type="line"/>
      <point x="46" y="494" type="line"/>
      <point x="54" y="494" type="line" smooth="yes"/>
      <point x="92" y="494"/>
      <point x="134" y="487"/>
      <point x="134" y="447" type="curve" smooth="yes"/>
      <point x="134" y="441"/>
      <point x="132" y="421"/>
    </contour>
  </outline>
</glyph>
<glyph name="t.serif" format="2">
  <advance width="368"/>
  <unicode hex="0074"/>
  <anchor x="127" y="0" name="bottom"/>
  <anchor x="181" y="268" name="center"/>
  <anchor x="267" y="659" name="top"/>
  <anchor x="335" y="980" name="topright"/>
  <outline>
    <contour>
      <point x="183" y="-10" type="curve" smooth="yes"/>
      <point x="233" y="-10"/>
      <point x="278" y="10"/>
      <point x="318" y="38" type="curve"/>
      <point x="301" y="75" type="line"/>
      <point x="279" y="63"/>
      <point x="247" y="53"/>
      <point x="219" y="53" type="curve" smooth="yes"/>
      <point x="186" y="53"/>
      <point x="166" y="69"/>
      <point x="166" y="108" type="curve" smooth="yes"/>
      <point x="166" y="129"/>
      <point x="171" y="161"/>
      <point x="178" y="194" type="curve" smooth="yes"/>
      <point x="239" y="479" type="line"/>
      <point x="360" y="479" type="line"/>
      <point x="372" y="536" type="line"/>
      <point x="251" y="536" type="line"/>
      <point x="277" y="659" type="line"/>
      <point x="231" y="659" type="line"/>
      <point x="191" y="556"/>
      <point x="135" y="519"/>
      <point x="78" y="519" type="curve"/>
      <point x="69" y="479" type="line"/>
      <point x="145" y="479" type="line"/>
      <point x="84" y="191" type="line" smooth="yes"/>
      <point x="79" y="166"/>
      <point x="74" y="131"/>
      <point x="74" y="107" type="curve" smooth="yes"/>
      <point x="74" y="28"/>
      <point x="111" y="-10"/>
    </contour>
  </outline>
</glyph>
<glyph name="u.serif" format="2">
  <advance width="599"/>
  <unicode hex="0075"/>
  <anchor x="243" y="0" name="bottom"/>
  <anchor x="357" y="536" name="top"/>
  <anchor x="636" y="536" name="topright"/>
  <outline>
    <contour>
      <point x="456" y="-10" type="curve" smooth="yes"/>
      <point x="506" y="-10"/>
      <point x="554" y="20"/>
      <point x="583" y="46" type="curve"/>
      <point x="565" y="75" type="line"/>
      <point x="540" y="60"/>
      <point x="523" y="53"/>
      <point x="501" y="53" type="curve" smooth="yes"/>
      <point x="479" y="53"/>
      <point x="468" y="70"/>
      <point x="468" y="104" type="curve" smooth="yes"/>
      <point x="468" y="131"/>
      <point x="478" y="193"/>
      <point x="483" y="215" type="curve" smooth="yes"/>
      <point x="552" y="536" type="line"/>
      <point x="455" y="536" type="line"/>
      <point x="403" y="287" type="line" smooth="yes"/>
      <point x="380" y="178"/>
      <point x="286" y="55"/>
      <point x="215" y="55" type="curve" smooth="yes"/>
      <point x="176" y="55"/>
      <point x="166" y="83"/>
      <point x="166" y="116" type="curve" smooth="yes"/>
      <point x="166" y="145"/>
      <point x="178" y="201"/>
      <point x="186" y="237" type="curve" smooth="yes"/>
      <point x="252" y="536" type="line"/>
      <point x="66" y="536" type="line"/>
      <point x="57" y="494" type="line"/>
      <point x="65" y="494" type="line" smooth="yes"/>
      <point x="103" y="494"/>
      <point x="135" y="487"/>
      <point x="135" y="447" type="curve" smooth="yes"/>
      <point x="135" y="441"/>
      <point x="130" y="406"/>
      <point x="126" y="387" type="curve" smooth="yes"/>
      <point x="87" y="212" type="line" smooth="yes"/>
      <point x="79" y="178"/>
      <point x="69" y="135"/>
      <point x="69" y="102" type="curve" smooth="yes"/>
      <point x="69" y="43"/>
      <point x="97" y="-9"/>
      <point x="176" y="-9" type="curve" smooth="yes"/>
      <point x="266" y="-9"/>
      <point x="313" y="53"/>
      <point x="369" y="144" type="curve"/>
      <point x="377" y="144" type="line"/>
      <point x="374" y="122"/>
      <point x="372" y="100"/>
      <point x="372" y="85" type="curve" smooth="yes"/>
      <point x="372" y="33"/>
      <point x="403" y="-10"/>
    </contour>
  </outline>
</glyph>
<glyph name="v" format="2">
  <advance width="467"/>
  <unicode hex="0076"/>
  <anchor x="172" y="0" name="bottom"/>
  <anchor x="272" y="536" name="top"/>
  <anchor x="504" y="536" name="topright"/>
  <outline>
    <contour>
      <point x="110" y="0" type="line"/>
      <point x="225" y="0" type="line"/>
      <point x="515" y="536" type="line"/>
      <point x="421" y="536" type="line"/>
      <point x="263" y="241" type="line"/>
      <point x="240" y="198"/>
      <point x="202" y="116"/>
      <point x="180" y="67" type="curve"/>
      <point x="177" y="67" type="line"/>
      <point x="177" y="95"/>
      <point x="172" y="185"/>
      <point x="166" y="238" type="curve" smooth="yes"/>
      <point x="136" y="536" type="line"/>
      <point x="48" y="536" type="line"/>
    </contour>
  </outline>
</glyph>
<glyph name="v.serif" format="2">
  <advance width="538"/>
  <unicode hex="0076"/>
  <anchor x="212" y="0" name="bottom"/>
  <anchor x="326" y="536" name="top"/>
  <anchor x="575" y="536" name="topright"/>
  <outline>
    <contour>
      <point x="96" y="441" type="curve" smooth="yes"/>
      <point x="166" y="-9" type="line"/>
      <point x="256" y="1" type="line"/>
      <point x="347" y="92"/>
      <point x="505" y="291"/>
      <point x="505" y="448" type="curve" smooth="yes"/>
      <point x="505" y="514"/>
      <point x="479" y="541"/>
      <point x="437" y="541" type="curve" smooth="yes"/>
      <point x="405" y="541"/>
      <point x="369" y="516"/>
      <point x="369" y="461" type="curve"/>
      <point x="406" y="461"/>
      <point x="431" y="431"/>
      <point x="431" y="385" type="curve" smooth="yes"/>
      <point x="431" y="304"/>
      <point x="344" y="156"/>
      <point x="247" y="63" type="curve"/>
      <point x="244" y="63" type="line"/>
      <point x="241" y="96"/>
      <point x="231" y="173"/>
      <point x="221" y="240" type="curve" smooth="yes"/>
      <point x="175" y="536" type="line"/>
      <point x="25" y="536" type="line"/>
      <point x="17" y="494" type="line"/>
      <point x="27" y="494" type="line" smooth="yes"/>
      <point x="66" y="494"/>
      <point x="89" y="483"/>
    </contour>
  </outline>
</glyph>
<glyph name="x.serif" format="2">
  <advance width="546"/>
  <unicode hex="0078"/>
  <anchor x="216" y="0" name="bottom"/>
  <anchor x="330" y="536" name="top"/>
  <anchor x="583" y="536" name="topright"/>
  <outline>
    <contour>
      <point x="-20" y="0" type="line"/>
      <point x="107" y="0" type="line"/>
      <point x="257" y="220" type="line"/>
      <point x="338" y="0" type="line"/>
      <point x="472" y="0" type="line"/>
      <point x="480" y="42" type="line"/>
      <point x="467" y="42" type="line" smooth="yes"/>
      <point x="428" y="42"/>
      <point x="416" y="56"/>
      <point x="395" y="114" type="curve" smooth="yes"/>
      <point x="326" y="287" type="line"/>
      <point x="431" y="422" type="line" smooth="yes"/>
      <point x="478" y="480"/>
      <point x="496" y="494"/>
      <point x="535" y="494" type="curve" smooth="yes"/>
      <point x="548" y="494" type="line"/>
      <point x="559" y="536" type="line"/>
      <point x="436" y="536" type="line"/>
      <point x="303" y="334" type="line"/>
      <point x="227" y="536" type="line"/>
      <point x="94" y="536" type="line"/>
      <point x="86" y="494" type="line"/>
      <point x="99" y="494" type="line" smooth="yes"/>
      <point x="138" y="494"/>
      <point x="147" y="479"/>
      <point x="171" y="422" type="curve" smooth="yes"/>
      <point x="236" y="266" type="line"/>
      <point x="108" y="111" type="line" smooth="yes"/>
      <point x="61" y="53"/>
      <point x="42" y="42"/>
      <point x="4" y="42" type="curve" smooth="yes"/>
      <point x="-9" y="42" type="line"/>
    </contour>
  </outline>
</glyph>
<glyph name="y.serif" format="2">
  <advance width="528"/>
  <unicode hex="0079"/>
  <anchor x="46" y="-240" name="bottom"/>
  <anchor x="291" y="536" name="top"/>
  <anchor x="545" y="536" name="topright"/>
  <outline>
    <contour>
      <point x="-68" y="-240" type="curve" smooth="yes"/>
      <point x="118" y="-240"/>
      <point x="190" y="-146"/>
      <point x="321" y="57" type="curve"/>
      <point x="428" y="220"/>
      <point x="497" y="357"/>
      <point x="497" y="461" type="curve" smooth="yes"/>
      <point x="497" y="517"/>
      <point x="471" y="545"/>
      <point x="429" y="545" type="curve" smooth="yes"/>
      <point x="397" y="545"/>
      <point x="364" y="519"/>
      <point x="364" y="471" type="curve"/>
      <point x="401" y="471"/>
      <point x="413" y="445"/>
      <point x="413" y="417" type="curve" smooth="yes"/>
      <point x="413" y="326"/>
      <point x="354" y="200"/>
      <point x="278" y="85" type="curve"/>
      <point x="275" y="85" type="line"/>
      <point x="272" y="118"/>
      <point x="248" y="214"/>
      <point x="233" y="266" type="curve" smooth="yes"/>
      <point x="155" y="536" type="line"/>
      <point x="9" y="536" type="line"/>
      <point x="1" y="494" type="line"/>
      <point x="11" y="494" type="line" smooth="yes"/>
      <point x="50" y="494"/>
      <point x="68" y="481"/>
      <point x="80" y="441" type="curve" smooth="yes"/>
      <point x="212" y="-1" type="line"/>
      <point x="152" y="-78"/>
      <point x="62" y="-183"/>
      <point x="-69" y="-183" type="curve" smooth="yes"/>
      <point x="-110" y="-183"/>
      <point x="-131" y="-177"/>
      <point x="-147" y="-172" type="curve"/>
      <point x="-162" y="-222" type="line"/>
      <point x="-137" y="-233"/>
      <point x="-102" y="-240"/>
    </contour>
  </outline>
</glyph>
<glyph name="braceleft" format="2">
  <advance width="350"/>
  <unicode hex="007B"/>
  <outline>
    <contour>
      <point x="217" y="-158" type="curve" smooth="yes"/>
      <point x="230" y="-158" type="line"/>
      <point x="230" y="-85" type="line"/>
      <point x="184" y="-85"/>
      <point x="155" y="-75"/>
      <point x="155" y="-36" type="curve" smooth="yes"/>
      <point x="155" y="-23"/>
      <point x="158" y="-7"/>
      <point x="162" y="10" type="curve" smooth="yes"/>
      <point x="184" y="112" type="line"/>
      <point x="189" y="133"/>
      <point x="193" y="157"/>
      <point x="193" y="175" type="curve" smooth="yes"/>
      <point x="193" y="227"/>
      <point x="170" y="265"/>
      <point x="118" y="279" type="curve"/>
      <point x="118" y="281" type="line"/>
      <point x="196" y="294"/>
      <point x="230" y="340"/>
      <point x="245" y="408" type="curve" smooth="yes"/>
      <point x="280" y="564" type="line"/>
      <point x="294" y="627"/>
      <point x="326" y="641"/>
      <point x="385" y="641" type="curve"/>
      <point x="400" y="714" type="line"/>
      <point x="382" y="714" type="line"/>
      <point x="271" y="714"/>
      <point x="221" y="677"/>
      <point x="199" y="572" type="curve" smooth="yes"/>
      <point x="166" y="415" type="line"/>
      <point x="152" y="347"/>
      <point x="105" y="322"/>
      <point x="28" y="322" type="curve"/>
      <point x="11" y="249" type="line"/>
      <point x="78" y="249"/>
      <point x="113" y="226"/>
      <point x="113" y="179" type="curve" smooth="yes"/>
      <point x="113" y="163"/>
      <point x="110" y="146"/>
      <point x="106" y="125" type="curve" smooth="yes"/>
      <point x="82" y="20" type="line"/>
      <point x="76" y="-5"/>
      <point x="72" y="-27"/>
      <point x="72" y="-48" type="curve" smooth="yes"/>
      <point x="72" y="-124"/>
      <point x="123" y="-158"/>
    </contour>
  </outline>
</glyph>
<glyph name="braceright" format="2">
  <advance width="350"/>
  <unicode hex="007D"/>
  <outline>
    <contour>
      <point x="-37" y="-85" type="curve"/>
      <point x="-37" y="-158" type="line"/>
      <point x="-30" y="-158" type="line" smooth="yes"/>
      <point x="81" y="-158"/>
      <point x="134" y="-129"/>
      <point x="158" y="-16" type="curve" smooth="yes"/>
      <point x="191" y="141" type="line" smooth="yes"/>
      <point x="205" y="209"/>
      <point x="252" y="234"/>
      <point x="329" y="234" type="curve"/>
      <point x="345" y="307" type="line"/>
      <point x="279" y="307"/>
      <point x="243" y="330"/>
      <point x="243" y="377" type="curve" smooth="yes"/>
      <point x="243" y="393"/>
      <point x="247" y="409"/>
      <point x="251" y="430" type="curve" smooth="yes"/>
      <point x="275" y="536" type="line" smooth="yes"/>
      <point x="281" y="561"/>
      <point x="285" y="583"/>
      <point x="285" y="604" type="curve" smooth="yes"/>
      <point x="285" y="680"/>
      <point x="234" y="714"/>
      <point x="138" y="714" type="curve" smooth="yes"/>
      <point x="132" y="714" type="line"/>
      <point x="117" y="641" type="line"/>
      <point x="171" y="641"/>
      <point x="204" y="631"/>
      <point x="204" y="592" type="curve" smooth="yes"/>
      <point x="204" y="579"/>
      <point x="201" y="563"/>
      <point x="197" y="546" type="curve" smooth="yes"/>
      <point x="174" y="443" type="line" smooth="yes"/>
      <point x="169" y="422"/>
      <point x="165" y="398"/>
      <point x="165" y="380" type="curve" smooth="yes"/>
      <point x="165" y="328"/>
      <point x="187" y="291"/>
      <point x="239" y="277" type="curve"/>
      <point x="239" y="274" type="line"/>
      <point x="161" y="261"/>
      <point x="127" y="216"/>
      <point x="112" y="148" type="curve" smooth="yes"/>
      <point x="77" y="-8" type="line" smooth="yes"/>
      <point x="63" y="-71"/>
      <point x="27" y="-85"/>
    </contour>
  </outline>
</glyph>
<glyph name="asciitilde" format="2">
  <advance width="572"/>
  <unicode hex="007E"/>
  <outline>
    <contour>
      <point x="289" y="319" type="curve" smooth="yes"/>
      <point x="349" y="293"/>
      <point x="383" y="287"/>
      <point x="421" y="287" type="curve" smooth="yes"/>
      <point x="469" y="287"/>
      <point x="509" y="306"/>
      <point x="541" y="341" type="curve"/>
      <point x="541" y="418" type="line"/>
      <point x="509" y="385"/>
      <point x="465" y="359"/>
      <point x="426" y="359" type="curve" smooth="yes"/>
      <point x="398" y="359"/>
      <point x="370" y="365"/>
      <point x="322" y="386" type="curve" smooth="yes"/>
      <point x="261" y="412"/>
      <point x="228" y="418"/>
      <point x="190" y="418" type="curve" smooth="yes"/>
      <point x="142" y="418"/>
      <point x="102" y="400"/>
      <point x="70" y="365" type="curve"/>
      <point x="70" y="287" type="line"/>
      <point x="102" y="320"/>
      <point x="147" y="346"/>
      <point x="184" y="346" type="curve" smooth="yes"/>
      <point x="213" y="346"/>
      <point x="241" y="340"/>
    </contour>
  </outline>
</glyph>
<glyph name="exclamdown" format="2">
  <advance width="261"/>
  <unicode hex="00A1"/>
  <outline>
    <contour>
      <point x="-10" y="-182" type="line"/>
      <point x="97" y="-182" type="line"/>
      <point x="182" y="331" type="line"/>
      <point x="124" y="331" type="line"/>
    </contour>
    <contour>
      <point x="172" y="411" type="curve" smooth="yes"/>
      <point x="222" y="411"/>
      <point x="245" y="453"/>
      <point x="245" y="492" type="curve" smooth="yes"/>
      <point x="245" y="527"/>
      <point x="226" y="546"/>
      <point x="196" y="546" type="curve" smooth="yes"/>
      <point x="144" y="546"/>
      <point x="120" y="507"/>
      <point x="120" y="463" type="curve" smooth="yes"/>
      <point x="120" y="429"/>
      <point x="139" y="411"/>
    </contour>
  </outline>
</glyph>
<glyph name="exclamdown.serif" format="2">
  <advance width="333"/>
  <unicode hex="00A1"/>
  <outline>
    <contour>
      <point x="11" y="-179" type="line"/>
      <point x="127" y="-179" type="line"/>
      <point x="201" y="334" type="line"/>
      <point x="155" y="334" type="line"/>
    </contour>
    <contour>
      <point x="201" y="405" type="curve" smooth="yes"/>
      <point x="241" y="405"/>
      <point x="267" y="436"/>
      <point x="267" y="482" type="curve" smooth="yes"/>
      <point x="267" y="523"/>
      <point x="242" y="543"/>
      <point x="205" y="543" type="curve" smooth="yes"/>
      <point x="173" y="543"/>
      <point x="139" y="523"/>
      <point x="139" y="466" type="curve"/>
      <point x="139" y="425"/>
      <point x="166" y="405"/>
    </contour>
  </outline>
</glyph>
<glyph name="cent" format="2">
  <advance width="551"/>
  <unicode hex="00A2"/>
  <outline>
    <contour>
      <point x="241" y="95" type="curve"/>
      <point x="220" y="-10" type="line"/>
      <point x="284" y="-10" type="line"/>
      <point x="304" y="87" type="line"/>
      <point x="363" y="88"/>
      <point x="408" y="101"/>
      <point x="444" y="119" type="curve"/>
      <point x="444" y="194" type="line"/>
      <point x="404" y="175"/>
      <point x="363" y="160"/>
      <point x="316" y="160" type="curve" smooth="yes"/>
      <point x="242" y="160"/>
      <point x="197" y="208"/>
      <point x="197" y="289" type="curve" smooth="yes"/>
      <point x="197" y="441"/>
      <point x="275" y="570"/>
      <point x="389" y="570" type="curve" smooth="yes"/>
      <point x="432" y="570"/>
      <point x="469" y="557"/>
      <point x="496" y="545" type="curve"/>
      <point x="521" y="618" type="line"/>
      <point x="490" y="631"/>
      <point x="453" y="639"/>
      <point x="414" y="642" type="curve"/>
      <point x="432" y="724" type="line"/>
      <point x="369" y="724" type="line"/>
      <point x="353" y="642" type="line"/>
      <point x="202" y="619"/>
      <point x="107" y="468"/>
      <point x="107" y="288" type="curve" smooth="yes"/>
      <point x="107" y="181"/>
      <point x="160" y="116"/>
    </contour>
  </outline>
</glyph>
<glyph name="cent.serif" format="2">
  <advance width="559"/>
  <unicode hex="00A2"/>
  <outline>
    <contour>
      <point x="242" y="89" type="curve"/>
      <point x="223" y="0" type="line"/>
      <point x="273" y="0" type="line"/>
      <point x="291" y="86" type="line"/>
      <point x="402" y="90"/>
      <point x="452" y="153"/>
      <point x="452" y="196" type="curve" smooth="yes"/>
      <point x="452" y="207"/>
      <point x="448" y="217"/>
      <point x="442" y="221" type="curve"/>
      <point x="415" y="187"/>
      <point x="371" y="151"/>
      <point x="304" y="149" type="curve"/>
      <point x="396" y="584" type="line"/>
      <point x="425" y="566"/>
      <point x="439" y="524"/>
      <point x="439" y="476" type="curve"/>
      <point x="496" y="476"/>
      <point x="528" y="508"/>
      <point x="528" y="546" type="curve" smooth="yes"/>
      <point x="528" y="590"/>
      <point x="490" y="633"/>
      <point x="408" y="640" type="curve"/>
      <point x="424" y="714" type="line"/>
      <point x="374" y="714" type="line"/>
      <point x="358" y="641" type="line"/>
      <point x="179" y="625"/>
      <point x="84" y="435"/>
      <point x="84" y="293" type="curve" smooth="yes"/>
      <point x="84" y="170"/>
      <point x="152" y="103"/>
    </contour>
    <contour>
      <point x="348" y="592" type="curve"/>
      <point x="256" y="156" type="line"/>
      <point x="211" y="172"/>
      <point x="188" y="217"/>
      <point x="188" y="285" type="curve" smooth="yes"/>
      <point x="188" y="388"/>
      <point x="249" y="576"/>
    </contour>
  </outline>
</glyph>
<glyph name="sterling" format="2">
  <advance width="551"/>
  <unicode hex="00A3"/>
  <outline>
    <contour>
      <point x="3" y="74" type="curve"/>
      <point x="-11" y="0" type="line"/>
      <point x="456" y="0" type="line"/>
      <point x="473" y="80" type="line"/>
      <point x="122" y="80" type="line"/>
      <point x="162" y="101"/>
      <point x="199" y="134"/>
      <point x="216" y="215" type="curve" smooth="yes"/>
      <point x="238" y="316" type="line"/>
      <point x="416" y="316" type="line"/>
      <point x="430" y="382" type="line"/>
      <point x="252" y="382" type="line"/>
      <point x="285" y="537" type="line" smooth="yes"/>
      <point x="304" y="627"/>
      <point x="356" y="650"/>
      <point x="410" y="650" type="curve" smooth="yes"/>
      <point x="466" y="650"/>
      <point x="512" y="629"/>
      <point x="544" y="612" type="curve"/>
      <point x="578" y="681" type="line"/>
      <point x="538" y="703"/>
      <point x="482" y="723"/>
      <point x="412" y="723" type="curve" smooth="yes"/>
      <point x="310" y="723"/>
      <point x="228" y="677"/>
      <point x="200" y="549" type="curve" smooth="yes"/>
      <point x="165" y="382" type="line"/>
      <point x="67" y="382" type="line"/>
      <point x="53" y="316" type="line"/>
      <point x="151" y="316" type="line"/>
      <point x="129" y="214" type="line" smooth="yes"/>
      <point x="110" y="126"/>
      <point x="61" y="87"/>
    </contour>
  </outline>
</glyph>
<glyph name="sterling.serif" format="2">
  <advance width="559"/>
  <unicode hex="00A3"/>
  <outline>
    <contour>
      <point x="336" y="-10" type="curve" smooth="yes"/>
      <point x="403" y="-10"/>
      <point x="475" y="49"/>
      <point x="506" y="82" type="curve"/>
      <point x="479" y="115" type="line"/>
      <point x="448" y="85"/>
      <point x="425" y="70"/>
      <point x="379" y="70" type="curve" smooth="yes"/>
      <point x="338" y="70"/>
      <point x="267" y="108"/>
      <point x="214" y="108" type="curve" smooth="yes"/>
      <point x="192" y="108"/>
      <point x="167" y="103"/>
      <point x="137" y="90" type="curve"/>
      <point x="136" y="94" type="line"/>
      <point x="216" y="142"/>
      <point x="262" y="196"/>
      <point x="262" y="284" type="curve" smooth="yes"/>
      <point x="262" y="302"/>
      <point x="261" y="320"/>
      <point x="259" y="337" type="curve"/>
      <point x="411" y="337" type="line"/>
      <point x="422" y="387" type="line"/>
      <point x="252" y="387" type="line"/>
      <point x="247" y="413"/>
      <point x="238" y="450"/>
      <point x="238" y="494" type="curve" smooth="yes"/>
      <point x="238" y="608"/>
      <point x="288" y="674"/>
      <point x="379" y="674" type="curve" smooth="yes"/>
      <point x="439" y="674"/>
      <point x="477" y="631"/>
      <point x="477" y="547" type="curve"/>
      <point x="530" y="547"/>
      <point x="560" y="575"/>
      <point x="560" y="626" type="curve" smooth="yes"/>
      <point x="560" y="680"/>
      <point x="502" y="724"/>
      <point x="394" y="724" type="curve" smooth="yes"/>
      <point x="247" y="724"/>
      <point x="150" y="638"/>
      <point x="150" y="488" type="curve" smooth="yes"/>
      <point x="150" y="453"/>
      <point x="157" y="414"/>
      <point x="163" y="387" type="curve"/>
      <point x="71" y="387" type="line"/>
      <point x="60" y="337" type="line"/>
      <point x="171" y="337" type="line"/>
      <point x="175" y="317"/>
      <point x="178" y="296"/>
      <point x="178" y="275" type="curve" smooth="yes"/>
      <point x="178" y="166"/>
      <point x="102" y="98"/>
      <point x="34" y="59" type="curve" smooth="yes"/>
      <point x="-1" y="39" type="line"/>
      <point x="17" y="-1" type="line"/>
      <point x="31" y="6" type="line" smooth="yes"/>
      <point x="71" y="26"/>
      <point x="101" y="35"/>
      <point x="147" y="35" type="curve" smooth="yes"/>
      <point x="219" y="35"/>
      <point x="270" y="-10"/>
    </contour>
  </outline>
</glyph>
<glyph name="currency" format="2">
  <advance width="551"/>
  <unicode hex="00A4"/>
  <outline>
    <contour>
      <point x="398" y="201" type="curve"/>
      <point x="461" y="139" type="line"/>
      <point x="508" y="186" type="line"/>
      <point x="446" y="248" type="line"/>
      <point x="466" y="277"/>
      <point x="479" y="313"/>
      <point x="479" y="353" type="curve"/>
      <point x="479" y="392"/>
      <point x="465" y="428"/>
      <point x="446" y="458" type="curve"/>
      <point x="509" y="521" type="line"/>
      <point x="461" y="568" type="line"/>
      <point x="398" y="505" type="line"/>
      <point x="368" y="525"/>
      <point x="333" y="538"/>
      <point x="294" y="538" type="curve"/>
      <point x="255" y="538"/>
      <point x="219" y="525"/>
      <point x="189" y="505" type="curve"/>
      <point x="127" y="568" type="line"/>
      <point x="80" y="520" type="line"/>
      <point x="143" y="457" type="line"/>
      <point x="122" y="427"/>
      <point x="110" y="391"/>
      <point x="110" y="353" type="curve"/>
      <point x="110" y="313"/>
      <point x="122" y="278"/>
      <point x="143" y="249" type="curve"/>
      <point x="81" y="187" type="line"/>
      <point x="127" y="140" type="line"/>
      <point x="189" y="202" type="line"/>
      <point x="218" y="182"/>
      <point x="255" y="169"/>
      <point x="294" y="169" type="curve"/>
      <point x="333" y="169"/>
      <point x="369" y="181"/>
    </contour>
    <contour>
      <point x="294" y="236" type="curve"/>
      <point x="229" y="236"/>
      <point x="177" y="287"/>
      <point x="177" y="353" type="curve"/>
      <point x="177" y="420"/>
      <point x="229" y="472"/>
      <point x="294" y="472" type="curve"/>
      <point x="361" y="472"/>
      <point x="414" y="420"/>
      <point x="414" y="353" type="curve"/>
      <point x="414" y="287"/>
      <point x="361" y="236"/>
    </contour>
  </outline>
</glyph>
<glyph name="currency.serif" format="2">
  <advance width="559"/>
  <unicode hex="00A4"/>
  <outline>
    <contour>
      <point x="114" y="143" type="line"/>
      <point x="180" y="209" type="line"/>
      <point x="210" y="187"/>
      <point x="247" y="175"/>
      <point x="287" y="175" type="curve" smooth="yes"/>
      <point x="327" y="175"/>
      <point x="364" y="188"/>
      <point x="394" y="209" type="curve"/>
      <point x="461" y="143" type="line"/>
      <point x="502" y="185" type="line"/>
      <point x="436" y="251" type="line"/>
      <point x="458" y="281"/>
      <point x="471" y="318"/>
      <point x="471" y="358" type="curve" smooth="yes"/>
      <point x="471" y="398"/>
      <point x="458" y="435"/>
      <point x="436" y="465" type="curve"/>
      <point x="502" y="531" type="line"/>
      <point x="460" y="574" type="line"/>
      <point x="393" y="507" type="line"/>
      <point x="363" y="529"/>
      <point x="326" y="542"/>
      <point x="287" y="542" type="curve" smooth="yes"/>
      <point x="246" y="542"/>
      <point x="209" y="529"/>
      <point x="179" y="507" type="curve"/>
      <point x="114" y="573" type="line"/>
      <point x="72" y="531" type="line"/>
      <point x="138" y="465" type="line"/>
      <point x="116" y="435"/>
      <point x="104" y="398"/>
      <point x="104" y="358" type="curve"/>
      <point x="104" y="318"/>
      <point x="116" y="281"/>
      <point x="137" y="251" type="curve"/>
      <point x="72" y="185" type="line"/>
    </contour>
    <contour>
      <point x="287" y="230" type="curve" smooth="yes"/>
      <point x="217" y="230"/>
      <point x="160" y="288"/>
      <point x="160" y="358" type="curve"/>
      <point x="160" y="430"/>
      <point x="217" y="487"/>
      <point x="287" y="487" type="curve" smooth="yes"/>
      <point x="359" y="487"/>
      <point x="415" y="430"/>
      <point x="415" y="358" type="curve" smooth="yes"/>
      <point x="415" y="288"/>
      <point x="359" y="230"/>
    </contour>
  </outline>
</glyph>
<glyph name="yen" format="2">
  <advance width="551"/>
  <unicode hex="00A5"/>
  <outline>
    <contour>
      <point x="174" y="0" type="line"/>
      <point x="255" y="0" type="line"/>
      <point x="283" y="128" type="line"/>
      <point x="425" y="128" type="line"/>
      <point x="439" y="195" type="line"/>
      <point x="296" y="195" type="line"/>
      <point x="312" y="272" type="line"/>
      <point x="455" y="272" type="line"/>
      <point x="469" y="339" type="line"/>
      <point x="358" y="339" type="line"/>
      <point x="616" y="714" type="line"/>
      <point x="520" y="714" type="line"/>
      <point x="285" y="356" type="line"/>
      <point x="201" y="714" type="line"/>
      <point x="115" y="714" type="line"/>
      <point x="214" y="339" type="line"/>
      <point x="105" y="339" type="line"/>
      <point x="90" y="272" type="line"/>
      <point x="231" y="272" type="line"/>
      <point x="215" y="195" type="line"/>
      <point x="75" y="195" type="line"/>
      <point x="60" y="128" type="line"/>
      <point x="201" y="128" type="line"/>
    </contour>
  </outline>
</glyph>
<glyph name="yen.serif" format="2">
  <advance width="559"/>
  <unicode hex="00A5"/>
  <outline>
    <contour>
      <point x="69" y="0" type="line"/>
      <point x="376" y="0" type="line"/>
      <point x="385" y="42" type="line"/>
      <point x="362" y="42" type="line" smooth="yes"/>
      <point x="320" y="42"/>
      <point x="290" y="48"/>
      <point x="290" y="82" type="curve" smooth="yes"/>
      <point x="290" y="88"/>
      <point x="292" y="102"/>
      <point x="294" y="110" type="curve" smooth="yes"/>
      <point x="308" y="177" type="line"/>
      <point x="448" y="177" type="line"/>
      <point x="458" y="224" type="line"/>
      <point x="318" y="224" type="line"/>
      <point x="333" y="294" type="line"/>
      <point x="473" y="294" type="line"/>
      <point x="483" y="341" type="line"/>
      <point x="359" y="341" type="line"/>
      <point x="535" y="594" type="line" smooth="yes"/>
      <point x="578" y="656"/>
      <point x="593" y="672"/>
      <point x="627" y="672" type="curve" smooth="yes"/>
      <point x="636" y="672" type="line"/>
      <point x="645" y="714" type="line"/>
      <point x="441" y="714" type="line"/>
      <point x="432" y="672" type="line"/>
      <point x="436" y="672" type="line" smooth="yes"/>
      <point x="474" y="672"/>
      <point x="489" y="663"/>
      <point x="489" y="643" type="curve" smooth="yes"/>
      <point x="489" y="626"/>
      <point x="475" y="595"/>
      <point x="444" y="549" type="curve" smooth="yes"/>
      <point x="361" y="427" type="line" smooth="yes"/>
      <point x="343" y="400"/>
      <point x="318" y="361"/>
      <point x="309" y="345" type="curve"/>
      <point x="307" y="368"/>
      <point x="298" y="425"/>
      <point x="288" y="467" type="curve" smooth="yes"/>
      <point x="262" y="574" type="line" smooth="yes"/>
      <point x="258" y="589"/>
      <point x="250" y="622"/>
      <point x="250" y="638" type="curve" smooth="yes"/>
      <point x="250" y="666"/>
      <point x="272" y="672"/>
      <point x="317" y="672" type="curve" smooth="yes"/>
      <point x="321" y="672" type="line"/>
      <point x="330" y="714" type="line"/>
      <point x="96" y="714" type="line"/>
      <point x="87" y="672" type="line"/>
      <point x="91" y="672" type="line" smooth="yes"/>
      <point x="130" y="672"/>
      <point x="139" y="658"/>
      <point x="150" y="619" type="curve" smooth="yes"/>
      <point x="227" y="341" type="line"/>
      <point x="106" y="341" type="line"/>
      <point x="96" y="294" type="line"/>
      <point x="236" y="294" type="line"/>
      <point x="221" y="224" type="line"/>
      <point x="81" y="224" type="line"/>
      <point x="71" y="177" type="line"/>
      <point x="211" y="177" type="line"/>
      <point x="197" y="109" type="line" smooth="yes"/>
      <point x="185" y="49"/>
      <point x="145" y="42"/>
      <point x="101" y="42" type="curve" smooth="yes"/>
      <point x="78" y="42" type="line"/>
    </contour>
  </outline>
</glyph>
<glyph name="section" format="2">
  <advance width="486"/>
  <unicode hex="00A7"/>
  <outline>
    <contour>
      <point x="173" y="-5" type="curve" smooth="yes"/>
      <point x="314" y="-5"/>
      <point x="386" y="61"/>
      <point x="386" y="154" type="curve" smooth="yes"/>
      <point x="386" y="199"/>
      <point x="361" y="227"/>
      <point x="331" y="247" type="curve"/>
      <point x="396" y="280"/>
      <point x="443" y="334"/>
      <point x="443" y="402" type="curve" smooth="yes"/>
      <point x="443" y="474"/>
      <point x="392" y="511"/>
      <point x="321" y="543" type="curve" smooth="yes"/>
      <point x="251" y="574"/>
      <point x="225" y="592"/>
      <point x="225" y="627" type="curve" smooth="yes"/>
      <point x="225" y="678"/>
      <point x="279" y="698"/>
      <point x="330" y="698" type="curve" smooth="yes"/>
      <point x="375" y="698"/>
      <point x="417" y="686"/>
      <point x="461" y="668" type="curve"/>
      <point x="488" y="731" type="line"/>
      <point x="447" y="752"/>
      <point x="393" y="765"/>
      <point x="330" y="765" type="curve" smooth="yes"/>
      <point x="208" y="765"/>
      <point x="141" y="702"/>
      <point x="141" y="624" type="curve" smooth="yes"/>
      <point x="141" y="577"/>
      <point x="165" y="546"/>
      <point x="198" y="525" type="curve"/>
      <point x="137" y="497"/>
      <point x="84" y="452"/>
      <point x="84" y="376" type="curve" smooth="yes"/>
      <point x="84" y="301"/>
      <point x="132" y="263"/>
      <point x="206" y="230" type="curve" smooth="yes"/>
      <point x="278" y="197"/>
      <point x="303" y="175"/>
      <point x="303" y="145" type="curve" smooth="yes"/>
      <point x="303" y="92"/>
      <point x="257" y="62"/>
      <point x="173" y="62" type="curve" smooth="yes"/>
      <point x="118" y="62"/>
      <point x="61" y="82"/>
      <point x="27" y="101" type="curve"/>
      <point x="27" y="26" type="line"/>
      <point x="57" y="10"/>
      <point x="106" y="-5"/>
    </contour>
    <contour>
      <point x="281" y="277" type="curve"/>
      <point x="190" y="317"/>
      <point x="162" y="340"/>
      <point x="162" y="386" type="curve" smooth="yes"/>
      <point x="162" y="440"/>
      <point x="209" y="478"/>
      <point x="251" y="491" type="curve"/>
      <point x="332" y="457"/>
      <point x="363" y="431"/>
      <point x="363" y="390" type="curve" smooth="yes"/>
      <point x="363" y="340"/>
      <point x="323" y="300"/>
    </contour>
  </outline>
</glyph>
<glyph name="section.serif" format="2">
  <advance width="544"/>
  <unicode hex="00A7"/>
  <outline>
    <contour>
      <point x="190" y="-115" type="curve" smooth="yes"/>
      <point x="333" y="-115"/>
      <point x="416" y="-23"/>
      <point x="416" y="90" type="curve" smooth="yes"/>
      <point x="416" y="125"/>
      <point x="405" y="147"/>
      <point x="396" y="164" type="curve"/>
      <point x="444" y="200"/>
      <point x="483" y="253"/>
      <point x="483" y="315" type="curve" smooth="yes"/>
      <point x="483" y="376"/>
      <point x="448" y="423"/>
      <point x="361" y="470" type="curve" smooth="yes"/>
      <point x="259" y="525"/>
      <point x="229" y="550"/>
      <point x="229" y="611" type="curve" smooth="yes"/>
      <point x="229" y="681"/>
      <point x="291" y="713"/>
      <point x="347" y="713" type="curve" smooth="yes"/>
      <point x="413" y="713"/>
      <point x="442" y="660"/>
      <point x="442" y="591" type="curve"/>
      <point x="496" y="591"/>
      <point x="523" y="607"/>
      <point x="523" y="660" type="curve" smooth="yes"/>
      <point x="523" y="713"/>
      <point x="462" y="760"/>
      <point x="365" y="760" type="curve" smooth="yes"/>
      <point x="246" y="760"/>
      <point x="152" y="694"/>
      <point x="152" y="579" type="curve" smooth="yes"/>
      <point x="152" y="539"/>
      <point x="164" y="508"/>
      <point x="176" y="489" type="curve"/>
      <point x="131" y="461"/>
      <point x="88" y="418"/>
      <point x="88" y="353" type="curve" smooth="yes"/>
      <point x="88" y="289"/>
      <point x="114" y="239"/>
      <point x="199" y="192" type="curve" smooth="yes"/>
      <point x="329" y="121"/>
      <point x="342" y="90"/>
      <point x="342" y="52" type="curve" smooth="yes"/>
      <point x="342" y="-18"/>
      <point x="287" y="-66"/>
      <point x="205" y="-66" type="curve" smooth="yes"/>
      <point x="122" y="-66"/>
      <point x="83" y="-6"/>
      <point x="83" y="64" type="curve"/>
      <point x="59" y="64"/>
      <point x="20" y="52"/>
      <point x="20" y="-2" type="curve" smooth="yes"/>
      <point x="20" y="-72"/>
      <point x="90" y="-115"/>
    </contour>
    <contour>
      <point x="371" y="196" type="curve"/>
      <point x="347" y="218"/>
      <point x="310" y="243"/>
      <point x="274" y="263" type="curve" smooth="yes"/>
      <point x="186" y="311"/>
      <point x="158" y="342"/>
      <point x="158" y="390" type="curve" smooth="yes"/>
      <point x="158" y="422"/>
      <point x="174" y="443"/>
      <point x="198" y="461" type="curve"/>
      <point x="227" y="434"/>
      <point x="262" y="411"/>
      <point x="305" y="388" type="curve"/>
      <point x="385" y="344"/>
      <point x="408" y="306"/>
      <point x="408" y="272" type="curve" smooth="yes"/>
      <point x="408" y="241"/>
      <point x="391" y="218"/>
    </contour>
  </outline>
</glyph>
<glyph name="dieresis" format="2">
  <advance width="554"/>
  <unicode hex="00A8"/>
  <outline>
    <contour>
      <point x="442" y="631" type="curve"/>
      <point x="467" y="631"/>
      <point x="493" y="653"/>
      <point x="493" y="690" type="curve"/>
      <point x="493" y="714"/>
      <point x="480" y="730"/>
      <point x="453" y="730" type="curve"/>
      <point x="419" y="730"/>
      <point x="400" y="703"/>
      <point x="400" y="673" type="curve"/>
      <point x="400" y="646"/>
      <point x="418" y="631"/>
    </contour>
    <contour>
      <point x="263" y="631" type="curve"/>
      <point x="288" y="631"/>
      <point x="313" y="653"/>
      <point x="313" y="690" type="curve"/>
      <point x="313" y="714"/>
      <point x="301" y="730"/>
      <point x="273" y="730" type="curve"/>
      <point x="239" y="730"/>
      <point x="220" y="703"/>
      <point x="220" y="673" type="curve"/>
      <point x="220" y="646"/>
      <point x="238" y="631"/>
    </contour>
  </outline>
</glyph>
<glyph name="dieresis.serif" format="2">
  <advance width="577"/>
  <unicode hex="00A8"/>
  <outline>
    <contour>
      <point x="441" y="632" type="curve" smooth="yes"/>
      <point x="467" y="632"/>
      <point x="495" y="648"/>
      <point x="495" y="695" type="curve" smooth="yes"/>
      <point x="495" y="729"/>
      <point x="474" y="745"/>
      <point x="445" y="745" type="curve" smooth="yes"/>
      <point x="412" y="745"/>
      <point x="391" y="720"/>
      <point x="391" y="682" type="curve" smooth="yes"/>
      <point x="391" y="648"/>
      <point x="411" y="632"/>
    </contour>
    <contour>
      <point x="251" y="632" type="curve" smooth="yes"/>
      <point x="277" y="632"/>
      <point x="305" y="648"/>
      <point x="305" y="695" type="curve" smooth="yes"/>
      <point x="305" y="729"/>
      <point x="284" y="745"/>
      <point x="255" y="745" type="curve" smooth="yes"/>
      <point x="222" y="745"/>
      <point x="201" y="720"/>
      <point x="201" y="682" type="curve" smooth="yes"/>
      <point x="201" y="648"/>
      <point x="221" y="632"/>
    </contour>
  </outline>
</glyph>
<glyph name="copyright.serif" format="2">
  <advance width="845"/>
  <unicode hex="00A9"/>
  <outline>
    <contour>
      <point x="422" y="-10" type="curve" smooth="yes"/>
      <point x="636" y="-10"/>
      <point x="790" y="134"/>
      <point x="790" y="357" type="curve" smooth="yes"/>
      <point x="790" y="581"/>
      <point x="636" y="725"/>
      <point x="422" y="725" type="curve" smooth="yes"/>
      <point x="208" y="725"/>
      <point x="55" y="580"/>
      <point x="55" y="358" type="curve" smooth="yes"/>
      <point x="55" y="134"/>
      <point x="209" y="-10"/>
    </contour>
    <contour>
      <point x="428" y="129" type="curve" smooth="yes"/>
      <point x="530" y="129"/>
      <point x="582" y="173"/>
      <point x="582" y="211" type="curve" smooth="yes"/>
      <point x="582" y="225"/>
      <point x="576" y="237"/>
      <point x="567" y="243" type="curve"/>
      <point x="549" y="209"/>
      <point x="504" y="173"/>
      <point x="441" y="173" type="curve" smooth="yes"/>
      <point x="354" y="173"/>
      <point x="306" y="240"/>
      <point x="306" y="358" type="curve" smooth="yes"/>
      <point x="306" y="476"/>
      <point x="343" y="542"/>
      <point x="440" y="542" type="curve" smooth="yes"/>
      <point x="494" y="542"/>
      <point x="513" y="502"/>
      <point x="513" y="464" type="curve"/>
      <point x="552" y="464"/>
      <point x="583" y="482"/>
      <point x="583" y="512" type="curve" smooth="yes"/>
      <point x="583" y="553"/>
      <point x="537" y="585"/>
      <point x="442" y="585" type="curve" smooth="yes"/>
      <point x="298" y="585"/>
      <point x="222" y="492"/>
      <point x="222" y="358" type="curve" smooth="yes"/>
      <point x="222" y="220"/>
      <point x="291" y="129"/>
    </contour>
    <contour>
      <point x="423" y="45" type="curve" smooth="yes"/>
      <point x="243" y="45"/>
      <point x="113" y="161"/>
      <point x="113" y="357" type="curve" smooth="yes"/>
      <point x="113" y="550"/>
      <point x="240" y="670"/>
      <point x="423" y="670" type="curve" smooth="yes"/>
      <point x="606" y="670"/>
      <point x="732" y="549"/>
      <point x="732" y="358" type="curve" smooth="yes"/>
      <point x="732" y="168"/>
      <point x="609" y="45"/>
    </contour>
  </outline>
</glyph>
<glyph name="ordfeminine" format="2">
  <advance width="339"/>
  <unicode hex="00AA"/>
  <anchor x="190" y="382" name="bottom"/>
  <anchor x="264" y="719" name="top"/>
  <outline>
    <contour>
      <point x="170" y="383" type="curve" smooth="yes"/>
      <point x="218" y="383"/>
      <point x="247" y="410"/>
      <point x="273" y="445" type="curve"/>
      <point x="276" y="445" type="line"/>
      <point x="269" y="389" type="line"/>
      <point x="316" y="389" type="line"/>
      <point x="385" y="716" type="line"/>
      <point x="340" y="716" type="line"/>
      <point x="322" y="672" type="line"/>
      <point x="318" y="672" type="line"/>
      <point x="307" y="699"/>
      <point x="285" y="722"/>
      <point x="243" y="722" type="curve" smooth="yes"/>
      <point x="138" y="722"/>
      <point x="82" y="608"/>
      <point x="82" y="495" type="curve" smooth="yes"/>
      <point x="82" y="422"/>
      <point x="121" y="383"/>
    </contour>
    <contour>
      <point x="189" y="436" type="curve" smooth="yes"/>
      <point x="159" y="436"/>
      <point x="141" y="456"/>
      <point x="141" y="502" type="curve" smooth="yes"/>
      <point x="141" y="583"/>
      <point x="181" y="670"/>
      <point x="245" y="670" type="curve" smooth="yes"/>
      <point x="282" y="670"/>
      <point x="300" y="646"/>
      <point x="300" y="607" type="curve" smooth="yes"/>
      <point x="300" y="543"/>
      <point x="263" y="436"/>
    </contour>
  </outline>
</glyph>
<glyph name="ordfeminine.serif" format="2">
  <advance width="393"/>
  <unicode hex="00AA"/>
  <anchor x="198" y="382" name="bottom"/>
  <anchor x="272" y="716" name="top"/>
  <outline>
    <contour>
      <point x="148" y="381" type="curve" smooth="yes"/>
      <point x="202" y="381"/>
      <point x="245" y="423"/>
      <point x="276" y="485" type="curve"/>
      <point x="280" y="485" type="line"/>
      <point x="275" y="465"/>
      <point x="273" y="447"/>
      <point x="273" y="431" type="curve" smooth="yes"/>
      <point x="273" y="400"/>
      <point x="294" y="381"/>
      <point x="328" y="381" type="curve" smooth="yes"/>
      <point x="360" y="381"/>
      <point x="398" y="408"/>
      <point x="415" y="426" type="curve"/>
      <point x="404" y="445" type="line"/>
      <point x="389" y="436"/>
      <point x="374" y="429"/>
      <point x="361" y="429" type="curve" smooth="yes"/>
      <point x="348" y="429"/>
      <point x="341" y="439"/>
      <point x="341" y="459" type="curve" smooth="yes"/>
      <point x="341" y="474"/>
      <point x="348" y="511"/>
      <point x="351" y="524" type="curve" smooth="yes"/>
      <point x="398" y="709" type="line"/>
      <point x="376" y="709" type="line"/>
      <point x="345" y="695" type="line"/>
      <point x="327" y="707"/>
      <point x="298" y="716"/>
      <point x="265" y="716" type="curve" smooth="yes"/>
      <point x="134" y="716"/>
      <point x="60" y="585"/>
      <point x="60" y="491" type="curve" smooth="yes"/>
      <point x="60" y="429"/>
      <point x="87" y="381"/>
    </contour>
    <contour>
      <point x="181" y="428" type="curve" smooth="yes"/>
      <point x="162" y="428"/>
      <point x="147" y="447"/>
      <point x="147" y="494" type="curve" smooth="yes"/>
      <point x="147" y="561"/>
      <point x="187" y="679"/>
      <point x="263" y="679" type="curve" smooth="yes"/>
      <point x="281" y="679"/>
      <point x="298" y="672"/>
      <point x="307" y="659" type="curve"/>
      <point x="281" y="560" type="line" smooth="yes"/>
      <point x="267" y="508"/>
      <point x="221" y="428"/>
    </contour>
  </outline>
</glyph>
<glyph name="guillemetleft" format="2">
  <advance width="477"/>
  <unicode hex="00AB"/>
  <outline>
    <contour>
      <point x="154" y="54" type="line"/>
      <point x="215" y="80" type="line"/>
      <point x="133" y="268" type="line"/>
      <point x="277" y="428" type="line"/>
      <point x="234" y="471" type="line"/>
      <point x="42" y="284" type="line"/>
      <point x="42" y="271" type="line"/>
    </contour>
    <contour>
      <point x="344" y="54" type="line"/>
      <point x="405" y="80" type="line"/>
      <point x="329" y="251" type="line"/>
      <point x="467" y="428" type="line"/>
      <point x="420" y="466" type="line"/>
      <point x="239" y="265" type="line"/>
      <point x="239" y="251" type="line"/>
    </contour>
  </outline>
</glyph>
<glyph name="guillemotleft" format="2">
  <advance width="459"/>
  <unicode hex="00AB"/>
  <outline>
    <contour>
      <point x="145" y="54" type="line"/>
      <point x="208" y="80" type="line"/>
      <point x="133" y="268" type="line"/>
      <point x="271" y="428" type="line"/>
      <point x="227" y="471" type="line"/>
      <point x="42" y="284" type="line"/>
      <point x="42" y="271" type="line"/>
    </contour>
    <contour>
      <point x="329" y="54" type="line"/>
      <point x="392" y="80" type="line"/>
      <point x="322" y="251" type="line"/>
      <point x="455" y="428" type="line"/>
      <point x="407" y="466" type="line"/>
      <point x="232" y="265" type="line"/>
      <point x="232" y="251" type="line"/>
    </contour>
  </outline>
</glyph>
<glyph name="logicalnot.serif" format="2">
  <advance width="559"/>
  <unicode hex="00AC"/>
  <outline>
    <contour>
      <point x="434" y="123" type="line"/>
      <point x="494" y="123" type="line"/>
      <point x="494" y="387" type="line"/>
      <point x="65" y="387" type="line"/>
      <point x="65" y="328" type="line"/>
      <point x="434" y="328" type="line"/>
    </contour>
  </outline>
</glyph>
<glyph name="registered.display" format="2">
  <advance width="790"/>
  <unicode hex="00AE"/>
  <outline>
    <contour>
      <point x="412" y="-10" type="curve" smooth="yes"/>
      <point x="606" y="-10"/>
      <point x="764" y="156"/>
      <point x="764" y="360" type="curve" smooth="yes"/>
      <point x="764" y="562"/>
      <point x="612" y="724"/>
      <point x="420" y="724" type="curve" smooth="yes"/>
      <point x="225" y="724"/>
      <point x="67" y="558"/>
      <point x="67" y="354" type="curve" smooth="yes"/>
      <point x="67" y="152"/>
      <point x="220" y="-10"/>
    </contour>
    <contour>
      <point x="412" y="43" type="curve" smooth="yes"/>
      <point x="249" y="43"/>
      <point x="117" y="183"/>
      <point x="117" y="354" type="curve" smooth="yes"/>
      <point x="117" y="529"/>
      <point x="254" y="671"/>
      <point x="419" y="671" type="curve" smooth="yes"/>
      <point x="583" y="671"/>
      <point x="715" y="531"/>
      <point x="715" y="360" type="curve" smooth="yes"/>
      <point x="715" y="185"/>
      <point x="579" y="43"/>
    </contour>
    <contour>
      <point x="300" y="142" type="line"/>
      <point x="362" y="142" type="line"/>
      <point x="362" y="312" type="line"/>
      <point x="412" y="312" type="line"/>
      <point x="504" y="142" type="line"/>
      <point x="578" y="142" type="line"/>
      <point x="475" y="329" type="line"/>
      <point x="513" y="345"/>
      <point x="560" y="382"/>
      <point x="560" y="448" type="curve" smooth="yes"/>
      <point x="560" y="531"/>
      <point x="511" y="572"/>
      <point x="411" y="572" type="curve" smooth="yes"/>
      <point x="300" y="572" type="line"/>
    </contour>
    <contour>
      <point x="403" y="372" type="curve" smooth="yes"/>
      <point x="362" y="372" type="line"/>
      <point x="362" y="510" type="line"/>
      <point x="405" y="510" type="line" smooth="yes"/>
      <point x="464" y="510"/>
      <point x="494" y="492"/>
      <point x="494" y="445" type="curve" smooth="yes"/>
      <point x="494" y="398"/>
      <point x="466" y="372"/>
    </contour>
  </outline>
</glyph>
<glyph name="overscore.serif" format="2">
  <advance width="459"/>
  <unicode hex="00AF"/>
  <outline>
    <contour>
      <point x="101" y="760" type="line"/>
      <point x="569" y="760" type="line"/>
      <point x="582" y="819" type="line"/>
      <point x="114" y="819" type="line"/>
    </contour>
  </outline>
</glyph>
<glyph name="degree.serif" format="2">
  <advance width="400"/>
  <unicode hex="00B0"/>
  <outline>
    <contour>
      <point x="274" y="423" type="curve" smooth="yes"/>
      <point x="364" y="423"/>
      <point x="426" y="484"/>
      <point x="426" y="574" type="curve" smooth="yes"/>
      <point x="426" y="663"/>
      <point x="364" y="726"/>
      <point x="274" y="726" type="curve" smooth="yes"/>
      <point x="184" y="726"/>
      <point x="123" y="663"/>
      <point x="123" y="574" type="curve" smooth="yes"/>
      <point x="123" y="484"/>
      <point x="184" y="423"/>
    </contour>
    <contour>
      <point x="275" y="482" type="curve" smooth="yes"/>
      <point x="221" y="482"/>
      <point x="189" y="518"/>
      <point x="189" y="574" type="curve" smooth="yes"/>
      <point x="189" y="631"/>
      <point x="222" y="667"/>
      <point x="275" y="667" type="curve" smooth="yes"/>
      <point x="328" y="667"/>
      <point x="361" y="631"/>
      <point x="361" y="574" type="curve" smooth="yes"/>
      <point x="361" y="518"/>
      <point x="329" y="482"/>
    </contour>
  </outline>
</glyph>
<glyph name="twosuperior" format="2">
  <advance width="353"/>
  <unicode hex="00B2"/>
  <outline>
    <contour>
      <point x="71" y="416" type="line"/>
      <point x="349" y="416" type="line"/>
      <point x="362" y="477" type="line"/>
      <point x="171" y="477" type="line"/>
      <point x="275" y="564" type="line" smooth="yes"/>
      <point x="367" y="640"/>
      <point x="398" y="685"/>
      <point x="398" y="751" type="curve" smooth="yes"/>
      <point x="398" y="801"/>
      <point x="366" y="853"/>
      <point x="283" y="853" type="curve" smooth="yes"/>
      <point x="230" y="853"/>
      <point x="186" y="836"/>
      <point x="145" y="803" type="curve"/>
      <point x="176" y="756" type="line"/>
      <point x="208" y="782"/>
      <point x="238" y="795"/>
      <point x="271" y="795" type="curve" smooth="yes"/>
      <point x="308" y="795"/>
      <point x="328" y="773"/>
      <point x="328" y="740" type="curve" smooth="yes"/>
      <point x="328" y="688"/>
      <point x="292" y="650"/>
      <point x="212" y="581" type="curve" smooth="yes"/>
      <point x="83" y="471" type="line"/>
    </contour>
  </outline>
</glyph>
<glyph name="threesuperior" format="2">
  <advance width="353"/>
  <unicode hex="00B3"/>
  <outline>
    <contour>
      <point x="196" y="409" type="curve" smooth="yes"/>
      <point x="312" y="409"/>
      <point x="366" y="468"/>
      <point x="366" y="545" type="curve" smooth="yes"/>
      <point x="366" y="590"/>
      <point x="340" y="625"/>
      <point x="294" y="636" type="curve"/>
      <point x="294" y="640" type="line"/>
      <point x="358" y="657"/>
      <point x="396" y="693"/>
      <point x="396" y="753" type="curve" smooth="yes"/>
      <point x="396" y="811"/>
      <point x="356" y="854"/>
      <point x="276" y="854" type="curve" smooth="yes"/>
      <point x="220" y="854"/>
      <point x="174" y="835"/>
      <point x="143" y="811" type="curve"/>
      <point x="171" y="763" type="line"/>
      <point x="199" y="783"/>
      <point x="228" y="795"/>
      <point x="263" y="796" type="curve" smooth="yes"/>
      <point x="304" y="797"/>
      <point x="327" y="777"/>
      <point x="327" y="739" type="curve" smooth="yes"/>
      <point x="327" y="693"/>
      <point x="286" y="666"/>
      <point x="225" y="666" type="curve" smooth="yes"/>
      <point x="179" y="666" type="line"/>
      <point x="167" y="611" type="line"/>
      <point x="213" y="611" type="line" smooth="yes"/>
      <point x="268" y="611"/>
      <point x="297" y="589"/>
      <point x="297" y="547" type="curve" smooth="yes"/>
      <point x="297" y="497"/>
      <point x="265" y="466"/>
      <point x="198" y="466" type="curve" smooth="yes"/>
      <point x="159" y="466"/>
      <point x="116" y="481"/>
      <point x="81" y="501" type="curve"/>
      <point x="81" y="436" type="line"/>
      <point x="112" y="420"/>
      <point x="152" y="409"/>
    </contour>
  </outline>
</glyph>
<glyph name="acute" format="2">
  <advance width="263"/>
  <unicode hex="00B4"/>
  <anchor x="153" y="536" name="_top"/>
  <outline>
    <contour>
      <point x="115" y="619" type="curve"/>
      <point x="115" y="606" type="line"/>
      <point x="170" y="606" type="line"/>
      <point x="221" y="642"/>
      <point x="299" y="721"/>
      <point x="327" y="756" type="curve"/>
      <point x="327" y="766" type="line"/>
      <point x="227" y="766" type="line"/>
      <point x="198" y="721"/>
      <point x="150" y="657"/>
    </contour>
  </outline>
</glyph>
<glyph name="acute.serif" format="2">
  <advance width="263"/>
  <unicode hex="00B4"/>
  <outline>
    <contour>
      <point x="115" y="619" type="curve"/>
      <point x="112" y="606" type="line"/>
      <point x="152" y="606" type="line"/>
      <point x="213" y="642"/>
      <point x="293" y="716"/>
      <point x="326" y="756" type="curve"/>
      <point x="329" y="766" type="line"/>
      <point x="222" y="766" type="line"/>
      <point x="192" y="717"/>
      <point x="150" y="659"/>
    </contour>
  </outline>
</glyph>
<glyph name="micro" format="2">
  <advance width="585"/>
  <unicode hex="00B5"/>
  <outline>
    <contour>
      <point x="-22" y="-240" type="line"/>
      <point x="64" y="-240" type="line"/>
      <point x="96" y="-86" type="line" smooth="yes"/>
      <point x="101" y="-59"/>
      <point x="112" y="7"/>
      <point x="116" y="36" type="curve"/>
      <point x="120" y="36" type="line"/>
      <point x="137" y="4"/>
      <point x="164" y="-10"/>
      <point x="199" y="-10" type="curve" smooth="yes"/>
      <point x="282" y="-10"/>
      <point x="337" y="48"/>
      <point x="376" y="99" type="curve"/>
      <point x="381" y="99" type="line"/>
      <point x="370" y="0" type="line"/>
      <point x="442" y="0" type="line"/>
      <point x="556" y="536" type="line"/>
      <point x="470" y="536" type="line"/>
      <point x="419" y="303" type="line" smooth="yes"/>
      <point x="380" y="128"/>
      <point x="287" y="63"/>
      <point x="220" y="63" type="curve" smooth="yes"/>
      <point x="171" y="63"/>
      <point x="150" y="89"/>
      <point x="150" y="134" type="curve" smooth="yes"/>
      <point x="150" y="149"/>
      <point x="153" y="170"/>
      <point x="159" y="199" type="curve" smooth="yes"/>
      <point x="230" y="536" type="line"/>
      <point x="142" y="536" type="line"/>
    </contour>
  </outline>
</glyph>
<glyph name="micro.serif" format="2">
  <advance width="604"/>
  <unicode hex="00B5"/>
  <outline>
    <contour>
      <point x="63" y="-240" type="curve" smooth="yes"/>
      <point x="107" y="-240"/>
      <point x="142" y="-212"/>
      <point x="148" y="-153" type="curve"/>
      <point x="107" y="-146"/>
      <point x="93" y="-117"/>
      <point x="93" y="-72" type="curve" smooth="yes"/>
      <point x="93" y="-39"/>
      <point x="100" y="2"/>
      <point x="109" y="49" type="curve"/>
      <point x="128" y="12"/>
      <point x="167" y="-10"/>
      <point x="222" y="-10" type="curve" smooth="yes"/>
      <point x="283" y="-10"/>
      <point x="326" y="27"/>
      <point x="367" y="86" type="curve"/>
      <point x="372" y="86" type="line"/>
      <point x="373" y="29"/>
      <point x="399" y="-10"/>
      <point x="447" y="-10" type="curve" smooth="yes"/>
      <point x="493" y="-10"/>
      <point x="536" y="18"/>
      <point x="563" y="36" type="curve"/>
      <point x="546" y="70" type="line"/>
      <point x="528" y="61"/>
      <point x="508" y="53"/>
      <point x="491" y="53" type="curve" smooth="yes"/>
      <point x="474" y="53"/>
      <point x="462" y="65"/>
      <point x="462" y="85" type="curve" smooth="yes"/>
      <point x="462" y="103"/>
      <point x="468" y="136"/>
      <point x="474" y="162" type="curve" smooth="yes"/>
      <point x="554" y="536" type="line"/>
      <point x="460" y="536" type="line"/>
      <point x="392" y="216" type="line" smooth="yes"/>
      <point x="373" y="119"/>
      <point x="316" y="54"/>
      <point x="245" y="54" type="curve" smooth="yes"/>
      <point x="190" y="54"/>
      <point x="172" y="89"/>
      <point x="172" y="131" type="curve" smooth="yes"/>
      <point x="172" y="159"/>
      <point x="178" y="200"/>
      <point x="183" y="223" type="curve" smooth="yes"/>
      <point x="249" y="536" type="line"/>
      <point x="155" y="536" type="line"/>
      <point x="89" y="225" type="line" smooth="yes"/>
      <point x="47" y="25"/>
      <point x="-2" y="-88"/>
      <point x="-2" y="-168" type="curve" smooth="yes"/>
      <point x="-2" y="-222"/>
      <point x="25" y="-240"/>
    </contour>
  </outline>
</glyph>
<glyph name="paragraph" format="2">
  <advance width="655"/>
  <unicode hex="00B6"/>
  <outline>
    <contour>
      <point x="371" y="273" type="curve"/>
      <point x="371" y="-127" type="line"/>
      <point x="429" y="-127" type="line"/>
      <point x="429" y="682" type="line"/>
      <point x="531" y="682" type="line"/>
      <point x="531" y="-127" type="line"/>
      <point x="589" y="-127" type="line"/>
      <point x="589" y="760" type="line"/>
      <point x="315" y="760" type="line" smooth="yes"/>
      <point x="184" y="760"/>
      <point x="95" y="700"/>
      <point x="95" y="509" type="curve"/>
      <point x="95" y="326"/>
      <point x="176" y="264"/>
      <point x="300" y="264" type="curve"/>
      <point x="328" y="264"/>
      <point x="351" y="267"/>
    </contour>
  </outline>
</glyph>
<glyph name="paragraph.serif" format="2">
  <advance width="617"/>
  <unicode hex="00B6"/>
  <outline>
    <contour>
      <point x="177" y="-111" type="line"/>
      <point x="333" y="-111" type="line"/>
      <point x="333" y="709" type="line"/>
      <point x="428" y="709" type="line"/>
      <point x="428" y="-111" type="line"/>
      <point x="584" y="-111" type="line"/>
      <point x="584" y="-69" type="line"/>
      <point x="571" y="-69" type="line" smooth="yes"/>
      <point x="526" y="-69"/>
      <point x="489" y="-60"/>
      <point x="489" y="3" type="curve" smooth="yes"/>
      <point x="489" y="646" type="line" smooth="yes"/>
      <point x="489" y="709"/>
      <point x="526" y="718"/>
      <point x="571" y="718" type="curve" smooth="yes"/>
      <point x="584" y="718" type="line"/>
      <point x="584" y="760" type="line"/>
      <point x="203" y="760" type="line" smooth="yes"/>
      <point x="90" y="760"/>
      <point x="48" y="689"/>
      <point x="48" y="582" type="curve" smooth="yes"/>
      <point x="48" y="478"/>
      <point x="84" y="386"/>
      <point x="201" y="386" type="curve" smooth="yes"/>
      <point x="272" y="386" type="line"/>
      <point x="272" y="3" type="line" smooth="yes"/>
      <point x="272" y="-60"/>
      <point x="235" y="-69"/>
      <point x="190" y="-69" type="curve" smooth="yes"/>
      <point x="177" y="-69" type="line"/>
    </contour>
  </outline>
</glyph>
<glyph name="periodcentered.serif" format="2">
  <advance width="286"/>
  <unicode hex="00B7"/>
  <outline>
    <contour>
      <point x="145" y="287" type="curve" smooth="yes"/>
      <point x="177" y="287"/>
      <point x="211" y="307"/>
      <point x="211" y="364" type="curve" smooth="yes"/>
      <point x="211" y="405"/>
      <point x="184" y="425"/>
      <point x="149" y="425" type="curve" smooth="yes"/>
      <point x="109" y="425"/>
      <point x="83" y="394"/>
      <point x="83" y="348" type="curve" smooth="yes"/>
      <point x="83" y="307"/>
      <point x="108" y="287"/>
    </contour>
  </outline>
</glyph>
<glyph name="cedilla" format="2">
  <advance width="205"/>
  <unicode hex="00B8"/>
  <outline>
    <contour>
      <point x="-40" y="-240" type="curve"/>
      <point x="54" y="-240"/>
      <point x="105" y="-194"/>
      <point x="105" y="-134" type="curve" smooth="yes"/>
      <point x="105" y="-85"/>
      <point x="72" y="-66"/>
      <point x="41" y="-57" type="curve"/>
      <point x="70" y="0" type="line"/>
      <point x="14" y="0" type="line"/>
      <point x="-34" y="-88" type="line"/>
      <point x="6" y="-93"/>
      <point x="33" y="-105"/>
      <point x="33" y="-134" type="curve" smooth="yes"/>
      <point x="33" y="-169"/>
      <point x="7" y="-187"/>
      <point x="-49" y="-187" type="curve" smooth="yes"/>
      <point x="-58" y="-187"/>
      <point x="-72" y="-186"/>
      <point x="-85" y="-183" type="curve"/>
      <point x="-85" y="-235" type="line"/>
      <point x="-74" y="-238"/>
      <point x="-57" y="-240"/>
    </contour>
  </outline>
</glyph>
<glyph name="cedilla.serif" format="2">
  <advance width="333"/>
  <unicode hex="00B8"/>
  <outline>
    <contour>
      <point x="110" y="-240" type="curve" smooth="yes"/>
      <point x="198" y="-240"/>
      <point x="269" y="-203"/>
      <point x="269" y="-117" type="curve" smooth="yes"/>
      <point x="269" y="-74"/>
      <point x="237" y="-41"/>
      <point x="189" y="-34" type="curve"/>
      <point x="208" y="9" type="line"/>
      <point x="161" y="9" type="line"/>
      <point x="123" y="-69" type="line"/>
      <point x="161" y="-72"/>
      <point x="187" y="-93"/>
      <point x="187" y="-125" type="curve" smooth="yes"/>
      <point x="187" y="-168"/>
      <point x="154" y="-186"/>
      <point x="113" y="-186" type="curve" smooth="yes"/>
      <point x="95" y="-186"/>
      <point x="69" y="-183"/>
      <point x="46" y="-178" type="curve"/>
      <point x="35" y="-229" type="line"/>
      <point x="58" y="-236"/>
      <point x="89" y="-240"/>
    </contour>
  </outline>
</glyph>
<glyph name="onesuperior" format="2">
  <advance width="353"/>
  <unicode hex="00B9"/>
  <outline>
    <contour>
      <point x="243" y="666" type="curve" smooth="yes"/>
      <point x="190" y="415" type="line"/>
      <point x="261" y="415" type="line"/>
      <point x="352" y="843" type="line"/>
      <point x="290" y="843" type="line"/>
      <point x="148" y="751" type="line"/>
      <point x="176" y="704" type="line"/>
      <point x="228" y="738" type="line" smooth="yes"/>
      <point x="244" y="750"/>
      <point x="260" y="765"/>
      <point x="271" y="775" type="curve"/>
      <point x="263" y="747"/>
      <point x="250" y="699"/>
    </contour>
  </outline>
</glyph>
<glyph name="onesuperior.serif" format="2">
  <advance width="400"/>
  <unicode hex="00B9"/>
  <outline>
    <contour>
      <point x="86" y="387" type="line"/>
      <point x="351" y="387" type="line"/>
      <point x="358" y="421" type="line"/>
      <point x="312" y="421" type="line" smooth="yes"/>
      <point x="293" y="421"/>
      <point x="277" y="424"/>
      <point x="277" y="446" type="curve" smooth="yes"/>
      <point x="277" y="456"/>
      <point x="281" y="473"/>
      <point x="284" y="488" type="curve" smooth="yes"/>
      <point x="354" y="819" type="line"/>
      <point x="304" y="819" type="line"/>
      <point x="219" y="766"/>
      <point x="188" y="750"/>
      <point x="128" y="744" type="curve"/>
      <point x="127" y="720"/>
      <point x="138" y="703"/>
      <point x="160" y="703" type="curve" smooth="yes"/>
      <point x="189" y="703"/>
      <point x="206" y="715"/>
      <point x="245" y="747" type="curve"/>
      <point x="249" y="747" type="line"/>
      <point x="188" y="459" type="line" smooth="yes"/>
      <point x="181" y="425"/>
      <point x="162" y="421"/>
      <point x="139" y="421" type="curve" smooth="yes"/>
      <point x="93" y="421" type="line"/>
    </contour>
  </outline>
</glyph>
<glyph name="ordmasculine" format="2">
  <advance width="339"/>
  <unicode hex="00BA"/>
  <anchor x="193" y="383" name="bottom"/>
  <anchor x="262" y="728" name="top"/>
  <outline>
    <contour>
      <point x="208" y="383" type="curve" smooth="yes"/>
      <point x="323" y="383"/>
      <point x="371" y="491"/>
      <point x="371" y="594" type="curve" smooth="yes"/>
      <point x="371" y="668"/>
      <point x="335" y="722"/>
      <point x="251" y="722" type="curve" smooth="yes"/>
      <point x="141" y="722"/>
      <point x="86" y="618"/>
      <point x="86" y="514" type="curve" smooth="yes"/>
      <point x="86" y="426"/>
      <point x="139" y="383"/>
    </contour>
    <contour>
      <point x="213" y="435" type="curve" smooth="yes"/>
      <point x="170" y="435"/>
      <point x="145" y="462"/>
      <point x="145" y="516" type="curve" smooth="yes"/>
      <point x="145" y="596"/>
      <point x="179" y="669"/>
      <point x="249" y="669" type="curve" smooth="yes"/>
      <point x="288" y="669"/>
      <point x="313" y="646"/>
      <point x="313" y="591" type="curve" smooth="yes"/>
      <point x="313" y="512"/>
      <point x="280" y="435"/>
    </contour>
  </outline>
</glyph>
<glyph name="ordmasculine.serif" format="2">
  <advance width="397"/>
  <unicode hex="00BA"/>
  <anchor x="195" y="379" name="bottom"/>
  <anchor x="271" y="719" name="top"/>
  <outline>
    <contour>
      <point x="205" y="381" type="curve" smooth="yes"/>
      <point x="345" y="381"/>
      <point x="408" y="510"/>
      <point x="408" y="594" type="curve" smooth="yes"/>
      <point x="408" y="679"/>
      <point x="347" y="717"/>
      <point x="272" y="717" type="curve" smooth="yes"/>
      <point x="137" y="717"/>
      <point x="67" y="596"/>
      <point x="67" y="506" type="curve" smooth="yes"/>
      <point x="67" y="425"/>
      <point x="122" y="381"/>
    </contour>
    <contour>
      <point x="205" y="421" type="curve" smooth="yes"/>
      <point x="174" y="421"/>
      <point x="155" y="446"/>
      <point x="155" y="495" type="curve" smooth="yes"/>
      <point x="155" y="566"/>
      <point x="192" y="677"/>
      <point x="265" y="677" type="curve" smooth="yes"/>
      <point x="297" y="677"/>
      <point x="314" y="653"/>
      <point x="314" y="606" type="curve" smooth="yes"/>
      <point x="314" y="538"/>
      <point x="282" y="421"/>
    </contour>
  </outline>
</glyph>
<glyph name="guillemetright" format="2">
  <advance width="477"/>
  <unicode hex="00BB"/>
  <outline>
    <contour>
      <point x="243" y="54" type="line"/>
      <point x="435" y="239" type="line"/>
      <point x="435" y="253" type="line"/>
      <point x="323" y="471" type="line"/>
      <point x="262" y="445" type="line"/>
      <point x="344" y="256" type="line"/>
      <point x="200" y="97" type="line"/>
    </contour>
    <contour>
      <point x="57" y="60" type="line"/>
      <point x="238" y="258" type="line"/>
      <point x="238" y="273" type="line"/>
      <point x="133" y="471" type="line"/>
      <point x="72" y="445" type="line"/>
      <point x="148" y="272" type="line"/>
      <point x="10" y="97" type="line"/>
    </contour>
  </outline>
</glyph>
<glyph name="guillemetright.serif" format="2">
  <advance width="514"/>
  <unicode hex="00BB"/>
  <outline>
    <contour>
      <point x="205" y="80" type="line"/>
      <point x="255" y="80" type="line"/>
      <point x="445" y="254" type="line"/>
      <point x="452" y="286" type="line"/>
      <point x="336" y="460" type="line"/>
      <point x="286" y="460" type="line"/>
      <point x="351" y="275" type="line"/>
    </contour>
    <contour>
      <point x="24" y="80" type="line"/>
      <point x="74" y="80" type="line"/>
      <point x="264" y="254" type="line"/>
      <point x="271" y="286" type="line"/>
      <point x="155" y="460" type="line"/>
      <point x="105" y="460" type="line"/>
      <point x="170" y="275" type="line"/>
    </contour>
  </outline>
</glyph>
<glyph name="guillemotright" format="2">
  <advance width="460"/>
  <unicode hex="00BB"/>
  <outline>
    <contour>
      <point x="238" y="54" type="line"/>
      <point x="423" y="239" type="line"/>
      <point x="423" y="253" type="line"/>
      <point x="320" y="471" type="line"/>
      <point x="257" y="445" type="line"/>
      <point x="332" y="256" type="line"/>
      <point x="194" y="97" type="line"/>
    </contour>
    <contour>
      <point x="58" y="60" type="line"/>
      <point x="233" y="258" type="line"/>
      <point x="233" y="273" type="line"/>
      <point x="136" y="471" type="line"/>
      <point x="73" y="445" type="line"/>
      <point x="143" y="272" type="line"/>
      <point x="10" y="97" type="line"/>
    </contour>
  </outline>
</glyph>
<glyph name="questiondown.serif" format="2">
  <advance width="500"/>
  <unicode hex="00BF"/>
  <outline>
    <contour>
      <point x="190" y="-190" type="curve" smooth="yes"/>
      <point x="317" y="-190"/>
      <point x="392" y="-128"/>
      <point x="392" y="-58" type="curve" smooth="yes"/>
      <point x="392" y="-20"/>
      <point x="367" y="2"/>
      <point x="320" y="2" type="curve"/>
      <point x="308" y="-74"/>
      <point x="280" y="-140"/>
      <point x="196" y="-140" type="curve" smooth="yes"/>
      <point x="140" y="-140"/>
      <point x="99" y="-101"/>
      <point x="99" y="-32" type="curve" smooth="yes"/>
      <point x="99" y="74"/>
      <point x="180" y="140"/>
      <point x="302" y="185" type="curve"/>
      <point x="330" y="333" type="line"/>
      <point x="275" y="333" type="line"/>
      <point x="247" y="217" type="line"/>
      <point x="107" y="166"/>
      <point x="1" y="92"/>
      <point x="1" y="-24" type="curve"/>
      <point x="1" y="-139"/>
      <point x="74" y="-190"/>
    </contour>
    <contour>
      <point x="315" y="405" type="curve" smooth="yes"/>
      <point x="358" y="405"/>
      <point x="387" y="440"/>
      <point x="387" y="487" type="curve" smooth="yes"/>
      <point x="387" y="522"/>
      <point x="364" y="542"/>
      <point x="331" y="542" type="curve" smooth="yes"/>
      <point x="296" y="542"/>
      <point x="259" y="520"/>
      <point x="259" y="458" type="curve" smooth="yes"/>
      <point x="259" y="423"/>
      <point x="283" y="405"/>
    </contour>
  </outline>
</glyph>
<glyph name="AE" format="2">
  <advance width="824"/>
  <unicode hex="00C6"/>
  <anchor x="355" y="0" name="bottom"/>
  <anchor x="507" y="714" name="top"/>
  <outline>
    <contour>
      <point x="-58" y="0" type="line"/>
      <point x="44" y="0" type="line"/>
      <point x="183" y="222" type="line"/>
      <point x="397" y="222" type="line"/>
      <point x="350" y="0" type="line"/>
      <point x="713" y="0" type="line"/>
      <point x="730" y="79" type="line"/>
      <point x="457" y="79" type="line"/>
      <point x="511" y="334" type="line"/>
      <point x="767" y="334" type="line"/>
      <point x="782" y="412" type="line"/>
      <point x="526" y="412" type="line"/>
      <point x="574" y="635" type="line"/>
      <point x="848" y="635" type="line"/>
      <point x="864" y="714" type="line"/>
      <point x="399" y="714" type="line"/>
    </contour>
    <contour>
      <point x="234" y="302" type="line"/>
      <point x="443" y="635" type="line"/>
      <point x="484" y="635" type="line"/>
      <point x="413" y="302" type="line"/>
    </contour>
  </outline>
</glyph>
<glyph name="AE.serif" format="2">
  <advance width="951"/>
  <unicode hex="00C6"/>
  <anchor x="419" y="0" name="bottom"/>
  <anchor x="611" y="714" name="top"/>
  <outline>
    <contour>
      <point x="-58" y="0" type="line"/>
      <point x="188" y="0" type="line"/>
      <point x="196" y="42" type="line"/>
      <point x="175" y="42" type="line" smooth="yes"/>
      <point x="137" y="42"/>
      <point x="124" y="52"/>
      <point x="124" y="75" type="curve" smooth="yes"/>
      <point x="124" y="91"/>
      <point x="134" y="111"/>
      <point x="151" y="134" type="curve" smooth="yes"/>
      <point x="226" y="239" type="line"/>
      <point x="452" y="239" type="line"/>
      <point x="425" y="109" type="line" smooth="yes"/>
      <point x="413" y="49"/>
      <point x="372" y="42"/>
      <point x="328" y="42" type="curve" smooth="yes"/>
      <point x="315" y="42" type="line"/>
      <point x="307" y="0" type="line"/>
      <point x="843" y="0" type="line"/>
      <point x="887" y="175" type="line"/>
      <point x="835" y="175" type="line"/>
      <point x="819" y="132" type="line" smooth="yes"/>
      <point x="803" y="88"/>
      <point x="769" y="50"/>
      <point x="706" y="50" type="curve" smooth="yes"/>
      <point x="513" y="50" type="line"/>
      <point x="577" y="349" type="line"/>
      <point x="818" y="349" type="line"/>
      <point x="828" y="398" type="line"/>
      <point x="587" y="398" type="line"/>
      <point x="644" y="664" type="line"/>
      <point x="812" y="664" type="line" smooth="yes"/>
      <point x="864" y="664"/>
      <point x="883" y="634"/>
      <point x="883" y="597" type="curve" smooth="yes"/>
      <point x="883" y="592"/>
      <point x="879" y="548"/>
      <point x="878" y="539" type="curve"/>
      <point x="930" y="539" type="line"/>
      <point x="962" y="714" type="line"/>
      <point x="396" y="714" type="line"/>
      <point x="387" y="672" type="line"/>
      <point x="472" y="666" type="line"/>
      <point x="74" y="120" type="line" smooth="yes"/>
      <point x="27" y="56"/>
      <point x="9" y="42"/>
      <point x="-29" y="42" type="curve" smooth="yes"/>
      <point x="-48" y="42" type="line"/>
    </contour>
    <contour>
      <point x="263" y="289" type="line"/>
      <point x="396" y="473" type="line" smooth="yes"/>
      <point x="441" y="535"/>
      <point x="495" y="616"/>
      <point x="523" y="664" type="curve"/>
      <point x="542" y="664" type="line"/>
      <point x="463" y="289" type="line"/>
    </contour>
  </outline>
</glyph>
<glyph name="Eth" format="2">
  <advance width="667"/>
  <unicode hex="00D0"/>
  <anchor x="277" y="0" name="bottom"/>
  <anchor x="429" y="714" name="top"/>
  <outline>
    <contour>
      <point x="370" y="392" type="line"/>
      <point x="50" y="392" type="line"/>
      <point x="33" y="315" type="line"/>
      <point x="353" y="315" type="line"/>
    </contour>
    <component base="D"/>
  </outline>
</glyph>
<glyph name="Eth.serif" format="2">
  <advance width="725"/>
  <unicode hex="00D0"/>
  <anchor x="306" y="0" name="bottom"/>
  <anchor x="458" y="714" name="top"/>
  <outline>
    <contour>
      <point x="51" y="349" type="line"/>
      <point x="417" y="349" type="line"/>
      <point x="428" y="398" type="line"/>
      <point x="62" y="398" type="line"/>
    </contour>
    <component base="D"/>
  </outline>
</glyph>
<glyph name="multiply" format="2">
  <advance width="572"/>
  <unicode hex="00D7"/>
  <outline>
    <contour>
      <point x="476" y="574" type="line"/>
      <point x="305" y="403" type="line"/>
      <point x="136" y="574" type="line"/>
      <point x="84" y="522" type="line"/>
      <point x="254" y="353" type="line"/>
      <point x="85" y="183" type="line"/>
      <point x="137" y="132" type="line"/>
      <point x="304" y="301" type="line"/>
      <point x="475" y="132" type="line"/>
      <point x="525" y="183" type="line"/>
      <point x="356" y="353" type="line"/>
      <point x="526" y="523" type="line"/>
    </contour>
  </outline>
</glyph>
<glyph name="Oslash" format="2">
  <advance width="721"/>
  <unicode hex="00D8"/>
  <anchor x="304" y="0" name="bottom"/>
  <anchor x="456" y="714" name="top"/>
  <outline>
    <contour>
      <point x="114" y="-41" type="line"/>
      <point x="176" y="36" type="line"/>
      <point x="220" y="5"/>
      <point x="272" y="-10"/>
      <point x="337" y="-10" type="curve"/>
      <point x="568" y="-10"/>
      <point x="690" y="197"/>
      <point x="690" y="444" type="curve"/>
      <point x="690" y="513"/>
      <point x="673" y="577"/>
      <point x="642" y="618" type="curve"/>
      <point x="714" y="706" type="line"/>
      <point x="656" y="752" type="line"/>
      <point x="593" y="673" type="line"/>
      <point x="548" y="708"/>
      <point x="497" y="725"/>
      <point x="433" y="725" type="curve"/>
      <point x="208" y="725"/>
      <point x="72" y="513"/>
      <point x="72" y="267" type="curve"/>
      <point x="72" y="196"/>
      <point x="88" y="134"/>
      <point x="123" y="87" type="curve"/>
      <point x="57" y="5" type="line"/>
    </contour>
    <contour>
      <point x="340" y="69" type="curve"/>
      <point x="294" y="69"/>
      <point x="256" y="82"/>
      <point x="229" y="103" type="curve"/>
      <point x="581" y="540" type="line"/>
      <point x="590" y="515"/>
      <point x="596" y="482"/>
      <point x="596" y="446" type="curve"/>
      <point x="596" y="244"/>
      <point x="500" y="69"/>
    </contour>
    <contour>
      <point x="538" y="606" type="curve"/>
      <point x="185" y="164" type="line"/>
      <point x="173" y="192"/>
      <point x="166" y="229"/>
      <point x="166" y="269" type="curve"/>
      <point x="166" y="477"/>
      <point x="267" y="647"/>
      <point x="427" y="647" type="curve"/>
      <point x="473" y="647"/>
      <point x="510" y="632"/>
    </contour>
  </outline>
</glyph>
<glyph name="Oslash.serif" format="2">
  <advance width="742"/>
  <unicode hex="00D8"/>
  <anchor x="314" y="0" name="bottom"/>
  <anchor x="466" y="714" name="top"/>
  <outline>
    <contour>
      <point x="67" y="-40" type="line"/>
      <point x="126" y="-40" type="line"/>
      <point x="704" y="755" type="line"/>
      <point x="646" y="755" type="line"/>
    </contour>
    <component base="O"/>
  </outline>
</glyph>
<glyph name="Thorn" format="2">
  <advance width="567"/>
  <unicode hex="00DE"/>
  <anchor x="227" y="0" name="bottom"/>
  <anchor x="379" y="714" name="top"/>
  <outline>
    <contour>
      <point x="41" y="0" type="line"/>
      <point x="130" y="0" type="line"/>
      <point x="163" y="155" type="line"/>
      <point x="226" y="155" type="line" smooth="yes"/>
      <point x="432" y="155"/>
      <point x="542" y="243"/>
      <point x="542" y="404" type="curve"/>
      <point x="542" y="516"/>
      <point x="480" y="590"/>
      <point x="327" y="590" type="curve"/>
      <point x="255" y="590" type="line"/>
      <point x="281" y="714" type="line"/>
      <point x="192" y="714" type="line"/>
    </contour>
    <contour>
      <point x="241" y="231" type="curve"/>
      <point x="178" y="231" type="line"/>
      <point x="238" y="513" type="line"/>
      <point x="315" y="513" type="line" smooth="yes"/>
      <point x="406" y="513"/>
      <point x="450" y="481"/>
      <point x="450" y="401" type="curve"/>
      <point x="450" y="283"/>
      <point x="368" y="231"/>
    </contour>
  </outline>
</glyph>
<glyph name="Thorn.serif" format="2">
  <advance width="604"/>
  <unicode hex="00DE"/>
  <anchor x="245" y="0" name="bottom"/>
  <anchor x="397" y="714" name="top"/>
  <outline>
    <contour>
      <point x="-20" y="0" type="line"/>
      <point x="280" y="0" type="line"/>
      <point x="289" y="42" type="line"/>
      <point x="266" y="42" type="line" smooth="yes"/>
      <point x="224" y="42"/>
      <point x="194" y="48"/>
      <point x="194" y="82" type="curve" smooth="yes"/>
      <point x="194" y="88"/>
      <point x="196" y="102"/>
      <point x="198" y="110" type="curve" smooth="yes"/>
      <point x="207" y="154" type="line"/>
      <point x="281" y="154" type="line" smooth="yes"/>
      <point x="538" y="154"/>
      <point x="587" y="296"/>
      <point x="587" y="397" type="curve" smooth="yes"/>
      <point x="587" y="524"/>
      <point x="499" y="590"/>
      <point x="359" y="590" type="curve" smooth="yes"/>
      <point x="300" y="590" type="line"/>
      <point x="302" y="600" type="line" smooth="yes"/>
      <point x="315" y="664"/>
      <point x="354" y="672"/>
      <point x="399" y="672" type="curve" smooth="yes"/>
      <point x="422" y="672" type="line"/>
      <point x="431" y="714" type="line"/>
      <point x="130" y="714" type="line"/>
      <point x="121" y="672" type="line"/>
      <point x="134" y="672" type="line" smooth="yes"/>
      <point x="176" y="672"/>
      <point x="206" y="666"/>
      <point x="206" y="632" type="curve" smooth="yes"/>
      <point x="206" y="626"/>
      <point x="204" y="612"/>
      <point x="202" y="604" type="curve" smooth="yes"/>
      <point x="98" y="114" type="line" smooth="yes"/>
      <point x="85" y="51"/>
      <point x="46" y="42"/>
      <point x="2" y="42" type="curve" smooth="yes"/>
      <point x="-11" y="42" type="line"/>
    </contour>
    <contour>
      <point x="270" y="201" type="curve" smooth="yes"/>
      <point x="217" y="201" type="line"/>
      <point x="289" y="542" type="line"/>
      <point x="335" y="542" type="line" smooth="yes"/>
      <point x="430" y="542"/>
      <point x="481" y="501"/>
      <point x="481" y="396" type="curve" smooth="yes"/>
      <point x="481" y="282"/>
      <point x="425" y="201"/>
    </contour>
  </outline>
</glyph>
<glyph name="germandbls" format="2">
  <advance width="584"/>
  <unicode hex="00DF"/>
  <anchor x="184" y="-240" name="bottom"/>
  <anchor x="398" y="765" name="top"/>
  <outline>
    <contour>
      <point x="-64" y="-240" type="curve" smooth="yes"/>
      <point x="34" y="-240"/>
      <point x="79" y="-173"/>
      <point x="103" y="-62" type="curve" smooth="yes"/>
      <point x="236" y="570" type="line"/>
      <point x="253" y="651"/>
      <point x="294" y="693"/>
      <point x="371" y="693" type="curve" smooth="yes"/>
      <point x="427" y="693"/>
      <point x="465" y="669"/>
      <point x="465" y="626" type="curve" smooth="yes"/>
      <point x="465" y="579"/>
      <point x="424" y="549"/>
      <point x="380" y="519" type="curve" smooth="yes"/>
      <point x="333" y="486"/>
      <point x="285" y="451"/>
      <point x="285" y="383" type="curve" smooth="yes"/>
      <point x="285" y="342"/>
      <point x="307" y="309"/>
      <point x="363" y="266" type="curve" smooth="yes"/>
      <point x="409" y="228"/>
      <point x="428" y="207"/>
      <point x="428" y="163" type="curve" smooth="yes"/>
      <point x="428" y="107"/>
      <point x="388" y="62"/>
      <point x="308" y="62" type="curve" smooth="yes"/>
      <point x="262" y="62"/>
      <point x="215" y="84"/>
      <point x="187" y="106" type="curve"/>
      <point x="187" y="25" type="line"/>
      <point x="215" y="4"/>
      <point x="259" y="-10"/>
      <point x="319" y="-10" type="curve" smooth="yes"/>
      <point x="424" y="-10"/>
      <point x="518" y="45"/>
      <point x="518" y="173" type="curve" smooth="yes"/>
      <point x="518" y="235"/>
      <point x="485" y="273"/>
      <point x="434" y="316" type="curve" smooth="yes"/>
      <point x="414" y="332"/>
      <point x="371" y="358"/>
      <point x="371" y="388" type="curve" smooth="yes"/>
      <point x="371" y="424"/>
      <point x="412" y="451"/>
      <point x="454" y="482" type="curve" smooth="yes"/>
      <point x="503" y="519"/>
      <point x="551" y="562"/>
      <point x="551" y="632" type="curve" smooth="yes"/>
      <point x="551" y="718"/>
      <point x="483" y="765"/>
      <point x="379" y="765" type="curve" smooth="yes"/>
      <point x="250" y="765"/>
      <point x="177" y="701"/>
      <point x="149" y="570" type="curve" smooth="yes"/>
      <point x="13" y="-68" type="line"/>
      <point x="-2" y="-138"/>
      <point x="-29" y="-166"/>
      <point x="-71" y="-166" type="curve" smooth="yes"/>
      <point x="-92" y="-166"/>
      <point x="-109" y="-162"/>
      <point x="-125" y="-155" type="curve"/>
      <point x="-125" y="-230" type="line"/>
      <point x="-110" y="-236"/>
      <point x="-88" y="-240"/>
    </contour>
  </outline>
</glyph>
